<?xml version="1.0" encoding="UTF-8" standalone="no"?>
<svg
   xmlns:dc="http://purl.org/dc/elements/1.1/"
   xmlns:cc="http://creativecommons.org/ns#"
   xmlns:rdf="http://www.w3.org/1999/02/22-rdf-syntax-ns#"
   xmlns:svg="http://www.w3.org/2000/svg"
   xmlns="http://www.w3.org/2000/svg"
   xmlns:xlink="http://www.w3.org/1999/xlink"
   version="1.1"
   id="svg58"
   width="1244"
   height="306"
   viewBox="0 0 1244 306">
  <metadata
     id="metadata64">
    <rdf:RDF>
      <cc:Work
         rdf:about="">
        <dc:format>image/svg+xml</dc:format>
        <dc:type
           rdf:resource="http://purl.org/dc/dcmitype/StillImage" />
        <dc:title></dc:title>
      </cc:Work>
    </rdf:RDF>
  </metadata>
  <defs
     id="defs62">
    <linearGradient
       id="linearGradient78">
      <stop
         style="stop-color:#ff0000;stop-opacity:1;"
         offset="0"
         id="stop74" />
      <stop
         style="stop-color:#000000;stop-opacity:1"
         offset="1"
         id="stop76" />
    </linearGradient>
    <linearGradient
       xlink:href="#linearGradient78"
       id="linearGradient80"
       x1="0.1426252"
       y1="160.63597"
       x2="1237.3152"
       y2="154.30939"
       gradientUnits="userSpaceOnUse" />
    <linearGradient
       xlink:href="#linearGradient78"
       id="linearGradient972"
       gradientUnits="userSpaceOnUse"
       x1="0.1426252"
       y1="160.63597"
       x2="1237.3152"
       y2="154.30939"
       gradientTransform="translate(-0.55261892,-0.47177333)" />
    <clipPath
       clipPathUnits="userSpaceOnUse"
       id="clipPath1010">
      <g
         id="g1016">
        <rect
           style="fill:#ff0000;stroke:none;stroke-width:5.66929;stroke-opacity:1;stop-color:#000000"
           id="rect1012"
           width="930.26953"
           height="286.69507"
           x="316.42322"
           y="-22.228338" />
        <rect
           style="fill:#ff0000;stroke:none;stroke-width:5.66929;stroke-opacity:1;stop-color:#000000"
           id="rect1014"
           width="79.59053"
           height="87.411621"
           x="294.87091"
           y="-23.827808" />
      </g>
    </clipPath>
  </defs>
  <g
     id="g66">
    <g
       id="g1020">
      <path
         style="fill:url(#linearGradient972);fill-opacity:1"
         d="M 135.5,304.33805 C 116.79443,302.55394 95.60661,297.04179 80.338231,289.98737 43.46084,272.94896 15.140089,240.41903 3.6172039,201.86366 L 0,189.76056 V 155.25654 120.75252 L 3.1162987,109.85964 C 17.18358,60.688094 58.110633,20.885644 109.31582,6.578304 127.36843,1.534184 140.28866,0.14130393 163.22718,0.76632397 184.87781,1.356264 194.75343,2.849084 211,7.987794 c 46.10943,14.58417 80.7486,51.85012 90.60793,97.478966 2.53944,11.75251 2.56885,35.53601 0.0569,46 -8.45519,35.22136 -33.41282,61.11144 -68.79435,71.36461 -16.09337,4.66367 -28.42224,6.07121 -53.37046,6.09308 -13.57414,0.0119 -26.60195,-0.50497 -31.7891,-1.26121 -36.66119,-5.34486 -57.35045,-18.70592 -65.340222,-42.19648 -2.932052,-8.62046 -2.675093,-30.92515 0.472336,-41 10.278374,-32.90085 33.022036,-50.185696 71.012916,-53.968776 5.69578,-0.56717 21.34185,-1.03123 34.76906,-1.03123 h 24.41309 l -0.49569,2.25 c -0.27263,1.2375 -1.42122,7.65 -2.55242,14.250006 -1.13119,6.6 -2.30246,13.2375 -2.60281,14.75 l -0.54609,2.75 H 186.4929 c -24.74021,0 -33.74754,1.1034 -42.81194,5.24445 -8.1862,3.73986 -14.16135,9.92336 -18.91014,19.56952 -3.06617,6.22828 -3.27082,7.30225 -3.27082,17.165 0,8.93579 0.33241,11.14244 2.20615,14.64524 2.60817,4.87576 7.21934,8.99232 12.90177,11.5179 5.10215,2.26767 17.58326,4.16658 18.42579,2.80335 0.32822,-0.53107 2.52623,-12.09855 4.88447,-25.70552 2.35824,-13.60697 4.49294,-25.07744 4.74378,-25.48994 0.25084,-0.4125 8.97952,-0.75 19.39706,-0.75 17.17065,0 18.94098,0.15912 18.94098,1.70241 0,1.57009 -7.36526,43.93638 -8.52679,49.04759 -0.50204,2.20919 -0.3432,2.24969 8.75774,2.23264 28.21813,-0.0529 46.3249,-12.30067 53.66065,-36.29721 7.26541,-23.76643 3.65254,-53.92176 -9.03699,-75.428566 -4.56331,-7.73412 -17.83997,-21.05397 -26.35461,-26.44036 -17.50988,-11.07679 -33.3868,-15.72291 -56.5,-16.5338 -23.43078,-0.82203 -40.26447,2.15864 -57.70822,10.21815 -27.708931,12.80231 -51.807568,39.97299 -60.750622,68.494986 -18.271196,58.27214 10.654963,121.06631 63.986312,138.90427 19.68646,6.58462 -23.943661,6.09144 539.28294,6.09587 l 511.31039,0.004 -0.3256,-41.25 c -0.3507,-44.43005 -0.4396,-45.22906 -5.9231,-53.23175 -6.0587,-8.8421 -14.8255,-10.43706 -57.6221,-10.48336 l -32.25,-0.0349 v -30 -30.000006 h 41.1681 c 46.1598,0 52.0973,-0.53808 57.41,-5.20276 5.4957,-4.82528 6.8619,-13.02764 3.4295,-20.59039 -1.5385,-3.38996 -2.954,-4.75742 -6.728,-6.5 -4.6723,-2.15731 -5.7953,-2.21352 -50.0296,-2.50424 L 1065,64.371944 V 34.419334 4.466724 l 50.25,0.008 c 63.6661,0.0104 74.8085,1.13287 90.8256,9.14968 24.578,12.30167 37.2848,41.60249 31.4426,72.50415 -4.2064,22.249406 -20.3451,39.639996 -41.2684,44.469676 -5.73,1.32264 -5.9946,2.3184 -0.8714,3.27951 5.8565,1.09869 15.2431,6.45449 19.6043,11.18589 2.3036,2.49903 5.508,7.36391 7.121,10.81085 5.7387,12.26321 5.8599,14.01337 5.8789,84.84205 l 0.017,64.75 -541.75,-0.13515 c -297.9625,-0.0743 -545.8,-0.52143 -550.75,-0.99356 z M 912.36376,256.42208 C 882.0247,254.02404 856.68384,242.39495 835.37318,221.09059 814.44016,200.16375 803.34873,176.51062 799.9568,145.5631 795.36442,103.66278 808.98583,61.653364 835.77365,35.101344 849.62012,21.376754 863.95047,12.443604 881.5,6.596774 897.05522,1.414364 905.86617,0.03060393 923.5,6.2393199e-4 941.05592,-0.02917607 948.41346,0.99689397 963.5,5.579174 c 37.7813,11.47542 65.9395,38.36513 78.0956,74.57757 8.5459,25.457786 9.6943,60.580266 2.8429,86.949546 -8.5107,32.75626 -31.8568,62.35214 -60.727,76.9839 -19.69576,9.98204 -45.23333,14.39601 -71.34774,12.33189 z m 29.7139,-59.98148 c 16.75501,-5.64436 28.13944,-19.48869 34.10467,-41.47384 2.90116,-10.69239 3.18788,-39.07671 0.50508,-50 -7.57196,-30.829876 -26.39959,-47.544976 -53.48663,-47.485226 -25.97806,0.0573 -44.26608,15.899 -51.35478,44.485226 -3.22055,12.98733 -3.22089,38.01002 -7e-4,51 7.75123,31.2678 27.33509,47.52715 55.40366,45.99845 4.92742,-0.26836 11.40458,-1.37111 14.8287,-2.52461 z M 377.67147,251.71676 C 377.15851,250.85523 302,5.812134 302,5.001214 c 0,-0.29395 15.96243,-0.53446 35.47207,-0.53446 h 35.47206 l 1.50083,5.2499997 c 5.45415,19.0789403 29.79243,111.3356863 31.8551,120.7500063 1.38579,6.325 3.7679,18.8198 5.29356,27.76622 1.52567,8.94642 3.07209,15.92142 3.4365,15.5 0.36441,-0.42142 1.43268,-5.26622 2.37394,-10.76622 3.67313,-21.463 8.17249,-39.20557 24.82129,-97.879246 L 459.5,4.208264 l 35.49431,0.70688 c 19.52186,0.38879 35.62106,0.83365 35.77598,0.98857 0.15493,0.15493 -17.82326,55.69499 -39.95153,123.422366 l -40.23322,123.14068 h -36.23376 c -19.92856,0 -36.4347,-0.3375 -36.68031,-0.75 z M 540,175.96676 V 99.466754 h 33.5 33.5 v 76.500006 76.5 H 573.5 540 Z m 83,46 v -30.5 h 34.3185 c 39.28789,0 41.87992,-0.3764 49.22671,-7.14844 5.57087,-5.13505 8.55714,-11.28032 8.60696,-17.71178 0.10756,-13.88593 -4.06436,-20.65555 -37.06236,-60.13978 -26.18053,-31.326696 -33.99573,-42.657626 -38.69095,-56.096386 -4.11606,-11.78105 -4.98935,-20.6995 -3.32759,-33.98291 L 637.5,4.966754 l 34.86169,-0.26308 34.86169,-0.26309 -0.55046,2.26309 c -1.46967,6.04219 -1.80358,14.92802 -0.74674,19.87175 1.79672,8.40478 7.3888,16.63998 28.12286,41.41524 29.74883,35.547066 37.19502,46.144706 44.06739,62.717986 10.00982,24.13948 9.38041,52.9691 -1.63609,74.93986 -8.68457,17.32007 -19.07021,27.97339 -34.8984,35.79788 -18.84017,9.31343 -31.30037,10.97865 -82.33194,11.00304 L 623,252.46673 Z M 540,34.466754 v -30 h 33.5 33.5 v 30 30 H 573.5 540 Z"
         id="path70" />
      <path
         style="fill:#000000"
         d="M 135.5,304.33804 C 116.79443,302.55393 95.60661,297.04178 80.338231,289.98736 43.46084,272.94895 15.140089,240.41902 3.617204,201.86365 L 0,189.76055 V 155.25653 120.75251 L 3.116298,109.85963 C 17.18358,60.688094 58.110633,20.885644 109.31582,6.5783039 127.36843,1.5341839 140.28866,0.14130393 163.22718,0.76632393 184.87781,1.3562639 194.75343,2.8490839 211,7.9877939 c 46.10943,14.5841701 80.7486,51.8501201 90.60793,97.4789561 2.53944,11.75251 2.56885,35.53601 0.0569,46 -8.45519,35.22136 -33.41282,61.11144 -68.79435,71.36461 -16.09337,4.66367 -28.42224,6.07121 -53.37046,6.09308 -13.57414,0.0119 -26.60195,-0.50497 -31.7891,-1.26121 -36.66119,-5.34486 -57.35045,-18.70592 -65.340222,-42.19648 -2.932052,-8.62046 -2.675093,-30.92515 0.472336,-41 10.278374,-32.90085 33.022036,-50.185686 71.012916,-53.968766 5.69578,-0.56717 21.34185,-1.03123 34.76906,-1.03123 h 24.41309 l -0.49569,2.25 c -0.27263,1.2375 -1.42122,7.65 -2.55242,14.249996 -1.13119,6.6 -2.30246,13.2375 -2.60281,14.75 l -0.54609,2.75 H 186.4929 c -24.74021,0 -33.74754,1.1034 -42.81194,5.24445 -8.1862,3.73986 -14.16135,9.92336 -18.91014,19.56952 -3.06617,6.22828 -3.27082,7.30225 -3.27082,17.165 0,8.93579 0.33241,11.14244 2.20615,14.64524 2.60817,4.87576 7.21934,8.99232 12.90177,11.5179 5.10215,2.26767 17.58326,4.16658 18.42579,2.80335 0.32822,-0.53107 2.52623,-12.09855 4.88447,-25.70552 2.35824,-13.60697 4.49294,-25.07744 4.74378,-25.48994 0.25084,-0.4125 8.97952,-0.75 19.39706,-0.75 17.17065,0 18.94098,0.15912 18.94098,1.70241 0,1.57009 -7.36526,43.93638 -8.52679,49.04759 -0.50204,2.20919 -0.3432,2.24969 8.75774,2.23264 28.21813,-0.0529 46.3249,-12.30067 53.66065,-36.29721 7.26541,-23.76643 3.65254,-53.92176 -9.03699,-75.428556 -4.56331,-7.73412 -17.83997,-21.05397 -26.35461,-26.44036 -17.50988,-11.07679 -33.3868,-15.72291 -56.5,-16.5338 -23.43078,-0.82203 -40.26447,2.15864 -57.70822,10.21815 -27.708931,12.80231 -51.807568,39.97299 -60.750622,68.494976 -18.271196,58.27214 10.654963,121.06631 63.986312,138.90427 19.68646,6.58462 -23.943661,6.09144 539.28294,6.09587 l 511.31039,0.004 -0.3256,-41.25 c -0.3507,-44.43005 -0.4396,-45.22906 -5.9231,-53.23175 -6.0587,-8.8421 -14.8255,-10.43706 -57.6221,-10.48336 l -32.25,-0.0349 v -30 -29.999996 h 41.1681 c 46.1598,0 52.0973,-0.53808 57.41,-5.20276 5.4957,-4.82528 6.8619,-13.02764 3.4295,-20.59039 -1.5385,-3.38996 -2.954,-4.75742 -6.728,-6.5 -4.6723,-2.15731 -5.7953,-2.21352 -50.0296,-2.50424 L 1065,64.371944 V 34.419334 4.4667239 l 50.25,0.008 c 63.6661,0.0104 74.8085,1.13287 90.8256,9.1496801 24.578,12.30167 37.2848,41.60249 31.4426,72.50415 -4.2064,22.249396 -20.3451,39.639986 -41.2684,44.469666 -5.73,1.32264 -5.9946,2.3184 -0.8714,3.27951 5.8565,1.09869 15.2431,6.45449 19.6043,11.18589 2.3036,2.49903 5.508,7.36391 7.121,10.81085 5.7387,12.26321 5.8599,14.01337 5.8789,84.84205 l 0.017,64.75 -541.75,-0.13515 c -297.9625,-0.0743 -545.8,-0.52143 -550.75,-0.99356 z M 912.36376,256.42207 C 882.0247,254.02403 856.68384,242.39494 835.37318,221.09058 814.44016,200.16374 803.34873,176.51061 799.9568,145.56309 795.36442,103.66277 808.98583,61.653364 835.77365,35.101344 849.62012,21.376754 863.95047,12.443604 881.5,6.5967739 c 15.55522,-5.18241 24.36617,-6.56616997 42,-6.59614996798 17.55592,-0.029800002 24.91346,0.99626999798 40,5.57854996798 37.7813,11.4754201 65.9395,38.3651301 78.0956,74.5775701 8.5459,25.457776 9.6943,60.580256 2.8429,86.949536 -8.5107,32.75626 -31.8568,62.35214 -60.727,76.9839 -19.69576,9.98204 -45.23333,14.39601 -71.34774,12.33189 z m 29.7139,-59.98148 c 16.75501,-5.64436 28.13944,-19.48869 34.10467,-41.47384 2.90116,-10.69239 3.18788,-39.07671 0.50508,-50 -7.57196,-30.829866 -26.39959,-47.544966 -53.48663,-47.485216 -25.97806,0.0573 -44.26608,15.899 -51.35478,44.485216 -3.22055,12.98733 -3.22089,38.01002 -7e-4,51 7.75123,31.2678 27.33509,47.52715 55.40366,45.99845 4.92742,-0.26836 11.40458,-1.37111 14.8287,-2.52461 z M 377.67147,251.71675 C 377.15851,250.85522 302,5.8121339 302,5.0012139 c 0,-0.29395 15.96243,-0.53446 35.47207,-0.53446 h 35.47206 l 1.50083,5.25 c 5.45415,19.0789401 29.79243,111.3356761 31.8551,120.7499961 1.38579,6.325 3.7679,18.8198 5.29356,27.76622 1.52567,8.94642 3.07209,15.92142 3.4365,15.5 0.36441,-0.42142 1.43268,-5.26622 2.37394,-10.76622 3.67313,-21.463 8.17249,-39.20557 24.82129,-97.879236 L 459.5,4.2082639 l 35.49431,0.70688 c 19.52186,0.38879 35.62106,0.83365 35.77598,0.98857 0.15493,0.15493 -17.82326,55.6949901 -39.95153,123.4223561 l -40.23322,123.14068 h -36.23376 c -19.92856,0 -36.4347,-0.3375 -36.68031,-0.75 z M 540,175.96675 V 99.466754 h 33.5 33.5 v 76.499996 76.5 H 573.5 540 Z m 83,46 v -30.5 h 34.3185 c 39.28789,0 41.87992,-0.3764 49.22671,-7.14844 5.57087,-5.13505 8.55714,-11.28032 8.60696,-17.71178 0.10756,-13.88593 -4.06436,-20.65555 -37.06236,-60.13978 -26.18053,-31.326686 -33.99573,-42.657616 -38.69095,-56.096376 -4.11606,-11.78105 -4.98935,-20.6995 -3.32759,-33.98291 L 637.5,4.9667539 l 34.86169,-0.26308 34.86169,-0.26309 -0.55046,2.26309 c -1.46967,6.0421901 -1.80358,14.9280201 -0.74674,19.8717501 1.79672,8.40478 7.3888,16.63998 28.12286,41.41524 29.74883,35.547056 37.19502,46.144696 44.06739,62.717976 10.00982,24.13948 9.38041,52.9691 -1.63609,74.93986 -8.68457,17.32007 -19.07021,27.97339 -34.8984,35.79788 -18.84017,9.31343 -31.30037,10.97865 -82.33194,11.00304 L 623,252.46672 Z M 540,34.466754 V 4.4667539 h 33.5 33.5 v 30.0000001 30 H 573.5 540 Z"
         id="path72"
         clip-path="url(#clipPath1010)" />
    </g>
  </g>
</svg>
