<?xml version="1.0" encoding="UTF-8" standalone="no"?>
<svg xmlns:dc="http://purl.org/dc/elements/1.1/" xmlns:cc="http://creativecommons.org/ns#" xmlns:rdf="http://www.w3.org/1999/02/22-rdf-syntax-ns#" xmlns:svg="http://www.w3.org/2000/svg" xmlns="http://www.w3.org/2000/svg" width="33.866665mm" height="33.866665mm" viewBox="0 0 33.866665 33.866665" version="1.1" id="svg8">
  <title id="title1466">Big-8 Management Board logo</title>
  <defs id="defs2"/>
  <metadata id="metadata5">
    <rdf:RDF>
      <cc:Work rdf:about="">
        <dc:format>image/svg+xml</dc:format>
        <dc:type rdf:resource="http://purl.org/dc/dcmitype/StillImage"/>
        <dc:title>Big-8 Management Board logo</dc:title>
        <dc:date>2020-07-22</dc:date>
        <dc:creator>
          <cc:Agent>
            <dc:title>Tristan Miller</dc:title>
          </cc:Agent>
        </dc:creator>
        <cc:license rdf:resource="http://creativecommons.org/publicdomain/zero/1.0/"/>
        <dc:publisher>
          <cc:Agent>
            <dc:title>Big-8 Management Board</dc:title>
          </cc:Agent>
        </dc:publisher>
      </cc:Work>
      <cc:License rdf:about="http://creativecommons.org/publicdomain/zero/1.0/">
        <cc:permits rdf:resource="http://creativecommons.org/ns#Reproduction"/>
        <cc:permits rdf:resource="http://creativecommons.org/ns#Distribution"/>
        <cc:permits rdf:resource="http://creativecommons.org/ns#DerivativeWorks"/>
      </cc:License>
    </rdf:RDF>
  </metadata>
  <g id="layer1" transform="translate(-71.075673,-124.87331)">
    <g transform="matrix(10.957768,0,0,10.957768,-707.49083,-1243.1951)" id="g1476">
      <g style="font-style:normal;font-variant:normal;font-weight:bold;font-stretch:normal;font-size:4.9389px;line-height:1.25;font-family:Quantico;-inkscape-font-specification:'Quantico Bold';letter-spacing:0px;word-spacing:0px;fill:#ffdd55;fill-opacity:1;stroke:none;stroke-width:0.264583" id="text851" transform="rotate(90)" aria-label="8">
        <path id="path1526" style="font-style:normal;font-variant:normal;font-weight:normal;font-stretch:normal;font-family:'Garamond Premier Pro';-inkscape-font-specification:'Garamond Premier Pro';fill:#ffdd55;fill-opacity:1;stroke-width:0.264583" d="m 126.35253,-71.075705 c 0.15805,0 0.35066,-0.01976 0.62724,-0.1778 0.20744,-0.148167 0.37536,-0.345723 0.37536,-0.642057 0,-0.385234 -0.31609,-0.597607 -0.57291,-0.770469 -0.0148,-0.0049 -0.0247,-0.03457 0.005,-0.05927 0.24695,-0.177801 0.4692,-0.370418 0.4692,-0.656874 0,-0.414868 -0.33585,-0.735896 -0.81986,-0.735896 -0.49883,0 -0.889,0.335845 -0.889,0.790224 0,0.365478 0.24201,0.563034 0.45438,0.730957 0.0395,0.02963 0.0296,0.03951 0.005,0.05927 -0.35066,0.227189 -0.57291,0.355601 -0.57291,0.721079 0,0.306212 0.27164,0.740835 0.91863,0.740835 z m 0.0296,-2.849745 c 0.34079,0 0.49883,0.400051 0.49883,0.563034 0,0.251884 -0.15804,0.488952 -0.27658,0.538341 -0.01,0.0049 -0.084,0.0099 -0.11853,-0.0099 -0.21731,-0.09384 -0.54328,-0.321029 -0.54328,-0.617363 0,-0.2667 0.18768,-0.474134 0.43956,-0.474134 z m 0.0543,2.652189 c -0.28645,0 -0.57785,-0.281517 -0.57785,-0.642057 0,-0.197556 0.13829,-0.424745 0.33091,-0.523523 0.0346,-0.01482 0.0889,-0.0099 0.10371,-0.0049 0.30128,0.128411 0.61737,0.375356 0.61737,0.661812 0,0.296334 -0.17286,0.508707 -0.47414,0.508707 z"/>
      </g>
      <g style="font-style:normal;font-variant:normal;font-weight:bold;font-stretch:normal;font-size:4.9389px;line-height:1.25;font-family:Quantico;-inkscape-font-specification:'Quantico Bold';letter-spacing:0px;word-spacing:0px;fill:#5555ff;fill-opacity:1;stroke:none;stroke-width:0.264583" id="text835" aria-label="8">
        <path id="path1529" style="font-style:normal;font-variant:normal;font-weight:normal;font-stretch:normal;font-family:'Garamond Premier Pro';-inkscape-font-specification:'Garamond Premier Pro';fill:#5555ff;fill-opacity:1;stroke-width:0.264583" d="m 72.554908,127.91569 c 0.158045,0 0.350662,-0.0198 0.627241,-0.1778 0.207434,-0.14817 0.375356,-0.34572 0.375356,-0.64206 0,-0.38523 -0.316089,-0.59761 -0.572912,-0.77047 -0.01482,-0.005 -0.0247,-0.0346 0.0049,-0.0593 0.246945,-0.1778 0.469195,-0.37042 0.469195,-0.65688 0,-0.41486 -0.335845,-0.73589 -0.819857,-0.73589 -0.498829,0 -0.889002,0.33584 -0.889002,0.79022 0,0.36548 0.242006,0.56304 0.454379,0.73096 0.03951,0.0296 0.02963,0.0395 0.0049,0.0593 -0.350661,0.22719 -0.572912,0.35561 -0.572912,0.72108 0,0.30622 0.27164,0.74084 0.918635,0.74084 z m 0.02963,-2.84975 c 0.340784,0 0.498829,0.40005 0.498829,0.56304 0,0.25188 -0.158045,0.48895 -0.276579,0.53834 -0.0099,0.005 -0.08396,0.01 -0.118533,-0.01 -0.217312,-0.0938 -0.543279,-0.32103 -0.543279,-0.61736 0,-0.2667 0.187678,-0.47414 0.439562,-0.47414 z m 0.05433,2.65219 c -0.286456,0 -0.577852,-0.28151 -0.577852,-0.64205 0,-0.19756 0.13829,-0.42475 0.330907,-0.52353 0.03457,-0.0148 0.0889,-0.01 0.103717,-0.005 0.301273,0.12842 0.617362,0.37536 0.617362,0.66182 0,0.29633 -0.172861,0.5087 -0.474134,0.5087 z"/>
      </g>
    </g>
  </g>
</svg>