<?xml version="1.0" encoding="UTF-8" standalone="no"?>
<svg
   xmlns:dc="http://purl.org/dc/elements/1.1/"
   xmlns:cc="http://creativecommons.org/ns#"
   xmlns:rdf="http://www.w3.org/1999/02/22-rdf-syntax-ns#"
   xmlns:svg="http://www.w3.org/2000/svg"
   xmlns="http://www.w3.org/2000/svg"
   version="1.1"
   id="svg28322"
   xml:space="preserve"
   width="300.74747"
   height="149.80328"
   viewBox="0 0 300.74747 149.80328"><metadata
     id="metadata28328"><rdf:RDF><cc:Work
         rdf:about=""><dc:format>image/svg+xml</dc:format><dc:type
           rdf:resource="http://purl.org/dc/dcmitype/StillImage" /><dc:title></dc:title></cc:Work></rdf:RDF></metadata><defs
     id="defs28326"><clipPath
       clipPathUnits="userSpaceOnUse"
       id="clipPath28412"><path
         d="M 0,0 V 8420 H 5950 V 0 Z m 1400.14,6707.53 45.04,-8.01 -45.04,-8 h 54.42 v 16.01 z m -97.59,-16.01 -45.05,8 45.05,8.01 h -54.43 v -16.01 z"
         id="path28410" /></clipPath><clipPath
       clipPathUnits="userSpaceOnUse"
       id="clipPath28436"><path
         d="M 0,0 V 8420 H 5950 V 0 Z m 1775.48,6707.53 45.04,-8.01 -45.04,-8 h 54.43 v 16.01 z m -97.59,-16.01 -45.04,8 45.04,8.01 h -54.42 v -16.01 z"
         id="path28434" /></clipPath><clipPath
       clipPathUnits="userSpaceOnUse"
       id="clipPath28460"><path
         d="M 0,0 V 8420 H 5950 V 0 Z m 1400.14,6387.38 45.04,-8 -45.04,-8.01 h 54.42 v 16.01 z m -97.59,-16.01 -45.05,8.01 45.05,8 h -54.43 v -16.01 z"
         id="path28458" /></clipPath><clipPath
       clipPathUnits="userSpaceOnUse"
       id="clipPath28484"><path
         d="M 0,0 V 8420 H 5950 V 0 Z m 1775.48,6387.38 45.04,-8 -45.04,-8.01 h 54.43 v 16.01 z m -97.59,-16.01 -45.04,8.01 45.04,8 h -54.42 v -16.01 z"
         id="path28482" /></clipPath><clipPath
       clipPathUnits="userSpaceOnUse"
       id="clipPath28508"><path
         d="M 0,0 V 8420 H 5950 V 0 Z m 1400.14,6067.23 45.04,-8 -45.04,-8.01 h 54.42 v 16.01 z m -97.59,-16.01 -45.05,8.01 45.05,8 h -54.43 v -16.01 z"
         id="path28506" /></clipPath><clipPath
       clipPathUnits="userSpaceOnUse"
       id="clipPath28532"><path
         d="M 0,0 V 8420 H 5950 V 0 Z m 1024.79,6707.53 45.04,-8.01 -45.04,-8 h 54.42 v 16.01 z"
         id="path28530" /></clipPath><clipPath
       clipPathUnits="userSpaceOnUse"
       id="clipPath28550"><path
         d="M 0,0 V 8420 H 5950 V 0 Z m 1024.79,6387.38 45.04,-8 -45.04,-8.01 h 54.42 v 16.01 z"
         id="path28548" /></clipPath><clipPath
       clipPathUnits="userSpaceOnUse"
       id="clipPath28568"><path
         d="M 0,0 V 8420 H 5950 V 0 Z m 1024.79,6067.23 45.04,-8 -45.04,-8.01 h 54.42 v 16.01 z"
         id="path28566" /></clipPath><clipPath
       clipPathUnits="userSpaceOnUse"
       id="clipPath28586"><path
         d="M 0,0 V 8420 H 5950 V 0 Z m 1583.43,6469.55 -44.41,-10.14 35.96,24.28 -48.48,-20.81 8.45,-14.14 z m 286.52,139.8 44.41,10.13 -35.97,-24.27 48.48,20.81 -8.44,14.14 z"
         id="path28584" /></clipPath><clipPath
       clipPathUnits="userSpaceOnUse"
       id="clipPath28610"><path
         d="M 0,0 V 8420 H 5950 V 0 Z m 1208.09,6149.4 -44.42,-10.14 35.97,24.28 -48.48,-20.81 8.44,-14.14 z m 286.51,139.8 44.42,10.14 -35.98,-24.28 48.49,20.81 -8.45,14.14 z"
         id="path28608" /></clipPath><clipPath
       clipPathUnits="userSpaceOnUse"
       id="clipPath28634"><path
         d="M 0,0 V 8420 H 5950 V 0 Z m 1583.43,6149.4 -44.41,-10.14 35.96,24.28 -48.48,-20.81 8.45,-14.14 z m 286.52,139.8 44.41,10.14 -35.97,-24.28 48.48,20.81 -8.44,14.14 z"
         id="path28632" /></clipPath><clipPath
       clipPathUnits="userSpaceOnUse"
       id="clipPath28666"><path
         d="M 0,0 V 8420 H 5950 V 0 Z m 1958.78,6789.7 -44.42,-10.14 35.97,24.28 -48.48,-20.81 8.45,-14.14 z"
         id="path28664" /></clipPath><clipPath
       clipPathUnits="userSpaceOnUse"
       id="clipPath28684"><path
         d="M 0,0 V 8420 H 5950 V 0 Z m 1955.96,6475.95 -41.6,-16.54 30.34,29.35 -43.48,-27.75 11.26,-12.8 z"
         id="path28682" /></clipPath><clipPath
       clipPathUnits="userSpaceOnUse"
       id="clipPath28706"><path
         d="M 0,0 V 8420 H 5950 V 0 Z m 1583.43,6789.7 -44.41,-10.14 35.96,24.28 -48.48,-20.81 8.45,-14.14 z"
         id="path28704" /></clipPath><clipPath
       clipPathUnits="userSpaceOnUse"
       id="clipPath28728"><path
         d="M 0,0 V 8420 H 5950 V 0 Z m 832.738,6789.7 -44.414,-10.14 35.969,24.28 -48.481,-20.81 8.446,-14.14 z"
         id="path28726" /></clipPath><clipPath
       clipPathUnits="userSpaceOnUse"
       id="clipPath28746"><path
         d="M 0,0 V 8420 H 5950 V 0 Z m 797.707,6497.83 -9.383,-38.42 -9.386,38.42 v -46.42 h 18.769 z m -18.769,83.24 9.386,38.41 9.383,-38.41 v 46.42 h -18.769 z"
         id="path28744" /></clipPath></defs><g
     id="g28330"
     transform="matrix(1.3333333,0,0,-1.3333333,-67.418929,946.89436)"><g
       id="g29674"><g
         id="g28362"
         transform="scale(0.107937,-0.0920635)"><path
           d="m 991.168,-7364 h 173.872 v 173.87 H 991.168 Z"
           style="fill:none;stroke:#000000;stroke-width:2.17342;stroke-linecap:butt;stroke-linejoin:miter;stroke-miterlimit:10;stroke-dasharray:none;stroke-opacity:1"
           id="path28364" /></g><g
         id="g28366"
         transform="scale(0.107937,-0.0920635)"><path
           d="m 1338.92,-7364 h 173.87 v 173.87 h -173.87 z"
           style="fill:none;stroke:#000000;stroke-width:2.17342;stroke-linecap:butt;stroke-linejoin:miter;stroke-miterlimit:10;stroke-dasharray:none;stroke-opacity:1"
           id="path28368" /></g><g
         id="g28370"
         transform="scale(0.107937,-0.0920635)"><path
           d="m 1686.66,-7364 h 173.88 v 173.87 h -173.88 z"
           style="fill:none;stroke:#000000;stroke-width:2.17342;stroke-linecap:butt;stroke-linejoin:miter;stroke-miterlimit:10;stroke-dasharray:none;stroke-opacity:1"
           id="path28372" /></g><g
         id="g28374"
         transform="scale(0.107937,-0.0920635)"><path
           d="m 991.168,-7016.26 h 173.872 v 173.88 H 991.168 Z"
           style="fill:none;stroke:#000000;stroke-width:2.17342;stroke-linecap:butt;stroke-linejoin:miter;stroke-miterlimit:10;stroke-dasharray:none;stroke-opacity:1"
           id="path28376" /></g><g
         id="g28378"
         transform="scale(0.107937,-0.0920635)"><path
           d="m 1338.92,-7016.26 h 173.87 v 173.88 h -173.87 z"
           style="fill:none;stroke:#000000;stroke-width:2.17342;stroke-linecap:butt;stroke-linejoin:miter;stroke-miterlimit:10;stroke-dasharray:none;stroke-opacity:1"
           id="path28380" /></g><g
         id="g28382"
         transform="scale(0.107937,-0.0920635)"><path
           d="m 1686.66,-7016.26 h 173.88 v 173.88 h -173.88 z"
           style="fill:none;stroke:#000000;stroke-width:2.17342;stroke-linecap:butt;stroke-linejoin:miter;stroke-miterlimit:10;stroke-dasharray:none;stroke-opacity:1"
           id="path28384" /></g><g
         id="g28386"
         transform="scale(0.107937,-0.0920635)"><path
           d="m 991.168,-6668.51 h 173.872 v 173.88 H 991.168 Z"
           style="fill:none;stroke:#000000;stroke-width:2.17342;stroke-linecap:butt;stroke-linejoin:miter;stroke-miterlimit:10;stroke-dasharray:none;stroke-opacity:1"
           id="path28388" /></g><g
         id="g28390"
         transform="scale(0.107937,-0.0920635)"><path
           d="m 1338.92,-6668.51 h 173.87 v 173.88 h -173.87 z"
           style="fill:none;stroke:#000000;stroke-width:2.17342;stroke-linecap:butt;stroke-linejoin:miter;stroke-miterlimit:10;stroke-dasharray:none;stroke-opacity:1"
           id="path28392" /></g><g
         id="g28394"
         transform="scale(0.107937,-0.0920635)"><path
           d="m 469.547,-7364 h 347.748 v 173.87 H 469.547 Z"
           style="fill:none;stroke:#000000;stroke-width:2.17342;stroke-linecap:butt;stroke-linejoin:miter;stroke-miterlimit:10;stroke-dasharray:none;stroke-opacity:1"
           id="path28396" /></g><g
         id="g28398"
         transform="scale(0.107937,-0.0920635)"><path
           d="m 469.547,-7016.26 h 347.748 v 173.88 H 469.547 Z"
           style="fill:none;stroke:#000000;stroke-width:2.17342;stroke-linecap:butt;stroke-linejoin:miter;stroke-miterlimit:10;stroke-dasharray:none;stroke-opacity:1"
           id="path28400" /></g><g
         id="g28402"
         transform="scale(0.107937,-0.0920635)"><path
           d="m 469.547,-6668.51 h 347.748 v 173.88 H 469.547 Z"
           style="fill:none;stroke:#000000;stroke-width:2.17342;stroke-linecap:butt;stroke-linejoin:miter;stroke-miterlimit:10;stroke-dasharray:none;stroke-opacity:1"
           id="path28404" /></g><g
         id="g28406"
         transform="scale(0.1)"><g
           id="g28408"
           clip-path="url(#clipPath28412)"><g
             id="g28414"
             transform="scale(1.07937,-0.920635)"><path
               d="m 1165.04,-7277.07 h 173.88"
               style="fill:none;stroke:#000000;stroke-width:4.34684;stroke-linecap:butt;stroke-linejoin:miter;stroke-miterlimit:10;stroke-dasharray:none;stroke-opacity:1"
               id="path28416" /></g></g></g><path
         d="m 130.255,669.152 -4.505,0.8 4.505,0.801 -0.751,-0.801 0.751,-0.8"
         style="fill:#000000;fill-opacity:1;fill-rule:evenodd;stroke:none;stroke-width:0.1"
         id="path28418" /><g
         id="g28420"
         transform="scale(0.107937,-0.0920635)"><path
           d="m 1206.77,-7268.37 -41.73,-8.7 41.73,-8.69 -6.95,8.69 z"
           style="fill:none;stroke:#000000;stroke-width:2.17342;stroke-linecap:butt;stroke-linejoin:miter;stroke-miterlimit:10;stroke-dasharray:none;stroke-opacity:1"
           id="path28422" /></g><path
         d="m 140.014,670.753 4.504,-0.801 -4.504,-0.8 0.75,0.8 -0.75,0.801"
         style="fill:#000000;fill-opacity:1;fill-rule:evenodd;stroke:none;stroke-width:0.1"
         id="path28424" /><g
         id="g28426"
         transform="scale(0.107937,-0.0920635)"><path
           d="m 1297.19,-7285.76 41.73,8.69 -41.73,8.7 6.95,-8.7 z"
           style="fill:none;stroke:#000000;stroke-width:2.17342;stroke-linecap:butt;stroke-linejoin:miter;stroke-miterlimit:10;stroke-dasharray:none;stroke-opacity:1"
           id="path28428" /></g><g
         id="g28430"
         transform="scale(0.1)"><g
           id="g28432"
           clip-path="url(#clipPath28436)"><g
             id="g28438"
             transform="scale(1.07937,-0.920635)"><path
               d="m 1512.79,-7277.07 h 173.87"
               style="fill:none;stroke:#000000;stroke-width:4.34684;stroke-linecap:butt;stroke-linejoin:miter;stroke-miterlimit:10;stroke-dasharray:none;stroke-opacity:1"
               id="path28440" /></g></g></g><path
         d="m 167.789,669.152 -4.504,0.8 4.504,0.801 -0.75,-0.801 0.75,-0.8"
         style="fill:#000000;fill-opacity:1;fill-rule:evenodd;stroke:none;stroke-width:0.1"
         id="path28442" /><g
         id="g28444"
         transform="scale(0.107937,-0.0920635)"><path
           d="m 1554.52,-7268.37 -41.73,-8.7 41.73,-8.69 -6.96,8.69 z"
           style="fill:none;stroke:#000000;stroke-width:2.17342;stroke-linecap:butt;stroke-linejoin:miter;stroke-miterlimit:10;stroke-dasharray:none;stroke-opacity:1"
           id="path28446" /></g><path
         d="m 177.548,670.753 4.504,-0.801 -4.504,-0.8 0.751,0.8 -0.751,0.801"
         style="fill:#000000;fill-opacity:1;fill-rule:evenodd;stroke:none;stroke-width:0.1"
         id="path28448" /><g
         id="g28450"
         transform="scale(0.107937,-0.0920635)"><path
           d="m 1644.93,-7285.76 41.73,8.69 -41.73,8.7 6.96,-8.7 z"
           style="fill:none;stroke:#000000;stroke-width:2.17342;stroke-linecap:butt;stroke-linejoin:miter;stroke-miterlimit:10;stroke-dasharray:none;stroke-opacity:1"
           id="path28452" /></g><g
         id="g28454"
         transform="scale(0.1)"><g
           id="g28456"
           clip-path="url(#clipPath28460)"><g
             id="g28462"
             transform="scale(1.07937,-0.920635)"><path
               d="m 1165.04,-6929.32 h 173.88"
               style="fill:none;stroke:#000000;stroke-width:4.34684;stroke-linecap:butt;stroke-linejoin:miter;stroke-miterlimit:10;stroke-dasharray:none;stroke-opacity:1"
               id="path28464" /></g></g></g><path
         d="m 130.255,637.137 -4.505,0.801 4.505,0.8 -0.751,-0.8 0.751,-0.801"
         style="fill:#000000;fill-opacity:1;fill-rule:evenodd;stroke:none;stroke-width:0.1"
         id="path28466" /><g
         id="g28468"
         transform="scale(0.107937,-0.0920635)"><path
           d="m 1206.77,-6920.63 -41.73,-8.69 41.73,-8.69 -6.95,8.69 z"
           style="fill:none;stroke:#000000;stroke-width:2.17342;stroke-linecap:butt;stroke-linejoin:miter;stroke-miterlimit:10;stroke-dasharray:none;stroke-opacity:1"
           id="path28470" /></g><path
         d="m 140.014,638.738 4.504,-0.8 -4.504,-0.801 0.75,0.801 -0.75,0.8"
         style="fill:#000000;fill-opacity:1;fill-rule:evenodd;stroke:none;stroke-width:0.1"
         id="path28472" /><g
         id="g28474"
         transform="scale(0.107937,-0.0920635)"><path
           d="m 1297.19,-6938.01 41.73,8.69 -41.73,8.69 6.95,-8.69 z"
           style="fill:none;stroke:#000000;stroke-width:2.17342;stroke-linecap:butt;stroke-linejoin:miter;stroke-miterlimit:10;stroke-dasharray:none;stroke-opacity:1"
           id="path28476" /></g><g
         id="g28478"
         transform="scale(0.1)"><g
           id="g28480"
           clip-path="url(#clipPath28484)"><g
             id="g28486"
             transform="scale(1.07937,-0.920635)"><path
               d="m 1512.79,-6929.32 h 173.87"
               style="fill:none;stroke:#000000;stroke-width:4.34684;stroke-linecap:butt;stroke-linejoin:miter;stroke-miterlimit:10;stroke-dasharray:none;stroke-opacity:1"
               id="path28488" /></g></g></g><path
         d="m 167.789,637.137 -4.504,0.801 4.504,0.8 -0.75,-0.8 0.75,-0.801"
         style="fill:#000000;fill-opacity:1;fill-rule:evenodd;stroke:none;stroke-width:0.1"
         id="path28490" /><g
         id="g28492"
         transform="scale(0.107937,-0.0920635)"><path
           d="m 1554.52,-6920.63 -41.73,-8.69 41.73,-8.69 -6.96,8.69 z"
           style="fill:none;stroke:#000000;stroke-width:2.17342;stroke-linecap:butt;stroke-linejoin:miter;stroke-miterlimit:10;stroke-dasharray:none;stroke-opacity:1"
           id="path28494" /></g><path
         d="m 177.548,638.738 4.504,-0.8 -4.504,-0.801 0.751,0.801 -0.751,0.8"
         style="fill:#000000;fill-opacity:1;fill-rule:evenodd;stroke:none;stroke-width:0.1"
         id="path28496" /><g
         id="g28498"
         transform="scale(0.107937,-0.0920635)"><path
           d="m 1644.93,-6938.01 41.73,8.69 -41.73,8.69 6.96,-8.69 z"
           style="fill:none;stroke:#000000;stroke-width:2.17342;stroke-linecap:butt;stroke-linejoin:miter;stroke-miterlimit:10;stroke-dasharray:none;stroke-opacity:1"
           id="path28500" /></g><g
         id="g28502"
         transform="scale(0.1)"><g
           id="g28504"
           clip-path="url(#clipPath28508)"><g
             id="g28510"
             transform="scale(1.07937,-0.920635)"><path
               d="m 1165.04,-6581.57 h 173.88"
               style="fill:none;stroke:#000000;stroke-width:4.34684;stroke-linecap:butt;stroke-linejoin:miter;stroke-miterlimit:10;stroke-dasharray:none;stroke-opacity:1"
               id="path28512" /></g></g></g><path
         d="m 130.255,605.122 -4.505,0.801 4.505,0.8 -0.751,-0.8 0.751,-0.801"
         style="fill:#000000;fill-opacity:1;fill-rule:evenodd;stroke:none;stroke-width:0.1"
         id="path28514" /><g
         id="g28516"
         transform="scale(0.107937,-0.0920635)"><path
           d="m 1206.77,-6572.88 -41.73,-8.69 41.73,-8.7 -6.95,8.7 z"
           style="fill:none;stroke:#000000;stroke-width:2.17342;stroke-linecap:butt;stroke-linejoin:miter;stroke-miterlimit:10;stroke-dasharray:none;stroke-opacity:1"
           id="path28518" /></g><path
         d="m 140.014,606.723 4.504,-0.8 -4.504,-0.801 0.75,0.801 -0.75,0.8"
         style="fill:#000000;fill-opacity:1;fill-rule:evenodd;stroke:none;stroke-width:0.1"
         id="path28520" /><g
         id="g28522"
         transform="scale(0.107937,-0.0920635)"><path
           d="m 1297.19,-6590.27 41.73,8.7 -41.73,8.69 6.95,-8.69 z"
           style="fill:none;stroke:#000000;stroke-width:2.17342;stroke-linecap:butt;stroke-linejoin:miter;stroke-miterlimit:10;stroke-dasharray:none;stroke-opacity:1"
           id="path28524" /></g><g
         id="g28526"
         transform="scale(0.1)"><g
           id="g28528"
           clip-path="url(#clipPath28532)"><g
             id="g28534"
             transform="scale(1.07937,-0.920635)"><path
               d="M 817.295,-7277.07 H 991.168"
               style="fill:none;stroke:#000000;stroke-width:4.34684;stroke-linecap:butt;stroke-linejoin:miter;stroke-miterlimit:10;stroke-dasharray:none;stroke-opacity:1"
               id="path28536" /></g></g></g><path
         d="m 102.479,670.753 4.504,-0.801 -4.504,-0.8 0.751,0.8 -0.751,0.801"
         style="fill:#000000;fill-opacity:1;fill-rule:evenodd;stroke:none;stroke-width:0.1"
         id="path28538" /><g
         id="g28540"
         transform="scale(0.107937,-0.0920635)"><path
           d="m 949.437,-7285.76 41.731,8.69 -41.731,8.7 6.956,-8.7 z"
           style="fill:none;stroke:#000000;stroke-width:2.17342;stroke-linecap:butt;stroke-linejoin:miter;stroke-miterlimit:10;stroke-dasharray:none;stroke-opacity:1"
           id="path28542" /></g><g
         id="g28544"
         transform="scale(0.1)"><g
           id="g28546"
           clip-path="url(#clipPath28550)"><g
             id="g28552"
             transform="scale(1.07937,-0.920635)"><path
               d="M 817.295,-6929.32 H 991.168"
               style="fill:none;stroke:#000000;stroke-width:4.34684;stroke-linecap:butt;stroke-linejoin:miter;stroke-miterlimit:10;stroke-dasharray:none;stroke-opacity:1"
               id="path28554" /></g></g></g><path
         d="m 102.479,638.738 4.504,-0.8 -4.504,-0.801 0.751,0.801 -0.751,0.8"
         style="fill:#000000;fill-opacity:1;fill-rule:evenodd;stroke:none;stroke-width:0.1"
         id="path28556" /><g
         id="g28558"
         transform="scale(0.107937,-0.0920635)"><path
           d="m 949.437,-6938.01 41.731,8.69 -41.731,8.69 6.956,-8.69 z"
           style="fill:none;stroke:#000000;stroke-width:2.17342;stroke-linecap:butt;stroke-linejoin:miter;stroke-miterlimit:10;stroke-dasharray:none;stroke-opacity:1"
           id="path28560" /></g><g
         id="g28562"
         transform="scale(0.1)"><g
           id="g28564"
           clip-path="url(#clipPath28568)"><g
             id="g28570"
             transform="scale(1.07937,-0.920635)"><path
               d="M 817.295,-6581.57 H 991.168"
               style="fill:none;stroke:#000000;stroke-width:4.34684;stroke-linecap:butt;stroke-linejoin:miter;stroke-miterlimit:10;stroke-dasharray:none;stroke-opacity:1"
               id="path28572" /></g></g></g><path
         d="m 102.479,606.723 4.504,-0.8 -4.504,-0.801 0.751,0.801 -0.751,0.8"
         style="fill:#000000;fill-opacity:1;fill-rule:evenodd;stroke:none;stroke-width:0.1"
         id="path28574" /><g
         id="g28576"
         transform="scale(0.107937,-0.0920635)"><path
           d="m 949.437,-6590.27 41.731,8.7 -41.731,8.69 6.956,-8.69 z"
           style="fill:none;stroke:#000000;stroke-width:2.17342;stroke-linecap:butt;stroke-linejoin:miter;stroke-miterlimit:10;stroke-dasharray:none;stroke-opacity:1"
           id="path28578" /></g><g
         id="g28580"
         transform="scale(0.1)"><g
           id="g28582"
           clip-path="url(#clipPath28586)"><g
             id="g28588"
             transform="scale(1.07937,-0.920635)"><path
               d="m 1773.6,-7190.13 -347.75,173.87"
               style="fill:none;stroke:#000000;stroke-width:4.34684;stroke-linecap:butt;stroke-linejoin:miter;stroke-miterlimit:10;stroke-dasharray:none;stroke-opacity:1"
               id="path28590" /></g></g></g><path
         d="m 186.995,660.935 4.441,1.013 -3.597,-2.427 0.25,0.987 -1.094,0.427"
         style="fill:#000000;fill-opacity:1;fill-rule:evenodd;stroke:none;stroke-width:0.1"
         id="path28592" /><g
         id="g28594"
         transform="scale(0.107937,-0.0920635)"><path
           d="m 1732.45,-7179.12 41.15,-11.01 -33.33,26.37 2.32,-10.72 z"
           style="fill:none;stroke:#000000;stroke-width:2.17342;stroke-linecap:butt;stroke-linejoin:miter;stroke-miterlimit:10;stroke-dasharray:none;stroke-opacity:1"
           id="path28596" /></g><path
         d="m 158.343,646.955 -4.441,-1.014 3.596,2.428 -0.25,-0.987 1.095,-0.427"
         style="fill:#000000;fill-opacity:1;fill-rule:evenodd;stroke:none;stroke-width:0.1"
         id="path28598" /><g
         id="g28600"
         transform="scale(0.107937,-0.0920635)"><path
           d="m 1467,-7027.27 -41.15,11.01 33.33,-26.37 -2.32,10.73 z"
           style="fill:none;stroke:#000000;stroke-width:2.17342;stroke-linecap:butt;stroke-linejoin:miter;stroke-miterlimit:10;stroke-dasharray:none;stroke-opacity:1"
           id="path28602" /></g><g
         id="g28604"
         transform="scale(0.1)"><g
           id="g28606"
           clip-path="url(#clipPath28610)"><g
             id="g28612"
             transform="scale(1.07937,-0.920635)"><path
               d="m 1425.85,-6842.38 -347.75,173.87"
               style="fill:none;stroke:#000000;stroke-width:4.34684;stroke-linecap:butt;stroke-linejoin:miter;stroke-miterlimit:10;stroke-dasharray:none;stroke-opacity:1"
               id="path28614" /></g></g></g><path
         d="m 149.46,628.92 4.442,1.014 -3.598,-2.428 0.251,0.987 -1.095,0.427"
         style="fill:#000000;fill-opacity:1;fill-rule:evenodd;stroke:none;stroke-width:0.1"
         id="path28616" /><g
         id="g28618"
         transform="scale(0.107937,-0.0920635)"><path
           d="m 1384.7,-6831.37 41.15,-11.01 -33.32,26.37 2.31,-10.72 z"
           style="fill:none;stroke:#000000;stroke-width:2.17342;stroke-linecap:butt;stroke-linejoin:miter;stroke-miterlimit:10;stroke-dasharray:none;stroke-opacity:1"
           id="path28620" /></g><path
         d="m 120.809,614.94 -4.442,-1.014 3.597,2.428 -0.25,-0.987 1.095,-0.427"
         style="fill:#000000;fill-opacity:1;fill-rule:evenodd;stroke:none;stroke-width:0.1"
         id="path28622" /><g
         id="g28624"
         transform="scale(0.107937,-0.0920635)"><path
           d="m 1119.26,-6679.52 -41.16,11.01 33.33,-26.37 -2.32,10.72 z"
           style="fill:none;stroke:#000000;stroke-width:2.17342;stroke-linecap:butt;stroke-linejoin:miter;stroke-miterlimit:10;stroke-dasharray:none;stroke-opacity:1"
           id="path28626" /></g><g
         id="g28628"
         transform="scale(0.1)"><g
           id="g28630"
           clip-path="url(#clipPath28634)"><g
             id="g28636"
             transform="scale(1.07937,-0.920635)"><path
               d="m 1773.6,-6842.38 -347.75,173.87"
               style="fill:none;stroke:#000000;stroke-width:4.34684;stroke-linecap:butt;stroke-linejoin:miter;stroke-miterlimit:10;stroke-dasharray:none;stroke-opacity:1"
               id="path28638" /></g></g></g><path
         d="m 186.995,628.92 4.441,1.014 -3.597,-2.428 0.25,0.987 -1.094,0.427"
         style="fill:#000000;fill-opacity:1;fill-rule:evenodd;stroke:none;stroke-width:0.1"
         id="path28640" /><g
         id="g28642"
         transform="scale(0.107937,-0.0920635)"><path
           d="m 1732.45,-6831.37 41.15,-11.01 -33.33,26.37 2.32,-10.72 z"
           style="fill:none;stroke:#000000;stroke-width:2.17342;stroke-linecap:butt;stroke-linejoin:miter;stroke-miterlimit:10;stroke-dasharray:none;stroke-opacity:1"
           id="path28644" /></g><path
         d="m 158.343,614.94 -4.441,-1.014 3.596,2.428 -0.25,-0.987 1.095,-0.427"
         style="fill:#000000;fill-opacity:1;fill-rule:evenodd;stroke:none;stroke-width:0.1"
         id="path28646" /><g
         id="g28648"
         transform="scale(0.107937,-0.0920635)"><path
           d="m 1467,-6679.52 -41.15,11.01 33.33,-26.37 -2.32,10.72 z"
           style="fill:none;stroke:#000000;stroke-width:2.17342;stroke-linecap:butt;stroke-linejoin:miter;stroke-miterlimit:10;stroke-dasharray:none;stroke-opacity:1"
           id="path28650" /></g><g
         id="g28652"
         transform="scale(0.107937,-0.0920635)"><path
           d="m 2064.84,-7711.75 v 0 c -16.8,0 -30.43,13.62 -30.43,30.43 v 113.01 c 0,16.8 13.63,30.43 30.43,30.43 h 113.02 c 16.8,0 30.42,-13.63 30.42,-30.43 v -113.01 c 0,-16.81 -13.62,-30.43 -30.43,-30.43 z"
           style="fill:none;stroke:#000000;stroke-width:4.34684;stroke-linecap:butt;stroke-linejoin:miter;stroke-miterlimit:10;stroke-dasharray:none;stroke-opacity:1"
           id="path28654" /></g><g
         id="g28656"
         transform="scale(0.107937,-0.0920635)"><path
           d="m 2412.58,-7711.75 v 0 c -16.8,0 -30.42,13.62 -30.42,30.43 v 113.01 c 0,16.8 13.62,30.43 30.42,30.43 h 113.02 c 16.81,0 30.43,-13.63 30.43,-30.43 v -113.01 c 0,-16.81 -13.62,-30.43 -30.43,-30.43 z"
           style="fill:none;stroke:#000000;stroke-width:4.34684;stroke-linecap:butt;stroke-linejoin:miter;stroke-miterlimit:10;stroke-dasharray:none;stroke-opacity:1"
           id="path28658" /></g><g
         id="g28660"
         transform="scale(0.1)"><g
           id="g28662"
           clip-path="url(#clipPath28666)"><g
             id="g28668"
             transform="scale(1.07937,-0.920635)"><path
               d="M 2121.35,-7537.88 1773.6,-7364"
               style="fill:none;stroke:#000000;stroke-width:4.34684;stroke-linecap:butt;stroke-linejoin:miter;stroke-miterlimit:10;stroke-dasharray:none;stroke-opacity:1"
               id="path28670" /></g></g></g><path
         d="m 195.878,678.97 -4.442,-1.014 3.597,2.428 -0.25,-0.988 1.095,-0.426"
         style="fill:#000000;fill-opacity:1;fill-rule:evenodd;stroke:none;stroke-width:0.1"
         id="path28672" /><g
         id="g28674"
         transform="scale(0.107937,-0.0920635)"><path
           d="m 1814.75,-7375.02 -41.15,11.02 33.33,-26.37 -2.32,10.72 z"
           style="fill:none;stroke:#000000;stroke-width:2.17342;stroke-linecap:butt;stroke-linejoin:miter;stroke-miterlimit:10;stroke-dasharray:none;stroke-opacity:1"
           id="path28676" /></g><g
         id="g28678"
         transform="scale(0.1)"><g
           id="g28680"
           clip-path="url(#clipPath28684)"><g
             id="g28686"
             transform="scale(1.07937,-0.920635)"><path
               d="m 2469.09,-7537.88 -695.49,521.62"
               style="fill:none;stroke:#000000;stroke-width:4.34684;stroke-linecap:butt;stroke-linejoin:miter;stroke-miterlimit:10;stroke-dasharray:none;stroke-opacity:1"
               id="path28688" /></g></g></g><path
         d="m 195.596,647.595 -4.16,-1.654 3.034,2.935 -0.031,-1.014 1.157,-0.267"
         style="fill:#000000;fill-opacity:1;fill-rule:evenodd;stroke:none;stroke-width:0.1"
         id="path28690" /><g
         id="g28692"
         transform="scale(0.107937,-0.0920635)"><path
           d="m 1812.14,-7034.22 -38.54,17.96 28.11,-31.87 -0.29,11.01 z"
           style="fill:none;stroke:#000000;stroke-width:2.17342;stroke-linecap:butt;stroke-linejoin:miter;stroke-miterlimit:10;stroke-dasharray:none;stroke-opacity:1"
           id="path28694" /></g><g
         id="g28696"
         transform="scale(0.107937,-0.0920635)"><path
           d="m 1717.09,-7711.75 v 0 c -16.8,0 -30.43,13.62 -30.43,30.43 v 113.02 c 0,16.8 13.63,30.42 30.43,30.42 h 113.02 c 16.8,0 30.43,-13.63 30.43,-30.43 v -113.01 c 0,-16.81 -13.63,-30.43 -30.43,-30.43 z"
           style="fill:none;stroke:#000000;stroke-width:4.34684;stroke-linecap:butt;stroke-linejoin:miter;stroke-miterlimit:10;stroke-dasharray:none;stroke-opacity:1"
           id="path28698" /></g><g
         id="g28700"
         transform="scale(0.1)"><g
           id="g28702"
           clip-path="url(#clipPath28706)"><g
             id="g28708"
             transform="scale(1.07937,-0.920635)"><path
               d="M 1773.6,-7537.88 1425.85,-7364"
               style="fill:none;stroke:#000000;stroke-width:4.34684;stroke-linecap:butt;stroke-linejoin:miter;stroke-miterlimit:10;stroke-dasharray:none;stroke-opacity:1"
               id="path28710" /></g></g></g><path
         d="m 158.343,678.97 -4.441,-1.014 3.596,2.428 -0.25,-0.988 1.095,-0.426"
         style="fill:#000000;fill-opacity:1;fill-rule:evenodd;stroke:none;stroke-width:0.1"
         id="path28712" /><g
         id="g28714"
         transform="scale(0.107937,-0.0920635)"><path
           d="m 1467,-7375.02 -41.15,11.02 33.33,-26.37 -2.32,10.72 z"
           style="fill:none;stroke:#000000;stroke-width:2.17342;stroke-linecap:butt;stroke-linejoin:miter;stroke-miterlimit:10;stroke-dasharray:none;stroke-opacity:1"
           id="path28716" /></g><g
         id="g28718"
         transform="scale(0.107937,-0.0920635)"><path
           d="m 1021.6,-7711.75 v 0 c -16.81,0 -30.432,13.62 -30.432,30.43 v 113.01 c 0,16.8 13.622,30.43 30.432,30.43 h 113.02 c 16.8,0 30.42,-13.63 30.42,-30.43 v -113.01 c 0,-16.81 -13.62,-30.43 -30.42,-30.43 z"
           style="fill:none;stroke:#000000;stroke-width:4.34684;stroke-linecap:butt;stroke-linejoin:miter;stroke-miterlimit:10;stroke-dasharray:none;stroke-opacity:1"
           id="path28720" /></g><g
         id="g28722"
         transform="scale(0.1)"><g
           id="g28724"
           clip-path="url(#clipPath28728)"><g
             id="g28730"
             transform="scale(1.07937,-0.920635)"><path
               d="M 1078.1,-7537.88 730.359,-7364"
               style="fill:none;stroke:#000000;stroke-width:4.34684;stroke-linecap:butt;stroke-linejoin:miter;stroke-miterlimit:10;stroke-dasharray:26.081;stroke-dashoffset:0;stroke-opacity:1"
               id="path28732" /></g></g></g><path
         d="m 83.2738,678.97 -4.4414,-1.014 3.5969,2.428 -0.25,-0.988 1.0945,-0.426"
         style="fill:#000000;fill-opacity:1;fill-rule:evenodd;stroke:none;stroke-width:0.1"
         id="path28734" /><g
         id="g28736"
         transform="scale(0.107937,-0.0920635)"><path
           d="m 771.507,-7375.02 -41.148,11.02 33.324,-26.37 -2.316,10.72 z"
           style="fill:none;stroke:#000000;stroke-width:2.17342;stroke-linecap:butt;stroke-linejoin:miter;stroke-miterlimit:10;stroke-dasharray:none;stroke-opacity:1"
           id="path28738" /></g><g
         id="g28740"
         transform="scale(0.1)"><g
           id="g28742"
           clip-path="url(#clipPath28746)"><g
             id="g28748"
             transform="scale(1.07937,-0.920635)"><path
               d="m 730.359,-7190.13 v 173.87"
               style="fill:none;stroke:#000000;stroke-width:4.34684;stroke-linecap:butt;stroke-linejoin:miter;stroke-miterlimit:10;stroke-dasharray:26.081;stroke-dashoffset:0;stroke-opacity:1"
               id="path28750" /></g></g></g><path
         d="m 77.8938,658.107 0.9386,3.841 0.9383,-3.841 -0.9383,0.64 -0.9386,-0.64"
         style="fill:#000000;fill-opacity:1;fill-rule:evenodd;stroke:none;stroke-width:0.1"
         id="path28752" /><g
         id="g28754"
         transform="scale(0.107937,-0.0920635)"><path
           d="m 721.663,-7148.4 8.696,-41.73 8.693,41.73 -8.693,-6.96 z"
           style="fill:none;stroke:#000000;stroke-width:2.17342;stroke-linecap:butt;stroke-linejoin:miter;stroke-miterlimit:10;stroke-dasharray:none;stroke-opacity:1"
           id="path28756" /></g><path
         d="m 79.7707,649.783 -0.9383,-3.842 -0.9386,3.842 0.9386,-0.64 0.9383,0.64"
         style="fill:#000000;fill-opacity:1;fill-rule:evenodd;stroke:none;stroke-width:0.1"
         id="path28758" /><g
         id="g28760"
         transform="scale(0.107937,-0.0920635)"><path
           d="m 739.052,-7057.99 -8.693,41.73 -8.696,-41.73 8.696,6.96 z"
           style="fill:none;stroke:#000000;stroke-width:2.17342;stroke-linecap:butt;stroke-linejoin:miter;stroke-miterlimit:10;stroke-dasharray:none;stroke-opacity:1"
           id="path28762" /></g><g
         id="g28764"><text
           transform="matrix(1,0,0,-0.85294394,55.373,665.95)"
           style="font-variant:normal;font-weight:normal;font-size:9.38363px;font-family:'Times New Roman';-inkscape-font-specification:Times-Roman;writing-mode:lr-tb;fill:#000000;fill-opacity:1;fill-rule:nonzero;stroke:none"
           id="text28774"><tspan
             x="0 3.1247487 7.8165636 21.892008 58.647873 96.182205 133.7169"
             y="0"
             id="tspan28766">r1 abcd</tspan><tspan
             x="0 3.1247487 7.8165636 21.892008 56.301777 61.594147 96.182114 131.37073 136.66309"
             y="37.534473"
             id="tspan28768">r2 a¬bd¬e</tspan><tspan
             x="0 3.1247487 7.8165636 17.200193 22.492559 58.647873 93.836487 99.128853"
             y="75.068939"
             id="tspan28770">r3 ¬ad¬e</tspan><tspan
             x="171.25159 206.4402 211.73256 133.717 58.648052"
             y="-37.534588"
             id="tspan28772">d¬eca</tspan></text></g></g></g></svg>
