<?xml version="1.0" encoding="UTF-8" standalone="no"?>
<svg
   xmlns:dc="http://purl.org/dc/elements/1.1/"
   xmlns:cc="http://creativecommons.org/ns#"
   xmlns:rdf="http://www.w3.org/1999/02/22-rdf-syntax-ns#"
   xmlns:svg="http://www.w3.org/2000/svg"
   xmlns="http://www.w3.org/2000/svg"
   version="1.1"
   id="svg1481"
   xml:space="preserve"
   width="1122.6667"
   height="793.33331"
   viewBox="0 0 1122.6667 793.33331"><metadata
     id="metadata1487"><rdf:RDF><cc:Work
         rdf:about=""><dc:format>image/svg+xml</dc:format><dc:type
           rdf:resource="http://purl.org/dc/dcmitype/StillImage" /><dc:title></dc:title></cc:Work></rdf:RDF></metadata><defs
     id="defs1485" /><g
     id="g1489"
     transform="matrix(0,1.3333333,1.3333333,0,0,0)"><g
       id="g1491"
       transform="scale(0.1)"><path
         d="m 5060,1316 v 63 m 0,6049 v -63"
         style="fill:none;stroke:#000000;stroke-width:10;stroke-linecap:butt;stroke-linejoin:miter;stroke-miterlimit:10;stroke-dasharray:none;stroke-opacity:1"
         id="path1493" /><g
         id="g1495"
         transform="scale(10)"><text
           transform="matrix(0,1,1,0,511.3,113.105)"
           style="font-variant:normal;font-weight:normal;font-size:16px;font-family:Helvetica;-inkscape-font-specification:Helvetica;writing-mode:lr-tb;fill:#000000;fill-opacity:1;fill-rule:nonzero;stroke:none"
           id="text1499"><tspan
             x="0"
             y="0"
             id="tspan1497">0</tspan></text></g><path
         d="m 4186,1316 v 63 m 0,6049 v -63"
         style="fill:none;stroke:#000000;stroke-width:10;stroke-linecap:butt;stroke-linejoin:miter;stroke-miterlimit:10;stroke-dasharray:none;stroke-opacity:1"
         id="path1501" /><g
         id="g1503"
         transform="scale(10)"><text
           transform="matrix(0,1,1,0,423.9,99.7613)"
           style="font-variant:normal;font-weight:normal;font-size:16px;font-family:Helvetica;-inkscape-font-specification:Helvetica;writing-mode:lr-tb;fill:#000000;fill-opacity:1;fill-rule:nonzero;stroke:none"
           id="text1507"><tspan
             x="0 8.8959999 13.344"
             y="0"
             id="tspan1505">0.2</tspan></text></g><path
         d="m 3313,1316 v 63 m 0,6049 v -63"
         style="fill:none;stroke:#000000;stroke-width:10;stroke-linecap:butt;stroke-linejoin:miter;stroke-miterlimit:10;stroke-dasharray:none;stroke-opacity:1"
         id="path1509" /><g
         id="g1511"
         transform="scale(10)"><text
           transform="matrix(0,1,1,0,336.6,99.7613)"
           style="font-variant:normal;font-weight:normal;font-size:16px;font-family:Helvetica;-inkscape-font-specification:Helvetica;writing-mode:lr-tb;fill:#000000;fill-opacity:1;fill-rule:nonzero;stroke:none"
           id="text1515"><tspan
             x="0 8.8959999 13.344"
             y="0"
             id="tspan1513">0.4</tspan></text></g><path
         d="m 2439,1316 v 63 m 0,6049 v -63"
         style="fill:none;stroke:#000000;stroke-width:10;stroke-linecap:butt;stroke-linejoin:miter;stroke-miterlimit:10;stroke-dasharray:none;stroke-opacity:1"
         id="path1517" /><g
         id="g1519"
         transform="scale(10)"><text
           transform="matrix(0,1,1,0,249.2,99.7613)"
           style="font-variant:normal;font-weight:normal;font-size:16px;font-family:Helvetica;-inkscape-font-specification:Helvetica;writing-mode:lr-tb;fill:#000000;fill-opacity:1;fill-rule:nonzero;stroke:none"
           id="text1523"><tspan
             x="0 8.8959999 13.344"
             y="0"
             id="tspan1521">0.6</tspan></text></g><path
         d="m 1566,1316 v 63 m 0,6049 v -63"
         style="fill:none;stroke:#000000;stroke-width:10;stroke-linecap:butt;stroke-linejoin:miter;stroke-miterlimit:10;stroke-dasharray:none;stroke-opacity:1"
         id="path1525" /><g
         id="g1527"
         transform="scale(10)"><text
           transform="matrix(0,1,1,0,161.9,99.7613)"
           style="font-variant:normal;font-weight:normal;font-size:16px;font-family:Helvetica;-inkscape-font-specification:Helvetica;writing-mode:lr-tb;fill:#000000;fill-opacity:1;fill-rule:nonzero;stroke:none"
           id="text1531"><tspan
             x="0 8.8959999 13.344"
             y="0"
             id="tspan1529">0.8</tspan></text></g><path
         d="m 692,1316 v 63 m 0,6049 v -63"
         style="fill:none;stroke:#000000;stroke-width:10;stroke-linecap:butt;stroke-linejoin:miter;stroke-miterlimit:10;stroke-dasharray:none;stroke-opacity:1"
         id="path1533" /><g
         id="g1535"
         transform="scale(10)"><text
           transform="matrix(0,1,1,0,74.5,113.105)"
           style="font-variant:normal;font-weight:normal;font-size:16px;font-family:Helvetica;-inkscape-font-specification:Helvetica;writing-mode:lr-tb;fill:#000000;fill-opacity:1;fill-rule:nonzero;stroke:none"
           id="text1539"><tspan
             x="0"
             y="0"
             id="tspan1537">1</tspan></text></g><path
         d="m 5060,1316 h -63 m -4305,0 h 63"
         style="fill:none;stroke:#000000;stroke-width:10;stroke-linecap:butt;stroke-linejoin:miter;stroke-miterlimit:10;stroke-dasharray:none;stroke-opacity:1"
         id="path1541" /><g
         id="g1543"
         transform="scale(10)"><text
           transform="matrix(0,1,1,0,527.3,129.377)"
           style="font-variant:normal;font-weight:normal;font-size:16px;font-family:Helvetica;-inkscape-font-specification:Helvetica;writing-mode:lr-tb;fill:#000000;fill-opacity:1;fill-rule:nonzero;stroke:none"
           id="text1547"><tspan
             x="0"
             y="0"
             id="tspan1545">1</tspan></text></g><path
         d="m 5060,1929 h -31 m -4337,0 h 31 m 4337,359 h -31 m -4337,0 h 31 m 4337,255 h -31 m -4337,0 h 31 m 4337,197 h -31 m -4337,0 h 31 m 4337,161 h -31 m -4337,0 h 31 m 4337,137 h -31 m -4337,0 h 31 m 4337,118 h -31 m -4337,0 h 31 m 4337,104 h -31 m -4337,0 h 31 m 4337,93 h -63 m -4305,0 h 63"
         style="fill:none;stroke:#000000;stroke-width:10;stroke-linecap:butt;stroke-linejoin:miter;stroke-miterlimit:10;stroke-dasharray:none;stroke-opacity:1"
         id="path1549" /><g
         id="g1551"
         transform="scale(10)"><text
           transform="matrix(0,1,1,0,527.3,328.628)"
           style="font-variant:normal;font-weight:normal;font-size:16px;font-family:Helvetica;-inkscape-font-specification:Helvetica;writing-mode:lr-tb;fill:#000000;fill-opacity:1;fill-rule:nonzero;stroke:none"
           id="text1555"><tspan
             x="0 8.8959999"
             y="0"
             id="tspan1553">10</tspan></text></g><path
         d="m 5060,3967 h -31 m -4337,0 h 31 m 4337,358 h -31 m -4337,0 h 31 m 4337,255 h -31 m -4337,0 h 31 m 4337,197 h -31 m -4337,0 h 31 m 4337,162 h -31 m -4337,0 h 31 m 4337,136 h -31 m -4337,0 h 31 m 4337,118 h -31 m -4337,0 h 31 m 4337,104 h -31 m -4337,0 h 31 m 4337,94 h -63 m -4305,0 h 63"
         style="fill:none;stroke:#000000;stroke-width:10;stroke-linecap:butt;stroke-linejoin:miter;stroke-miterlimit:10;stroke-dasharray:none;stroke-opacity:1"
         id="path1557" /><g
         id="g1559"
         transform="scale(10)"><text
           transform="matrix(0,1,1,0,527.3,527.981)"
           style="font-variant:normal;font-weight:normal;font-size:16px;font-family:Helvetica;-inkscape-font-specification:Helvetica;writing-mode:lr-tb;fill:#000000;fill-opacity:1;fill-rule:nonzero;stroke:none"
           id="text1563"><tspan
             x="0 8.8959999 17.792"
             y="0"
             id="tspan1561">100</tspan></text></g><path
         d="m 5060,6004 h -31 m -4337,0 h 31 m 4337,359 h -31 m -4337,0 h 31 m 4337,254 h -31 m -4337,0 h 31 m 4337,198 h -31 m -4337,0 h 31 m 4337,161 h -31 m -4337,0 h 31 m 4337,136 h -31 m -4337,0 h 31 m 4337,119 h -31 m -4337,0 h 31 m 4337,104 h -31 m -4337,0 h 31 m 4337,93 h -63 m -4305,0 h 63"
         style="fill:none;stroke:#000000;stroke-width:10;stroke-linecap:butt;stroke-linejoin:miter;stroke-miterlimit:10;stroke-dasharray:none;stroke-opacity:1"
         id="path1565" /><g
         id="g1567"
         transform="scale(10)"><text
           transform="matrix(0,1,1,0,527.3,727.233)"
           style="font-variant:normal;font-weight:normal;font-size:16px;font-family:Helvetica;-inkscape-font-specification:Helvetica;writing-mode:lr-tb;fill:#000000;fill-opacity:1;fill-rule:nonzero;stroke:none"
           id="text1571"><tspan
             x="0 8.8959999 17.792 26.688"
             y="0"
             id="tspan1569">1000</tspan></text></g><path
         d="M 5060,1316 V 7428 H 692 V 1316 h 4368"
         style="fill:none;stroke:#000000;stroke-width:10;stroke-linecap:butt;stroke-linejoin:miter;stroke-miterlimit:10;stroke-dasharray:none;stroke-opacity:1"
         id="path1573" /><g
         id="g1575"
         transform="scale(10)"><text
           transform="matrix(-1,0,0,1,512.368,71.3)"
           style="font-variant:normal;font-weight:normal;font-size:24px;font-family:Helvetica;-inkscape-font-specification:Helvetica;writing-mode:lr-tb;fill:#000000;fill-opacity:1;fill-rule:nonzero;stroke:none"
           id="text1579"><tspan
             x="0 13.344 25.344 38.688 45.360001 52.032001 65.375999 73.367996 86.711998 98.711998 104.04 116.04 121.368 134.71201 148.056 154.728 168.07201 174.744 181.416 193.416 206.75999 220.104 233.448 240.12 248.112 261.45599 266.784 280.12799 292.12799 305.47198 318.81601 325.48801 332.16 345.504 358.84799 370.84799 384.19199 404.18399 417.52802 430.87201 437.54401"
             y="0"
             id="tspan1577">avg. precision at seen relevant documents</tspan></text><text
           transform="matrix(0,1,1,0,551.3,273.127)"
           style="font-variant:normal;font-weight:normal;font-size:24px;font-family:Helvetica;-inkscape-font-specification:Helvetica;writing-mode:lr-tb;fill:#000000;fill-opacity:1;fill-rule:nonzero;stroke:none"
           id="text1583"><tspan
             x="0 13.344 26.688 46.68 60.023998 73.367996 81.360001 88.031998 101.376 108.048 114.72 128.064 141.408 153.408 166.752 186.744 200.088 213.43201 220.104 232.104 238.776 246.76801 260.112 266.784 280.12799 288.12 301.46399 314.80801"
             y="0"
             id="tspan1581">number of documents returned</tspan></text><text
           transform="matrix(0,1,1,0,88.8,609.718)"
           style="font-variant:normal;font-weight:normal;font-size:16px;font-family:Helvetica;-inkscape-font-specification:Helvetica;writing-mode:lr-tb;fill:#000000;fill-opacity:1;fill-rule:nonzero;stroke:none"
           id="text1587"><tspan
             x="0 8.8959999 17.792 25.792 34.688 38.240002 41.792 50.688"
             y="0"
             id="tspan1585">baseline</tspan></text></g><path
         d="m 835,6789 v 447 M 692,1316 v 613 l 364,614 710,1169 386,57 242,104 162,94 123,123 83,38 55,36 42,68 27,32 17,31 29,167 53,297 44,36 45,129 46,112 38,26 48,255 42,19 37,28 33,18 30,17 28,60 26,40 23,15 23,67 23,55 21,46 20,13 18,24 20,99 18,42 17,5 16,6 14,10 13,10 13,34 12,10 12,24 10,27 13,118 14,97 14,55 13,20 13,48 12,9 12,30 12,43 12,41 12,19 11,31 11,44 13,167 12,13 11,6 12,55 11,9 11,20 11,73 11,2 10,40 10,32 10,5 10,32 10,46 10,48 9,47 10,53 9,44 10,3 9,41 9,103 9,48"
         style="fill:none;stroke:#ff0000;stroke-width:15;stroke-linecap:butt;stroke-linejoin:miter;stroke-miterlimit:10;stroke-dasharray:none;stroke-opacity:1"
         id="path1589" /><g
         id="g1591"
         transform="scale(10)"><text
           transform="matrix(0,1,1,0,104.8,554.136)"
           style="font-variant:normal;font-weight:normal;font-size:16px;font-family:Helvetica;-inkscape-font-specification:Helvetica;writing-mode:lr-tb;fill:#000000;fill-opacity:1;fill-rule:nonzero;stroke:none"
           id="text1595"><tspan
             x="0 8.8959999 16.896 25.792 34.688 43.584 52.48 57.807999 69.360001 79.136002 83.584 88.031998 96.928001 106.272"
             y="0"
             id="tspan1593">pseudo-RF, n=5</tspan></text></g><path
         d="m 995,6789 v 447 M 692,1316 v 1227 l 146,358 218,359 135,93 87,85 56,77 37,70 44,127 47,111 34,50 24,48 28,89 38,118 30,36 23,35 29,96 24,30 20,29 15,28 13,28 10,26 14,75 25,133 22,20 19,20 17,20 14,19 12,18 10,18 11,36 11,34 10,33 10,16 8,15 7,16 6,15 5,15 11,97 12,52 12,24 11,24 11,12 10,23 10,22 11,33 12,52 13,39 12,28 12,10 14,53 12,17 12,9 12,8 11,25 11,32 11,8 10,7 10,16 10,22 10,36 14,100 13,13 12,18 12,7 12,29 12,12 12,6 10,5 12,45 11,5 10,22 11,5 10,16 10,15 11,39 10,19 12,51 10,5 11,8 11,31 11,45 12,74 13,40 13,31 13,44 13,3 12,19 13,7 12,15 12,34 13,52 12,33 13,19 13,21 13,89 13,18 13,3 13,20 13,13 13,72"
         style="fill:none;stroke:#00ff00;stroke-width:15;stroke-linecap:butt;stroke-linejoin:miter;stroke-miterlimit:10;stroke-dasharray:40, 20;stroke-dashoffset:0;stroke-opacity:1"
         id="path1597" /><path
         d="m 2690,6691 12,7 13,2 12,6 12,19 12,33 12,8 13,64 12,40 12,1 14,212 13,12 13,19 13,36 14,54 13,8 13,20 12,24 13,48 13,15 12,32 13,24 12,25"
         style="fill:none;stroke:#00ff00;stroke-width:15;stroke-linecap:butt;stroke-linejoin:miter;stroke-miterlimit:10;stroke-dasharray:40, 20;stroke-dashoffset:0;stroke-opacity:1"
         id="path1599" /><g
         id="g1601"
         transform="scale(10)"><text
           transform="matrix(0,1,1,0,120.8,533.255)"
           style="font-variant:normal;font-weight:normal;font-size:16px;font-family:Helvetica;-inkscape-font-specification:Helvetica;writing-mode:lr-tb;fill:#000000;fill-opacity:1;fill-rule:nonzero;stroke:none"
           id="text1605"><tspan
             x="0 11.552 20.448 24 32.896 41.792 46.240002 55.136002 64.031998 68.480003 76.480003 85.375999 93.375999 104.928 113.824 119.152 128.048"
             y="0"
             id="tspan1603">weighted keywords</tspan></text></g><path
         d="m 1155,6789 v 447 m -463,-5920 728,972 121,255 152,358 49,137 117,315 93,162 97,197 173,520 143,122 108,28 87,54 86,166 78,102 64,37 63,121 55,47 60,215 52,12 49,79 43,21 44,146 40,9 40,146 39,72 35,7 32,34 34,145 32,28 31,121 30,10 27,41 31,231 30,88 28,49 27,17 27,134 26,79 26,90 24,48 24,42 23,103 23,44 21,28 21,1 19,23 19,23 19,182 19,45 18,61 17,40 17,6 16,22 16,34 15,24"
         style="fill:none;stroke:#0000ff;stroke-width:15;stroke-linecap:butt;stroke-linejoin:miter;stroke-miterlimit:10;stroke-dasharray:20, 30;stroke-dashoffset:0;stroke-opacity:1"
         id="path1607" /><g
         id="g1609"
         transform="scale(10)"><text
           transform="matrix(0,1,1,0,136.8,504.329)"
           style="font-variant:normal;font-weight:normal;font-size:16px;font-family:Helvetica;-inkscape-font-specification:Helvetica;writing-mode:lr-tb;fill:#000000;fill-opacity:1;fill-rule:nonzero;stroke:none"
           id="text1613"><tspan
             x="0 8.8959999 17.792 21.344 30.24 34.688 44.032001 48.48 52.928001 61.824001 70.720001 75.167999 84.064003 92.959999 97.407997 105.408 114.304 122.304 133.856 142.752 148.08 156.976"
             y="0"
             id="tspan1611">gold + top 60 keywords</tspan></text></g><path
         d="m 1315,6789 v 447 M 692,1316 v 1227 l 146,358 79,137 46,118 27,104 15,93 133,416 99,54 89,98 79,89 79,118 64,36 64,100 52,31 48,59 39,28 48,129 40,24 47,129 71,346 71,126 67,57 64,85 60,29 61,152 59,93 55,7 51,29 51,125 51,99 48,64 47,40 43,9 40,5 38,10 36,23 34,5 32,4 30,10 30,102 30,70 29,11 27,4 28,164 28,33 27,34 26,63 25,10 25,61 24,19 25,203 25,80 24,15 24,83 23,4 22,10 21,41 21,5 20,8 20,7 19,92 19,4 18,11 18,70 17,30 17,5 17,34 16,23 16,25 15,5 15,2 14,24 14,6 14,5 13,3 14,33 12,5"
         style="fill:none;stroke:#808080;stroke-width:35;stroke-linecap:butt;stroke-linejoin:miter;stroke-miterlimit:10;stroke-dasharray:20, 20, 20, 20, 20, 20, 20, 40;stroke-dashoffset:0;stroke-opacity:1"
         id="path1615" /><g
         id="g1617"
         transform="scale(10)"><text
           transform="matrix(0,1,1,0,152.8,586.614)"
           style="font-variant:normal;font-weight:normal;font-size:16px;font-family:Helvetica;-inkscape-font-specification:Helvetica;writing-mode:lr-tb;fill:#000000;fill-opacity:1;fill-rule:nonzero;stroke:none"
           id="text1621"><tspan
             x="0 4.448 13.344 25.792 34.688 43.584 48.911999 56.911999 61.360001 72.912003"
             y="0"
             id="tspan1619">InQuery RF</tspan></text></g><path
         d="m 1475,6789 v 447 M 692,1316 v 613 l 364,614 127,197 48,161 14,137 -1,118 40,197 23,85 11,77 28,136 53,172 51,98 40,46 30,43 23,41 17,39 26,109 27,65 22,31 22,59 18,28 15,28 12,26 9,26 11,49 9,24 9,45 8,22 7,21 5,21 4,20 2,20 4,39 3,18 3,18 1,18 1,18 v 17 17 l -1,16 -2,17 -1,16 -2,15 -2,16 v 44 l -1,15 v 28 14 l 1,26 v 13 13 l 1,26 2,36 4,58 4,11 4,11 4,22 3,10 3,11 3,20 5,30 4,20 5,28 4,10 5,27 6,26 6,34 6,9 5,8 6,8 5,16 6,24 5,7 5,23 7,37 6,21 7,7 7,28 6,6 6,14 6,6 7,26 7,31 7,6 6,13 7,17 6,6 6,6 6,12 7,22 6,6 6,6 5,11 6,5 5,5 5,11 5,5 5,16 5,11 6,20 5,20 6,10"
         style="fill:none;stroke:#000000;stroke-width:30;stroke-linecap:butt;stroke-linejoin:miter;stroke-miterlimit:10;stroke-dasharray:none;stroke-opacity:1"
         id="path1623" /><path
         d="m 2040,5921 5,9 5,5 5,5 5,19 6,49 6,9 6,4 5,13 6,5 6,8 5,13 6,20 5,4 6,4 5,4 5,20 6,12 5,30 6,15 6,4 5,7 6,18 6,24 6,4 6,43 6,4 6,6 7,10 6,19 6,9 6,3 6,13 6,3 6,15 5,6 6,3 7,54 6,20 6,2 7,3 6,3 6,8 5,5 7,26 6,33 6,10 7,2 6,8 6,21 6,8 7,14 6,13 7,38 6,11 7,2 6,2 7,24 6,2 6,6 6,4 7,46 6,6 7,29 7,46 7,7 7,16 7,5 7,32 7,25 7,19 7,8 7,2 8,15 7,40 7,29 7,1 8,9 7,11 7,11 7,15 7,34 8,26 7,15 7,15 8,30 7,28 8,9 7,24 8,3 7,1 7,7 8,43 7,13 7,9 7,9 8,5 7,54 8,36 7,14"
         style="fill:none;stroke:#000000;stroke-width:30;stroke-linecap:butt;stroke-linejoin:miter;stroke-miterlimit:10;stroke-dasharray:none;stroke-opacity:1"
         id="path1625" /><path
         d="M 5060,1316 V 7428 H 692 V 1316 h 4368"
         style="fill:none;stroke:#000000;stroke-width:10;stroke-linecap:butt;stroke-linejoin:miter;stroke-miterlimit:10;stroke-dasharray:none;stroke-opacity:1"
         id="path1627" /></g></g></svg>
