<?xml version="1.0" encoding="UTF-8" standalone="no"?>
<svg
   xmlns:dc="http://purl.org/dc/elements/1.1/"
   xmlns:cc="http://creativecommons.org/ns#"
   xmlns:rdf="http://www.w3.org/1999/02/22-rdf-syntax-ns#"
   xmlns:svg="http://www.w3.org/2000/svg"
   xmlns="http://www.w3.org/2000/svg"
   xmlns:sodipodi="http://sodipodi.sourceforge.net/DTD/sodipodi-0.dtd"
   xmlns:inkscape="http://www.inkscape.org/namespaces/inkscape"
   width="100mm"
   height="100mm"
   viewBox="0 0 100 100"
   version="1.1"
   id="svg2367"
   inkscape:version="1.0.2 (e86c870879, 2021-01-15)"
   sodipodi:docname="eoconv.svg">
  <defs
     id="defs2361">
    <rect
       x="8.5584342"
       y="8.5286563"
       width="28.351446"
       height="25.209246"
       id="rect3214" />
    <rect
       x="8.0899504"
       y="7.8668346"
       width="21.638979"
       height="24.685519"
       id="rect3204" />
  </defs>
  <sodipodi:namedview
     id="base"
     pagecolor="#ffffff"
     bordercolor="#666666"
     borderopacity="1.0"
     inkscape:pageopacity="0.0"
     inkscape:pageshadow="2"
     inkscape:zoom="2.1775208"
     inkscape:cx="146.59352"
     inkscape:cy="210.14966"
     inkscape:document-units="mm"
     inkscape:current-layer="layer1"
     inkscape:document-rotation="0"
     showgrid="false"
     inkscape:window-width="1920"
     inkscape:window-height="1021"
     inkscape:window-x="0"
     inkscape:window-y="0"
     inkscape:window-maximized="1" />
  <metadata
     id="metadata2364">
    <rdf:RDF>
      <cc:Work
         rdf:about="">
        <dc:format>image/svg+xml</dc:format>
        <dc:type
           rdf:resource="http://purl.org/dc/dcmitype/StillImage" />
        <dc:title></dc:title>
      </cc:Work>
    </rdf:RDF>
  </metadata>
  <g
     inkscape:label="Layer 1"
     inkscape:groupmode="layer"
     id="layer1">
    <g
       id="g3225"
       transform="translate(0,5.729585)">
      <path
         id="path2369"
         style="fill:#008000;stroke:none;stroke-width:1.5;stroke-miterlimit:4;stroke-dasharray:none;stroke-dashoffset:0;stop-color:#000000"
         inkscape:transform-center-x="0.011428963"
         inkscape:transform-center-y="-1.7527646"
         transform="rotate(-3.1147315,218.97389,-132.45155)"
         d="m 58.826987,24.011476 -9.218558,8.089497 1.437793,12.180088 -10.542261,-6.267577 -11.139649,5.131277 2.703083,-11.963074 -8.322476,-9.008785 12.212858,-1.126008 5.996077,-10.699012 4.844878,11.267162 z" />
      <g
         aria-label="eoconv"
         id="text3196"
         style="font-weight:bold;font-size:19.7556px;line-height:1.25;font-family:'Garamond Premier Pro';-inkscape-font-specification:'Garamond Premier Pro Bold';text-align:end;letter-spacing:0px;word-spacing:0px;text-anchor:end;stroke-width:0.264583">
        <path
           d="m 17.520943,64.656809 q 0.482314,2.141476 2.893886,2.141476 0.713826,0 1.350481,-0.173634 0.636655,-0.192925 1.003214,-0.405144 0.385852,-0.231511 0.752411,-0.405144 0.366559,-0.192926 0.598069,-0.192926 0.385852,0 0.617363,0.270097 0.250803,0.270096 0.250803,0.694532 0,0.868166 -1.331187,1.543407 -1.311896,0.655947 -3.337616,0.655947 -2.353695,0 -3.800638,-1.311895 -1.446944,-1.331188 -1.446944,-3.356909 0,-2.02572 1.446944,-3.356908 1.446943,-1.331188 3.800638,-1.331188 2.141476,0 3.472664,1.254017 1.35048,1.234725 1.35048,2.99035 0,0.617363 -0.308681,0.810288 -0.289389,0.173634 -1.080385,0.173634 z m 0,-1.504822 h 5.189703 q -0.15434,-0.887458 -0.848873,-1.369773 -0.67524,-0.501607 -1.755625,-0.501607 -2.102891,0 -2.585205,1.87138 z"
           style="font-style:normal;font-variant:normal;font-weight:bold;font-stretch:normal;font-size:19.7556px;font-family:'Courier 10 Pitch';-inkscape-font-specification:'Courier 10 Pitch, Bold';font-variant-ligatures:normal;font-variant-caps:normal;font-variant-numeric:normal;font-variant-east-asian:normal;stroke-width:0.264583"
           id="path3228" />
        <path
           d="m 35.848892,60.759708 q 1.446943,1.331188 1.446943,3.356908 0,2.025721 -1.446943,3.356909 -1.446944,1.311895 -3.819931,1.311895 -2.372987,0 -3.81993,-1.311895 -1.446944,-1.331188 -1.446944,-3.356909 0,-2.02572 1.446944,-3.356908 1.446943,-1.331188 3.81993,-1.331188 2.372987,0 3.819931,1.331188 z M 32.028961,66.7597 q 1.138262,0 1.852088,-0.752411 0.713825,-0.752411 0.713825,-1.909965 0,-1.157555 -0.713825,-1.890673 -0.713826,-0.75241 -1.852088,-0.75241 -1.138262,0 -1.87138,0.75241 -0.713825,0.733118 -0.713825,1.890673 0,1.157554 0.733118,1.909965 0.733118,0.752411 1.852087,0.752411 z"
           style="font-style:normal;font-variant:normal;font-weight:bold;font-stretch:normal;font-size:19.7556px;font-family:'Courier 10 Pitch';-inkscape-font-specification:'Courier 10 Pitch, Bold';font-variant-ligatures:normal;font-variant-caps:normal;font-variant-numeric:normal;font-variant-east-asian:normal;stroke-width:0.264583"
           id="path3230" />
        <path
           d="m 46.787783,60.161638 q 0.250804,-0.771703 0.983921,-0.771703 0.540193,0 0.733118,0.347266 0.212219,0.327974 0.212219,1.080384 v 1.581992 q 0,1.138262 -0.964629,1.138262 -0.655948,0 -1.099677,-0.790996 -0.771703,-1.292602 -2.565913,-1.292602 -1.138262,0 -1.852087,0.75241 -0.713826,0.752411 -0.713826,1.890673 0,1.19614 0.733118,1.929258 0.752411,0.733118 2.025721,0.733118 0.848873,0 1.581991,-0.308682 0.733118,-0.327974 1.234725,-0.636655 0.5209,-0.327974 0.810289,-0.327974 0.366559,0 0.598069,0.270096 0.250804,0.270097 0.250804,0.694533 0,0.887459 -1.369773,1.620577 -1.369773,0.713825 -3.299031,0.713825 -2.372987,0 -3.81993,-1.311895 -1.427651,-1.331188 -1.427651,-3.356909 0,-2.006428 1.427651,-3.356908 1.446943,-1.350481 3.665589,-1.350481 1.524114,0 2.855302,0.752411 z"
           style="font-style:normal;font-variant:normal;font-weight:bold;font-stretch:normal;font-size:19.7556px;font-family:'Courier 10 Pitch';-inkscape-font-specification:'Courier 10 Pitch, Bold';font-variant-ligatures:normal;font-variant-caps:normal;font-variant-numeric:normal;font-variant-east-asian:normal;stroke-width:0.264583"
           id="path3232" />
        <path
           d="m 59.617347,60.759708 q 1.446943,1.331188 1.446943,3.356908 0,2.025721 -1.446943,3.356909 -1.446943,1.311895 -3.81993,1.311895 -2.372987,0 -3.819931,-1.311895 -1.446943,-1.331188 -1.446943,-3.356909 0,-2.02572 1.446943,-3.356908 1.446944,-1.331188 3.819931,-1.331188 2.372987,0 3.81993,1.331188 z m -3.81993,5.999992 q 1.138262,0 1.852087,-0.752411 0.713826,-0.752411 0.713826,-1.909965 0,-1.157555 -0.713826,-1.890673 -0.713825,-0.75241 -1.852087,-0.75241 -1.138262,0 -1.87138,0.75241 -0.713826,0.733118 -0.713826,1.890673 0,1.157554 0.733118,1.909965 0.733118,0.752411 1.852088,0.752411 z"
           style="font-style:normal;font-variant:normal;font-weight:bold;font-stretch:normal;font-size:19.7556px;font-family:'Courier 10 Pitch';-inkscape-font-specification:'Courier 10 Pitch, Bold';font-variant-ligatures:normal;font-variant-caps:normal;font-variant-numeric:normal;font-variant-east-asian:normal;stroke-width:0.264583"
           id="path3234" />
        <path
           d="m 71.733086,66.412433 h 0.115755 q 1.099677,0 1.099677,1.080385 0,0.578777 -0.289388,0.82958 -0.289389,0.231511 -0.926044,0.231511 h -2.372987 q -0.636655,0 -0.926044,-0.231511 -0.289389,-0.250803 -0.289389,-0.82958 0,-1.080385 1.099677,-1.080385 h 0.115756 v -2.778131 q 0,-1.11897 -0.308682,-1.620577 -0.289388,-0.520899 -1.080384,-0.520899 -0.790996,0 -1.311895,0.578777 -0.5209,0.578777 -0.5209,1.562699 v 2.778131 h 0.115756 q 1.099677,0 1.099677,1.080385 0,0.578777 -0.289389,0.82958 -0.289389,0.231511 -0.926044,0.231511 h -2.39228 q -0.636655,0 -0.926043,-0.231511 -0.270096,-0.250803 -0.270096,-0.82958 0,-1.080385 1.080384,-1.080385 h 0.115755 v -4.649511 h -0.15434 q -1.041799,0 -1.041799,-1.061092 0,-0.59807 0.270096,-0.829581 0.289388,-0.231511 0.926043,-0.231511 h 1.63987 q 0.559484,0 0.559484,0.424437 v 0.75241 q 0.945337,-1.408358 2.720254,-1.408358 3.06752,0 3.06752,3.781346 z"
           style="font-style:normal;font-variant:normal;font-weight:bold;font-stretch:normal;font-size:19.7556px;font-family:'Courier 10 Pitch';-inkscape-font-specification:'Courier 10 Pitch, Bold';font-variant-ligatures:normal;font-variant-caps:normal;font-variant-numeric:normal;font-variant-east-asian:normal;stroke-width:0.264583"
           id="path3236" />
        <path
           d="m 80.839182,67.840084 q -0.270096,0.578777 -0.501607,0.75241 -0.231511,0.192926 -0.868166,0.192926 -0.501607,0 -0.771703,-0.135048 -0.270096,-0.135048 -0.347266,-0.270096 -0.07717,-0.135048 -0.250804,-0.540192 l -2.681668,-6.077162 h -0.154341 q -1.061092,0 -1.061092,-1.080385 0,-0.578777 0.289389,-0.810288 0.289389,-0.231511 0.926044,-0.231511 h 2.450157 q 0.636655,0 0.926044,0.231511 0.308681,0.231511 0.308681,0.810288 0,1.080385 -1.080384,1.080385 h -0.154341 l 1.736332,4.109319 1.813503,-4.109319 h -0.154341 q -1.061092,0 -1.061092,-1.080385 0,-0.578777 0.289389,-0.810288 0.289389,-0.231511 0.926044,-0.231511 h 2.276524 q 0.636655,0 0.926044,0.231511 0.308681,0.231511 0.308681,0.810288 0,1.080385 -1.080385,1.080385 h -0.15434 z"
           style="font-style:normal;font-variant:normal;font-weight:bold;font-stretch:normal;font-size:19.7556px;font-family:'Courier 10 Pitch';-inkscape-font-specification:'Courier 10 Pitch, Bold';font-variant-ligatures:normal;font-variant-caps:normal;font-variant-numeric:normal;font-variant-east-asian:normal;stroke-width:0.264583"
           id="path3238" />
      </g>
    </g>
  </g>
</svg>
