<?xml version="1.0" encoding="UTF-8" standalone="no"?>
<svg
   xmlns:dc="http://purl.org/dc/elements/1.1/"
   xmlns:cc="http://creativecommons.org/ns#"
   xmlns:rdf="http://www.w3.org/1999/02/22-rdf-syntax-ns#"
   xmlns:svg="http://www.w3.org/2000/svg"
   xmlns="http://www.w3.org/2000/svg"
   width="221.17982mm"
   height="130.82768mm"
   viewBox="0 0 221.17982 130.82768"
   version="1.1"
   id="svg8">
  <defs
     id="defs2" />
  <metadata
     id="metadata5">
    <rdf:RDF>
      <cc:Work
         rdf:about="">
        <dc:format>image/svg+xml</dc:format>
        <dc:type
           rdf:resource="http://purl.org/dc/dcmitype/StillImage" />
        <dc:title></dc:title>
      </cc:Work>
    </rdf:RDF>
  </metadata>
  <g
     id="layer1"
     transform="translate(-22.772163,-94.024555)">
    <g
       aria-label="#define LAMBDA(x,f,v) SILENT(
  #ifneq (v) ()
  #define TEMP3(a,b,c) EVAL(a,b,c)
  #else
  #define TEMP3(a,b,c) \LAMBDA(a,b)
  #endif
  )TEMP3(x,f,v)
#define EVALAMBDA(x,y) SILENT(
  #defeval TEMP4 x
  #defeval TEMP5 y
"
       id="text835"
       style="font-style:normal;font-weight:normal;font-size:10.5833px;line-height:125%;font-family:sans-serif;letter-spacing:0px;word-spacing:0px;fill:#000000;fill-opacity:1;stroke:none;stroke-width:0.264583px;stroke-linecap:butt;stroke-linejoin:miter;stroke-opacity:1">
      <path
         d="m 27.968564,98.384875 h 0.793747 V 97.273628 H 28.11673 L 28.317812,95.7708 h -1.375829 l -0.201082,1.502828 H 25.724904 L 25.925987,95.7708 h -1.386413 l -0.190499,1.502828 h -0.814914 v 1.111247 h 0.666748 l -0.275166,2.084905 h -0.783164 v 1.10067 h 0.634998 l -0.1905,1.53458 h 1.375829 l 0.201083,-1.53458 h 1.015997 l -0.201083,1.53458 h 1.375829 l 0.201083,-1.53458 h 0.814914 v -1.10067 h -0.666748 z m -2.666992,2.084905 0.275166,-2.084905 h 1.015997 l -0.275166,2.084905 z"
         style="fill:#800080"
         id="path1672" />
      <path
         d="m 33.059115,95.072302 v 2.751658 c -0.338666,-0.349249 -0.772581,-0.529165 -1.269996,-0.529165 -1.386413,0 -2.24366,1.248829 -2.24366,2.984495 0,1.80974 0.666748,3.00565 2.063743,3.00565 0.740831,0 1.24883,-0.35983 1.555746,-0.79375 l 0.08467,0.61384 h 1.481662 v -7.852812 z m -0.825498,3.450156 c 0.349249,0 0.592665,0.169332 0.825498,0.465665 v 2.423577 c -0.243416,0.40216 -0.539749,0.64558 -0.920748,0.64558 -0.507998,0 -0.86783,-0.381 -0.86783,-1.76741 0,-1.259414 0.380999,-1.767412 0.96308,-1.767412 z"
         style="fill:#800080"
         id="path1674" />
      <path
         d="m 37.662834,100.78728 h 3.640655 c 0.02117,-0.16933 0.03175,-0.41275 0.03175,-0.60324 0,-1.809749 -1.02658,-2.889245 -2.635242,-2.889245 -1.767411,0 -2.741074,1.344079 -2.741074,3.005655 0,1.74625 0.99483,2.98449 2.92099,2.98449 0.952497,0 1.714495,-0.3175 2.24366,-0.77258 l -0.666748,-0.91016 c -0.444499,0.28575 -0.931331,0.46566 -1.439329,0.46566 -0.719664,0 -1.238246,-0.35983 -1.354662,-1.28058 z m 1.037163,-2.370655 c 0.709081,0 0.99483,0.539748 1.005414,1.354662 h -2.063744 c 0.07408,-0.931331 0.465665,-1.354662 1.05833,-1.354662 z"
         style="fill:#800080"
         id="path1676" />
      <path
         d="m 46.14004,95.072302 c -1.523995,0 -2.328326,0.846664 -2.328326,1.95791 v 0.804331 h -1.185329 v 1.164163 h 1.185329 v 4.106324 h 1.661578 v -4.106324 h 1.640412 l 0.190499,-1.164163 h -1.830911 v -0.751414 c 0,-0.550332 0.264583,-0.772581 0.931331,-0.772581 0.402165,0 0.814914,0.0635 1.195913,0.211666 l 0.465665,-1.09008 C 47.568786,95.220468 46.965538,95.072302 46.14004,95.072302 Z"
         style="fill:#800080"
         id="path1678" />
      <path
         d="m 51.336425,94.543137 c -0.582082,0 -0.994831,0.412749 -0.994831,0.941914 0,0.539748 0.412749,0.941913 0.994831,0.941913 0.582081,0 0.984247,-0.402165 0.984247,-0.941913 0,-0.529165 -0.402166,-0.941914 -0.984247,-0.941914 z m 1.005413,2.942157 h -3.20674 v 1.142996 h 1.534579 v 3.33374 h -1.587495 v 1.143 h 4.698985 v -1.143 h -1.439329 z"
         style="fill:#800080"
         id="path1680" />
      <path
         d="m 55.262813,103.10503 h 1.672162 v -3.926408 c 0.317498,-0.402165 0.624414,-0.645581 0.984246,-0.645581 0.412749,0 0.539749,0.232832 0.539749,0.93133 v 3.640659 h 1.672161 v -4.127491 c 0,-1.068913 -0.582081,-1.682744 -1.545162,-1.682744 -0.719664,0 -1.248829,0.275166 -1.746244,0.83608 l -0.116416,-0.645581 h -1.460496 z"
         style="fill:#800080"
         id="path1682" />
      <path
         d="m 63.062687,100.78728 h 3.640656 c 0.02117,-0.16933 0.03175,-0.41275 0.03175,-0.60324 0,-1.809749 -1.02658,-2.889245 -2.635241,-2.889245 -1.767411,0 -2.741075,1.344079 -2.741075,3.005655 0,1.74625 0.99483,2.98449 2.920991,2.98449 0.952497,0 1.714494,-0.3175 2.243659,-0.77258 l -0.666747,-0.91016 c -0.444499,0.28575 -0.931331,0.46566 -1.439329,0.46566 -0.719665,0 -1.238246,-0.35983 -1.354663,-1.28058 z m 1.037164,-2.370655 c 0.709081,0 0.99483,0.539748 1.005413,1.354662 h -2.063743 c 0.07408,-0.931331 0.465665,-1.354662 1.05833,-1.354662 z"
         style="fill:#800080"
         id="path1684" />
      <path
         d="m 74.55612,103.10503 h 4.741318 l 0.169333,-1.37583 h -3.17499 V 95.7708 H 74.55612 Z"
         style="fill:#0000ff"
         id="path1686" />
      <path
         d="m 84.155157,101.51753 0.380998,1.5875 h 1.862661 L 84.155157,95.7708 H 82.04908 l -2.243659,7.33423 h 1.820327 l 0.380999,-1.5875 z m -1.873244,-1.24883 0.793747,-3.249071 0.793748,3.249071 z"
         style="fill:#0000ff"
         id="path1688" />
      <path
         d="m 92.029116,95.7708 h -1.788578 l -0.772581,4.74132 -0.814914,-4.74132 h -1.788577 l -0.412749,7.33423 h 1.492245 l 0.05292,-3.111494 c 0.02117,-1.174746 -0.02117,-1.820327 -0.105833,-2.751658 l 0.89958,4.614322 h 1.312329 l 0.825498,-4.614322 c -0.07408,0.984247 -0.127,1.566329 -0.09525,2.719908 l 0.08467,3.143244 h 1.523995 z"
         style="fill:#0000ff"
         id="path1690" />
      <path
         d="m 98.664829,100.95662 c 0,-1.17475 -0.878414,-1.608665 -1.661578,-1.735665 0.719665,-0.179916 1.344079,-0.698497 1.344079,-1.576911 0,-1.428746 -1.301746,-1.873244 -2.804574,-1.873244 H 93.21443 v 7.33423 h 2.434159 c 1.587495,0 3.01624,-0.45509 3.01624,-2.14841 z m -2.063743,-3.13266 c 0,0.613831 -0.317499,0.878414 -1.05833,0.878414 h -0.592665 v -1.703912 h 0.529165 c 0.772581,0 1.12183,0.243416 1.12183,0.825498 z m 0.275166,3.05857 c 0,0.80433 -0.603248,0.9525 -1.291163,0.9525 h -0.634998 v -1.968493 h 0.709081 c 0.740831,0 1.21708,0.254003 1.21708,1.015993 z"
         style="fill:#0000ff"
         id="path1692" />
      <path
         d="m 105.04654,99.400871 c 0,-3.026823 -1.78858,-3.630071 -3.67241,-3.630071 h -1.852073 v 7.33423 h 1.979073 c 1.82033,0 3.54541,-0.71967 3.54541,-3.704159 z m -1.78858,0 c 0,1.926159 -0.66675,2.444739 -1.62983,2.444739 h -0.37041 v -4.815398 h 0.37041 c 0.92075,0 1.62983,0.402166 1.62983,2.370659 z"
         style="fill:#0000ff"
         id="path1694" />
      <path
         d="m 109.55501,101.51753 0.381,1.5875 h 1.86266 l -2.24366,-7.33423 h -2.10607 l -2.24366,7.33423 h 1.82032 l 0.381,-1.5875 z m -1.87324,-1.24883 0.79375,-3.249071 0.79374,3.249071 z"
         style="fill:#0000ff"
         id="path1696" />
      <path
         d="m 114.43389,99.400871 c 0,-1.746244 0.58209,-2.942157 2.00025,-4.497902 l -0.96308,-0.878414 c -1.67216,1.439329 -2.73049,3.058574 -2.73049,5.376316 0,2.317739 1.05833,3.936989 2.73049,5.376319 l 0.96308,-0.87842 c -1.524,-1.66157 -2.00025,-2.75165 -2.00025,-4.497899 z"
         style="font-style:normal;font-variant:normal;font-weight:bold;font-stretch:normal;font-family:'Fira Mono';-inkscape-font-specification:'Fira Mono';stroke-width:0.264583px"
         id="path1698" />
      <path
         d="m 120.0642,103.10503 1.06891,-2.10608 1.11125,2.10608 h 1.89441 l -1.93674,-3.01624 1.65099,-2.603496 h -1.77799 l -0.86784,1.799161 -0.89958,-1.799161 h -1.87324 l 1.74624,2.666996 -1.92616,2.95274 z"
         style="fill:#800000"
         id="path1700" />
      <path
         d="m 127.54657,100.92487 c -0.65616,0 -1.14299,0.49741 -1.14299,1.13241 0,0.40216 0.17991,0.75141 0.49741,0.9525 l -0.53975,2.24366 h 1.12183 l 0.762,-1.72508 c 0.30692,-0.68792 0.45508,-1.03717 0.45508,-1.4605 0,-0.64558 -0.48683,-1.14299 -1.15358,-1.14299 z"
         style="font-style:normal;font-variant:normal;font-weight:bold;font-stretch:normal;font-family:'Fira Mono';-inkscape-font-specification:'Fira Mono';stroke-width:0.264583px"
         id="path1702" />
      <path
         d="m 135.03953,95.072302 c -1.524,0 -2.32833,0.846664 -2.32833,1.95791 v 0.804331 h -1.18533 v 1.164163 h 1.18533 v 4.106324 h 1.66158 v -4.106324 h 1.64041 l 0.1905,-1.164163 h -1.83091 v -0.751414 c 0,-0.550332 0.26458,-0.772581 0.93133,-0.772581 0.40217,0 0.81492,0.0635 1.19591,0.211666 l 0.46567,-1.09008 c -0.49742,-0.211666 -1.10066,-0.359832 -1.92616,-0.359832 z"
         style="fill:#800000"
         id="path1704" />
      <path
         d="m 140.2465,100.92487 c -0.65616,0 -1.143,0.49741 -1.143,1.13241 0,0.40216 0.17992,0.75141 0.49742,0.9525 l -0.53975,2.24366 h 1.12183 l 0.762,-1.72508 c 0.30691,-0.68792 0.45508,-1.03717 0.45508,-1.4605 0,-0.64558 -0.48683,-1.14299 -1.15358,-1.14299 z"
         style="font-style:normal;font-variant:normal;font-weight:bold;font-stretch:normal;font-family:'Fira Mono';-inkscape-font-specification:'Fira Mono';stroke-width:0.264583px"
         id="path1706" />
      <path
         d="m 149.46453,97.485294 h -1.69332 l -1.143,4.339156 -1.09008,-4.339156 h -1.80974 l 1.89441,5.619736 h 1.96849 z"
         style="fill:#800000"
         id="path1708" />
      <path
         d="m 153.35918,99.400871 c 0,1.746249 -0.47625,2.836329 -2.00025,4.497899 l 0.96308,0.87842 c 1.67217,-1.43933 2.7305,-3.05858 2.7305,-5.376319 0,-2.317742 -1.05833,-3.936987 -2.7305,-5.376316 l -0.96308,0.878414 c 1.41817,1.555745 2.00025,2.751658 2.00025,4.497902 z"
         style="font-style:normal;font-variant:normal;font-weight:bold;font-stretch:normal;font-family:'Fira Mono';-inkscape-font-specification:'Fira Mono';stroke-width:0.264583px"
         id="path1710" />
      <path
         d="m 168.48268,100.95662 c 0,-1.344083 -0.81491,-1.936747 -2.21191,-2.360079 -1.16416,-0.359833 -1.49224,-0.550332 -1.49224,-1.015997 0,-0.476249 0.43391,-0.719665 1.09008,-0.719665 0.59266,0 1.18533,0.201083 1.68274,0.613832 l 0.81491,-0.941914 c -0.63499,-0.603248 -1.50282,-0.952497 -2.62465,-0.952497 -1.524,0 -2.76224,0.783164 -2.76224,2.137827 0,1.111246 0.64558,1.756827 2.37065,2.285993 1.016,0.30692 1.32292,0.56091 1.32292,1.09008 0,0.5715 -0.48683,0.89958 -1.21708,0.89958 -0.78317,0 -1.43933,-0.26458 -1.97908,-0.74083 l -0.87841,0.97366 c 0.61383,0.60325 1.51341,1.05833 2.89982,1.05833 1.87324,0 2.98449,-0.95249 2.98449,-2.32832 z"
         style="fill:#008000"
         id="path1712" />
      <path
         d="m 174.37756,95.7708 h -4.76249 v 1.269996 h 1.51342 v 4.783654 h -1.51342 v 1.28058 h 4.76249 v -1.28058 h -1.51341 v -4.783654 h 1.51341 z"
         style="fill:#008000"
         id="path1714" />
      <path
         d="m 176.15553,103.10503 h 4.74132 l 0.16934,-1.37583 h -3.17499 v -5.9584 h -1.73567 z"
         style="fill:#008000"
         id="path1716" />
      <path
         d="m 184.24116,97.009046 h 2.87865 l 0.17992,-1.238246 h -4.79424 v 7.33423 h 4.79424 v -1.24883 h -3.05857 v -1.873247 h 2.53999 v -1.206496 h -2.53999 z"
         style="fill:#008000"
         id="path1718" />
      <path
         d="m 191.5648,103.10503 h 2.10607 V 95.7708 h -1.47108 v 2.804574 c 0,1.322912 0.14817,2.391826 0.254,3.069156 l -1.86266,-5.87373 h -2.16957 v 7.33423 h 1.47107 v -2.76224 c 0,-1.291168 -0.16933,-2.508247 -0.254,-3.132662 z"
         style="fill:#008000"
         id="path1720" />
      <path
         d="m 198.25342,97.104295 h 1.96849 l 0.16934,-1.333495 h -5.93723 v 1.333495 h 2.06374 v 6.000735 h 1.73566 z"
         style="fill:#008000"
         id="path1722" />
      <path
         d="m 203.33339,99.400871 c 0,-1.746244 0.58208,-2.942157 2.00024,-4.497902 l -0.96308,-0.878414 c -1.67216,1.439329 -2.73049,3.058574 -2.73049,5.376316 0,2.317739 1.05833,3.936989 2.73049,5.376319 l 0.96308,-0.87842 c -1.524,-1.66157 -2.00024,-2.75165 -2.00024,-4.497899 z"
         style="font-style:normal;font-variant:normal;font-weight:bold;font-stretch:normal;font-family:'Fira Mono';-inkscape-font-specification:'Fira Mono';stroke-width:0.264583px"
         id="path1724" />
      <path
         d="m 40.668491,111.65011 h 0.793747 v -1.11124 h -0.645581 l 0.201083,-1.50283 h -1.375829 l -0.201083,1.50283 h -1.015997 l 0.201083,-1.50283 h -1.386412 l -0.1905,1.50283 h -0.814914 v 1.11124 h 0.666748 l -0.275166,2.08491 h -0.783164 v 1.10067 h 0.634998 l -0.190499,1.53457 h 1.375829 l 0.201082,-1.53457 h 1.015997 l -0.201082,1.53457 h 1.375828 l 0.201083,-1.53457 h 0.814914 v -1.10067 h -0.666748 z m -2.666992,2.08491 0.275166,-2.08491 h 1.015997 l -0.275166,2.08491 z"
         style="fill:#800080"
         id="path1726" />
      <path
         d="m 44.986461,107.80837 c -0.582082,0 -0.994831,0.41275 -0.994831,0.94192 0,0.53975 0.412749,0.94191 0.994831,0.94191 0.582081,0 0.984246,-0.40216 0.984246,-0.94191 0,-0.52917 -0.402165,-0.94192 -0.984246,-0.94192 z m 1.005413,2.94216 h -3.20674 v 1.143 h 1.534579 v 3.33374 h -1.587495 v 1.14299 h 4.698985 v -1.14299 h -1.439329 z"
         style="fill:#800080"
         id="path1728" />
      <path
         d="m 52.490004,108.33754 c -1.523995,0 -2.328326,0.84666 -2.328326,1.95791 v 0.80433 h -1.185329 v 1.16416 h 1.185329 v 4.10632 h 1.661578 v -4.10632 h 1.640412 l 0.190499,-1.16416 h -1.830911 v -0.75141 c 0,-0.55034 0.264583,-0.77258 0.931331,-0.77258 0.402165,0 0.814914,0.0635 1.195913,0.21166 l 0.465665,-1.09008 c -0.497415,-0.21166 -1.100663,-0.35983 -1.926161,-0.35983 z"
         style="fill:#800080"
         id="path1730" />
      <path
         d="m 55.262813,116.37026 h 1.672162 v -3.9264 c 0.317498,-0.40217 0.624414,-0.64558 0.984246,-0.64558 0.412749,0 0.539749,0.23283 0.539749,0.93133 v 3.64065 h 1.672161 v -4.12748 c 0,-1.06892 -0.582081,-1.68275 -1.545162,-1.68275 -0.719664,0 -1.248829,0.27517 -1.746244,0.83608 l -0.116416,-0.64558 h -1.460496 z"
         style="fill:#800080"
         id="path1732" />
      <path
         d="m 63.062687,114.05252 h 3.640656 c 0.02117,-0.16933 0.03175,-0.41275 0.03175,-0.60325 0,-1.80974 -1.02658,-2.88924 -2.635241,-2.88924 -1.767411,0 -2.741075,1.34408 -2.741075,3.00566 0,1.74624 0.99483,2.98449 2.920991,2.98449 0.952497,0 1.714494,-0.3175 2.243659,-0.77258 l -0.666747,-0.91016 c -0.444499,0.28574 -0.931331,0.46566 -1.439329,0.46566 -0.719665,0 -1.238246,-0.35983 -1.354663,-1.28058 z m 1.037164,-2.37066 c 0.709081,0 0.99483,0.53975 1.005413,1.35466 h -2.063743 c 0.07408,-0.93133 0.465665,-1.35466 1.05833,-1.35466 z"
         style="fill:#800080"
         id="path1734" />
      <path
         d="m 69.92065,110.56003 c -1.439329,0 -2.254243,1.24883 -2.254243,2.98449 0,1.82033 0.613832,3.00566 2.05316,3.00566 0.666748,0 1.111247,-0.26458 1.439329,-0.65616 v 2.64582 l 1.672161,0.17992 v -7.96923 h -1.460495 l -0.07408,0.45508 c -0.338666,-0.42333 -0.825497,-0.64558 -1.375829,-0.64558 z m 0.433915,1.22766 c 0.338666,0 0.582082,0.16934 0.804331,0.46567 v 2.42358 c -0.232833,0.40216 -0.518582,0.63499 -0.910164,0.63499 -0.518581,0 -0.857247,-0.37041 -0.857247,-1.75682 0,-1.25942 0.349249,-1.76742 0.96308,-1.76742 z"
         style="fill:#800080"
         id="path1736" />
      <path
         d="m 82.684078,112.66611 c 0,-1.74625 0.582082,-2.94216 2.000244,-4.4979 l -0.963081,-0.87842 c -1.672161,1.43933 -2.730491,3.05858 -2.730491,5.37632 0,2.31774 1.05833,3.93699 2.730491,5.37631 l 0.963081,-0.87841 c -1.523995,-1.66158 -2.000244,-2.75166 -2.000244,-4.4979 z"
         style="font-style:normal;font-variant:normal;font-weight:bold;font-stretch:normal;font-family:'Fira Mono';-inkscape-font-specification:'Fira Mono';stroke-width:0.264583px"
         id="path1738" />
      <path
         d="m 92.314865,110.75053 h -1.693328 l -1.142996,4.33915 -1.09008,-4.33915 h -1.809744 l 1.89441,5.61973 h 1.968494 z"
         style="fill:#800000"
         id="path1740" />
      <path
         d="m 96.209504,112.66611 c 0,1.74624 -0.476249,2.83632 -2.000244,4.4979 l 0.96308,0.87841 c 1.672162,-1.43932 2.730492,-3.05857 2.730492,-5.37631 0,-2.31774 -1.05833,-3.93699 -2.730492,-5.37632 l -0.96308,0.87842 c 1.418162,1.55574 2.000244,2.75165 2.000244,4.4979 z"
         style="font-style:normal;font-variant:normal;font-weight:bold;font-stretch:normal;font-family:'Fira Mono';-inkscape-font-specification:'Fira Mono';stroke-width:0.264583px"
         id="path1742" />
      <path
         d="m 108.08393,112.66611 c 0,-1.74625 0.58209,-2.94216 2.00025,-4.4979 l -0.96308,-0.87842 c -1.67216,1.43933 -2.73049,3.05858 -2.73049,5.37632 0,2.31774 1.05833,3.93699 2.73049,5.37631 l 0.96308,-0.87841 c -1.524,-1.66158 -2.00025,-2.75166 -2.00025,-4.4979 z"
         style="font-style:normal;font-variant:normal;font-weight:bold;font-stretch:normal;font-family:'Fira Mono';-inkscape-font-specification:'Fira Mono';stroke-width:0.264583px"
         id="path1744" />
      <path
         d="m 115.25939,112.66611 c 0,1.74624 -0.47625,2.83632 -2.00024,4.4979 l 0.96308,0.87841 c 1.67216,-1.43932 2.73049,-3.05857 2.73049,-5.37631 0,-2.31774 -1.05833,-3.93699 -2.73049,-5.37632 l -0.96308,0.87842 c 1.41816,1.55574 2.00024,2.75165 2.00024,4.4979 z"
         style="font-style:normal;font-variant:normal;font-weight:bold;font-stretch:normal;font-family:'Fira Mono';-inkscape-font-specification:'Fira Mono';stroke-width:0.264583px"
         id="path1746" />
      <path
         d="m 40.668491,124.91535 h 0.793747 v -1.11125 h -0.645581 l 0.201083,-1.50283 h -1.375829 l -0.201083,1.50283 h -1.015997 l 0.201083,-1.50283 h -1.386412 l -0.1905,1.50283 h -0.814914 v 1.11125 h 0.666748 l -0.275166,2.08491 h -0.783164 v 1.10066 h 0.634998 l -0.190499,1.53458 h 1.375829 l 0.201082,-1.53458 h 1.015997 l -0.201082,1.53458 h 1.375828 l 0.201083,-1.53458 h 0.814914 v -1.10066 h -0.666748 z m -2.666992,2.08491 0.275166,-2.08491 h 1.015997 l -0.275166,2.08491 z"
         style="fill:#800080"
         id="path1748" />
      <path
         d="m 45.759041,121.60278 v 2.75165 c -0.338665,-0.34924 -0.77258,-0.52916 -1.269996,-0.52916 -1.386412,0 -2.243659,1.24883 -2.243659,2.98449 0,1.80974 0.666748,3.00566 2.063743,3.00566 0.740831,0 1.24883,-0.35984 1.555745,-0.79375 l 0.08467,0.61383 h 1.481662 v -7.85281 z m -0.825497,3.45015 c 0.349249,0 0.592665,0.16933 0.825497,0.46567 v 2.42357 c -0.243416,0.40217 -0.539748,0.64558 -0.920747,0.64558 -0.507998,0 -0.86783,-0.38099 -0.86783,-1.76741 0,-1.25941 0.380999,-1.76741 0.96308,-1.76741 z"
         style="fill:#800080"
         id="path1750" />
      <path
         d="m 50.362761,127.31776 h 3.640655 c 0.02117,-0.16933 0.03175,-0.41275 0.03175,-0.60325 0,-1.80974 -1.02658,-2.88924 -2.635242,-2.88924 -1.767411,0 -2.741074,1.34408 -2.741074,3.00566 0,1.74624 0.99483,2.98449 2.920991,2.98449 0.952497,0 1.714494,-0.3175 2.243659,-0.77258 l -0.666748,-0.91017 c -0.444498,0.28575 -0.93133,0.46567 -1.439329,0.46567 -0.719664,0 -1.238246,-0.35983 -1.354662,-1.28058 z m 1.037163,-2.37066 c 0.709082,0 0.994831,0.53975 1.005414,1.35466 h -2.063744 c 0.07408,-0.93133 0.465666,-1.35466 1.05833,-1.35466 z"
         style="fill:#800080"
         id="path1752" />
      <path
         d="m 58.839968,121.60278 c -1.523995,0 -2.328325,0.84666 -2.328325,1.95791 v 0.80433 h -1.18533 v 1.16416 h 1.18533 v 4.10632 h 1.661578 v -4.10632 h 1.640411 l 0.190499,-1.16416 h -1.83091 v -0.75142 c 0,-0.55033 0.264582,-0.77258 0.93133,-0.77258 0.402165,0 0.814914,0.0635 1.195913,0.21167 l 0.465665,-1.09008 c -0.497415,-0.21167 -1.100663,-0.35983 -1.926161,-0.35983 z"
         style="fill:#800080"
         id="path1754" />
      <path
         d="m 64.036351,121.07361 c -0.582081,0 -0.99483,0.41275 -0.99483,0.94192 0,0.53974 0.412749,0.94191 0.99483,0.94191 0.582081,0 0.984247,-0.40217 0.984247,-0.94191 0,-0.52917 -0.402166,-0.94192 -0.984247,-0.94192 z m 1.005413,2.94216 h -3.206739 v 1.143 h 1.534578 v 3.33373 h -1.587495 v 1.143 h 4.698985 v -1.143 h -1.439329 z"
         style="fill:#800080"
         id="path1756" />
      <path
         d="m 67.96274,129.6355 h 1.672161 v -3.9264 c 0.317499,-0.40217 0.624415,-0.64558 0.984247,-0.64558 0.412748,0 0.539748,0.23283 0.539748,0.93133 v 3.64065 h 1.672161 v -4.12749 c 0,-1.06891 -0.582081,-1.68274 -1.545161,-1.68274 -0.719665,0 -1.24883,0.27517 -1.746245,0.83608 l -0.116416,-0.64558 H 67.96274 Z"
         style="fill:#800080"
         id="path1758" />
      <path
         d="m 75.762616,127.31776 h 3.640655 c 0.02117,-0.16933 0.03175,-0.41275 0.03175,-0.60325 0,-1.80974 -1.02658,-2.88924 -2.635242,-2.88924 -1.767411,0 -2.741075,1.34408 -2.741075,3.00566 0,1.74624 0.994831,2.98449 2.920991,2.98449 0.952497,0 1.714495,-0.3175 2.24366,-0.77258 l -0.666748,-0.91017 c -0.444499,0.28575 -0.931331,0.46567 -1.439329,0.46567 -0.719664,0 -1.238246,-0.35983 -1.354662,-1.28058 z m 1.037163,-2.37066 c 0.709081,0 0.99483,0.53975 1.005414,1.35466 h -2.063744 c 0.07408,-0.93133 0.465665,-1.35466 1.05833,-1.35466 z"
         style="fill:#800080"
         id="path1760" />
      <path
         d="m 90.304038,123.63477 h 1.968494 l 0.169333,-1.3335 h -5.937231 v 1.3335 h 2.063743 v 6.00073 h 1.735661 z"
         style="fill:#0000ff"
         id="path1762" />
      <path
         d="m 95.341673,123.53952 h 2.878658 l 0.179916,-1.23825 h -4.794235 v 7.33423 h 4.794235 v -1.24883 h -3.058574 v -1.87324 h 2.539992 v -1.2065 h -2.539992 z"
         style="fill:#0000ff"
         id="path1764" />
      <path
         d="m 104.72904,122.30127 h -1.78858 l -0.77258,4.74132 -0.81491,-4.74132 h -1.78858 l -0.412748,7.33423 h 1.492248 l 0.0529,-3.11149 c 0.0212,-1.17475 -0.0212,-1.82033 -0.10583,-2.75166 l 0.89958,4.61432 h 1.31233 l 0.8255,-4.61432 c -0.0741,0.98425 -0.127,1.56633 -0.0953,2.71991 l 0.0847,3.14324 h 1.524 z"
         style="fill:#0000ff"
         id="path1766" />
      <path
         d="m 111.41767,124.6931 c 0,-1.60866 -1.13241,-2.39183 -3.13265,-2.39183 h -2.30716 v 7.33423 h 1.73566 v -2.44474 h 0.80433 c 1.72508,0 2.89982,-0.79375 2.89982,-2.49766 z m -1.77799,0 c 0,0.86783 -0.46567,1.24883 -1.23825,1.24883 h -0.68791 v -2.40241 h 0.60325 c 0.87841,0 1.32291,0.37042 1.32291,1.15358 z"
         style="fill:#0000ff"
         id="path1768" />
      <path
         d="m 114.55031,122.11077 c -1.00541,0 -1.84149,0.34925 -2.50824,0.99484 l 0.85725,0.88899 c 0.41275,-0.39158 0.87841,-0.635 1.46049,-0.635 0.635,0 1.06892,0.33867 1.06892,0.889 0,0.635 -0.45509,0.96308 -1.11125,0.96308 h -0.46567 l -0.1905,1.143 h 0.66675 c 0.78317,0 1.23825,0.32808 1.23825,1.10066 0,0.6985 -0.508,1.0795 -1.23825,1.0795 -0.5715,0 -1.10066,-0.21167 -1.52399,-0.6985 l -0.94192,0.87841 c 0.61383,0.6985 1.49225,1.10067 2.58233,1.10067 1.75683,0 2.83632,-1.00542 2.83632,-2.24366 0,-1.18533 -0.71966,-1.68275 -1.73566,-1.82033 0.91017,-0.26458 1.50283,-0.8255 1.50283,-1.75683 0,-1.02658 -0.92075,-1.88383 -2.49766,-1.88383 z"
         style="fill:#0000ff"
         id="path1770" />
      <path
         d="m 120.78386,125.93135 c 0,-1.74625 0.58208,-2.94216 2.00025,-4.49791 l -0.96308,-0.87841 c -1.67217,1.43933 -2.7305,3.05857 -2.7305,5.37632 0,2.31774 1.05833,3.93698 2.7305,5.37631 l 0.96308,-0.87841 c -1.524,-1.66158 -2.00025,-2.75166 -2.00025,-4.4979 z"
         style="font-style:normal;font-variant:normal;font-weight:bold;font-stretch:normal;font-family:'Fira Mono';-inkscape-font-specification:'Fira Mono';stroke-width:0.264583px"
         id="path1772" />
      <path
         d="m 129.84315,128.01626 v -2.20133 c 0,-1.29116 -0.78317,-1.98966 -2.45533,-1.98966 -0.62441,0 -1.46049,0.14817 -2.19074,0.42333 l 0.381,1.11125 c 0.56091,-0.1905 1.18533,-0.29633 1.54516,-0.29633 0.71966,0 1.11125,0.27516 1.11125,0.86783 v 0.20108 h -0.75142 c -1.73566,0 -2.74107,0.6985 -2.74107,1.91558 0,1.03716 0.74083,1.76741 1.90499,1.76741 0.6985,0 1.40758,-0.24342 1.8415,-0.762 0.26458,0.46566 0.71966,0.67733 1.37582,0.74083 l 0.34925,-1.10066 c -0.26458,-0.0952 -0.37041,-0.254 -0.37041,-0.67733 z m -2.62466,0.60324 c -0.47625,0 -0.75141,-0.254 -0.75141,-0.68791 0,-0.55033 0.42333,-0.84666 1.35466,-0.84666 h 0.41275 v 0.92074 c -0.21167,0.39158 -0.65617,0.61383 -1.016,0.61383 z"
         style="fill:#800000"
         id="path1774" />
      <path
         d="m 133.89653,127.45534 c -0.65616,0 -1.14299,0.49742 -1.14299,1.13241 0,0.40217 0.17991,0.75142 0.49741,0.9525 l -0.53975,2.24366 h 1.12183 l 0.762,-1.72508 c 0.30692,-0.68791 0.45508,-1.03716 0.45508,-1.46049 0,-0.64558 -0.48683,-1.143 -1.15358,-1.143 z"
         style="font-style:normal;font-variant:normal;font-weight:bold;font-stretch:normal;font-family:'Fira Mono';-inkscape-font-specification:'Fira Mono';stroke-width:0.264583px"
         id="path1776" />
      <path
         d="m 139.4845,124.58727 v -2.98449 l -1.67216,0.17991 v 7.85281 h 1.48166 l 0.0635,-0.508 c 0.32809,0.4445 0.8255,0.68792 1.38642,0.68792 1.46049,0 2.25424,-1.27 2.25424,-3.00566 0,-1.83091 -0.635,-2.98449 -2.07433,-2.98449 -0.5715,0 -1.09008,0.29633 -1.43933,0.762 z m 0.8255,4.01107 c -0.35983,0 -0.61383,-0.17992 -0.8255,-0.508 v -2.37066 c 0.24342,-0.41275 0.52917,-0.65616 0.91017,-0.65616 0.52916,0 0.87841,0.37041 0.87841,1.76741 0,1.26999 -0.37042,1.76741 -0.96308,1.76741 z"
         style="fill:#800000"
         id="path1778" />
      <path
         d="m 146.59646,127.45534 c -0.65616,0 -1.143,0.49742 -1.143,1.13241 0,0.40217 0.17992,0.75142 0.49742,0.9525 l -0.53975,2.24366 h 1.12183 l 0.762,-1.72508 c 0.30691,-0.68791 0.45508,-1.03716 0.45508,-1.46049 0,-0.64558 -0.48683,-1.143 -1.15358,-1.143 z"
         style="font-style:normal;font-variant:normal;font-weight:bold;font-stretch:normal;font-family:'Fira Mono';-inkscape-font-specification:'Fira Mono';stroke-width:0.264583px"
         id="path1780" />
      <path
         d="m 153.49676,128.4925 c -0.71966,0 -1.24883,-0.38099 -1.24883,-1.62982 0,-1.27 0.49742,-1.74625 1.25941,-1.74625 0.45509,0 0.87842,0.15875 1.25942,0.42333 l 0.71966,-1.00541 c -0.56091,-0.46566 -1.2065,-0.70908 -2.05316,-0.70908 -1.80974,0 -2.93157,1.28058 -2.93157,3.03741 0,1.75682 1.07949,2.95274 2.89982,2.95274 0.86783,0 1.5875,-0.3175 2.08491,-0.74083 l -0.74083,-1.05833 c -0.40217,0.27516 -0.79375,0.47624 -1.24883,0.47624 z"
         style="fill:#800000"
         id="path1782" />
      <path
         d="m 159.70915,125.93135 c 0,1.74624 -0.47625,2.83632 -2.00025,4.4979 l 0.96308,0.87841 c 1.67216,-1.43933 2.73049,-3.05857 2.73049,-5.37631 0,-2.31775 -1.05833,-3.93699 -2.73049,-5.37632 l -0.96308,0.87841 c 1.41816,1.55575 2.00025,2.75166 2.00025,4.49791 z"
         style="font-style:normal;font-variant:normal;font-weight:bold;font-stretch:normal;font-family:'Fira Mono';-inkscape-font-specification:'Fira Mono';stroke-width:0.264583px"
         id="path1784" />
      <path
         d="m 171.54124,123.53952 h 2.87865 l 0.17992,-1.23825 h -4.79424 v 7.33423 h 4.79424 v -1.24883 h -3.05857 v -1.87324 h 2.53999 v -1.2065 h -2.53999 z"
         style="fill:#008000"
         id="path1786" />
      <path
         d="m 178.37803,128.28084 -1.36525,-5.97957 h -1.84149 l 2.10607,7.33423 h 2.13783 l 2.11666,-7.33423 h -1.77799 z"
         style="fill:#008000"
         id="path1788" />
      <path
         d="m 185.75457,128.04801 0.381,1.58749 h 1.86266 l -2.24366,-7.33423 h -2.10608 l -2.24366,7.33423 h 1.82033 l 0.381,-1.58749 z m -1.87325,-1.24883 0.79375,-3.24908 0.79375,3.24908 z"
         style="fill:#008000"
         id="path1790" />
      <path
         d="m 188.85547,129.6355 h 4.74132 l 0.16933,-1.37583 h -3.17499 v -5.9584 h -1.73566 z"
         style="fill:#008000"
         id="path1792" />
      <path
         d="m 196.98342,125.93135 c 0,-1.74625 0.58209,-2.94216 2.00025,-4.49791 l -0.96308,-0.87841 c -1.67216,1.43933 -2.73049,3.05857 -2.73049,5.37632 0,2.31774 1.05833,3.93698 2.73049,5.37631 l 0.96308,-0.87841 c -1.524,-1.66158 -2.00025,-2.75166 -2.00025,-4.4979 z"
         style="font-style:normal;font-variant:normal;font-weight:bold;font-stretch:normal;font-family:'Fira Mono';-inkscape-font-specification:'Fira Mono';stroke-width:0.264583px"
         id="path1794" />
      <path
         d="m 206.04271,128.01626 v -2.20133 c 0,-1.29116 -0.78316,-1.98966 -2.45533,-1.98966 -0.62441,0 -1.46049,0.14817 -2.19074,0.42333 l 0.381,1.11125 c 0.56092,-0.1905 1.18533,-0.29633 1.54516,-0.29633 0.71967,0 1.11125,0.27516 1.11125,0.86783 v 0.20108 h -0.75142 c -1.73566,0 -2.74107,0.6985 -2.74107,1.91558 0,1.03716 0.74083,1.76741 1.90499,1.76741 0.6985,0 1.40758,-0.24342 1.8415,-0.762 0.26458,0.46566 0.71966,0.67733 1.37583,0.74083 l 0.34925,-1.10066 c -0.26459,-0.0952 -0.37042,-0.254 -0.37042,-0.67733 z m -2.62466,0.60324 c -0.47625,0 -0.75141,-0.254 -0.75141,-0.68791 0,-0.55033 0.42333,-0.84666 1.35466,-0.84666 h 0.41275 v 0.92074 c -0.21167,0.39158 -0.65617,0.61383 -1.016,0.61383 z"
         style="fill:#800000"
         id="path1796" />
      <path
         d="m 210.09609,127.45534 c -0.65616,0 -1.14299,0.49742 -1.14299,1.13241 0,0.40217 0.17991,0.75142 0.49741,0.9525 l -0.53975,2.24366 h 1.12183 l 0.762,-1.72508 c 0.30692,-0.68791 0.45508,-1.03716 0.45508,-1.46049 0,-0.64558 -0.48683,-1.143 -1.15358,-1.143 z"
         style="font-style:normal;font-variant:normal;font-weight:bold;font-stretch:normal;font-family:'Fira Mono';-inkscape-font-specification:'Fira Mono';stroke-width:0.264583px"
         id="path1798" />
      <path
         d="m 215.68407,124.58727 v -2.98449 l -1.67216,0.17991 v 7.85281 h 1.48166 l 0.0635,-0.508 c 0.32809,0.4445 0.8255,0.68792 1.38641,0.68792 1.4605,0 2.25425,-1.27 2.25425,-3.00566 0,-1.83091 -0.635,-2.98449 -2.07433,-2.98449 -0.5715,0 -1.09008,0.29633 -1.43933,0.762 z m 0.8255,4.01107 c -0.35983,0 -0.61383,-0.17992 -0.8255,-0.508 v -2.37066 c 0.24342,-0.41275 0.52917,-0.65616 0.91017,-0.65616 0.52916,0 0.87841,0.37041 0.87841,1.76741 0,1.26999 -0.37042,1.76741 -0.96308,1.76741 z"
         style="fill:#800000"
         id="path1800" />
      <path
         d="m 222.79603,127.45534 c -0.65616,0 -1.143,0.49742 -1.143,1.13241 0,0.40217 0.17992,0.75142 0.49742,0.9525 l -0.53975,2.24366 h 1.12183 l 0.762,-1.72508 c 0.30691,-0.68791 0.45508,-1.03716 0.45508,-1.46049 0,-0.64558 -0.48683,-1.143 -1.15358,-1.143 z"
         style="font-style:normal;font-variant:normal;font-weight:bold;font-stretch:normal;font-family:'Fira Mono';-inkscape-font-specification:'Fira Mono';stroke-width:0.264583px"
         id="path1802" />
      <path
         d="m 229.69632,128.4925 c -0.71966,0 -1.24883,-0.38099 -1.24883,-1.62982 0,-1.27 0.49742,-1.74625 1.25942,-1.74625 0.45508,0 0.87841,0.15875 1.25941,0.42333 l 0.71966,-1.00541 c -0.56091,-0.46566 -1.20649,-0.70908 -2.05316,-0.70908 -1.80974,0 -2.93157,1.28058 -2.93157,3.03741 0,1.75682 1.07949,2.95274 2.89982,2.95274 0.86783,0 1.5875,-0.3175 2.08491,-0.74083 l -0.74083,-1.05833 c -0.40216,0.27516 -0.79375,0.47624 -1.24883,0.47624 z"
         style="fill:#800000"
         id="path1804" />
      <path
         d="m 235.9087,125.93135 c 0,1.74624 -0.47625,2.83632 -2.00024,4.4979 l 0.96308,0.87841 c 1.67216,-1.43933 2.73049,-3.05857 2.73049,-5.37631 0,-2.31775 -1.05833,-3.93699 -2.73049,-5.37632 l -0.96308,0.87841 c 1.41816,1.55575 2.00024,2.75166 2.00024,4.49791 z"
         style="font-style:normal;font-variant:normal;font-weight:bold;font-stretch:normal;font-family:'Fira Mono';-inkscape-font-specification:'Fira Mono';stroke-width:0.264583px"
         id="path1806" />
      <path
         d="m 40.668491,138.18059 h 0.793747 v -1.11125 h -0.645581 l 0.201083,-1.50283 h -1.375829 l -0.201083,1.50283 h -1.015997 l 0.201083,-1.50283 h -1.386412 l -0.1905,1.50283 h -0.814914 v 1.11125 h 0.666748 l -0.275166,2.08491 h -0.783164 v 1.10066 h 0.634998 l -0.190499,1.53458 h 1.375829 l 0.201082,-1.53458 h 1.015997 l -0.201082,1.53458 h 1.375828 l 0.201083,-1.53458 h 0.814914 v -1.10066 h -0.666748 z m -2.666992,2.08491 0.275166,-2.08491 h 1.015997 l -0.275166,2.08491 z"
         style="fill:#800080"
         id="path1808" />
      <path
         d="m 44.012797,140.583 h 3.640655 c 0.02117,-0.16934 0.03175,-0.41275 0.03175,-0.60325 0,-1.80975 -1.02658,-2.88924 -2.635242,-2.88924 -1.767411,0 -2.741074,1.34408 -2.741074,3.00565 0,1.74625 0.99483,2.98449 2.92099,2.98449 0.952497,0 1.714495,-0.31749 2.24366,-0.77258 l -0.666748,-0.91016 c -0.444499,0.28575 -0.93133,0.46566 -1.439329,0.46566 -0.719664,0 -1.238246,-0.35983 -1.354662,-1.28057 z m 1.037163,-2.37066 c 0.709081,0 0.99483,0.53974 1.005414,1.35466 H 43.99163 c 0.07408,-0.93133 0.465666,-1.35466 1.05833,-1.35466 z"
         style="fill:#800080"
         id="path1810" />
      <path
         d="m 51.844423,135.04793 h -3.323156 v 1.143 h 1.650995 v 4.73073 c 0,1.32291 0.613831,2.15899 1.968493,2.15899 0.719665,0 1.24883,-0.16933 1.619245,-0.37041 l -0.391582,-1.12183 c -0.232832,0.0952 -0.507998,0.16933 -0.804331,0.16933 -0.444498,0 -0.719664,-0.16933 -0.719664,-0.62441 z"
         style="fill:#800080"
         id="path1812" />
      <path
         d="m 57.517056,141.88474 c -0.656165,0 -1.217079,-0.254 -1.650995,-0.59266 l -0.83608,0.94191 c 0.571498,0.508 1.407578,0.84666 2.497658,0.84666 1.428746,0 2.656408,-0.62441 2.656408,-1.86266 0,-1.10066 -0.709081,-1.47108 -1.79916,-1.77799 -1.100664,-0.30692 -1.322913,-0.43392 -1.322913,-0.71967 0,-0.29633 0.253999,-0.43391 0.804331,-0.43391 0.539748,0 1.09008,0.1905 1.555745,0.47625 l 0.666748,-0.98425 c -0.550332,-0.40216 -1.269996,-0.68791 -2.27541,-0.68791 -1.576911,0 -2.434159,0.74083 -2.434159,1.74624 0,0.99483 0.709082,1.43933 1.735662,1.7145 1.121829,0.30691 1.333495,0.44449 1.333495,0.80433 0,0.35983 -0.370415,0.52916 -0.93133,0.52916 z"
         style="fill:#800080"
         id="path1814" />
      <path
         d="m 63.062687,140.583 h 3.640656 c 0.02117,-0.16934 0.03175,-0.41275 0.03175,-0.60325 0,-1.80975 -1.02658,-2.88924 -2.635241,-2.88924 -1.767411,0 -2.741075,1.34408 -2.741075,3.00565 0,1.74625 0.99483,2.98449 2.920991,2.98449 0.952497,0 1.714494,-0.31749 2.243659,-0.77258 l -0.666747,-0.91016 c -0.444499,0.28575 -0.931331,0.46566 -1.439329,0.46566 -0.719665,0 -1.238246,-0.35983 -1.354663,-1.28057 z m 1.037164,-2.37066 c 0.709081,0 0.99483,0.53974 1.005413,1.35466 h -2.063743 c 0.07408,-0.93133 0.465665,-1.35466 1.05833,-1.35466 z"
         style="fill:#800080"
         id="path1816" />
      <path
         d="m 40.668491,151.44582 h 0.793747 v -1.11124 h -0.645581 l 0.201083,-1.50283 h -1.375829 l -0.201083,1.50283 h -1.015997 l 0.201083,-1.50283 h -1.386412 l -0.1905,1.50283 h -0.814914 v 1.11124 h 0.666748 l -0.275166,2.08491 h -0.783164 v 1.10067 h 0.634998 l -0.190499,1.53458 h 1.375829 l 0.201082,-1.53458 h 1.015997 l -0.201082,1.53458 h 1.375828 l 0.201083,-1.53458 h 0.814914 v -1.10067 h -0.666748 z m -2.666992,2.08491 0.275166,-2.08491 h 1.015997 l -0.275166,2.08491 z"
         style="fill:#800080"
         id="path1818" />
      <path
         d="m 45.759041,148.13325 v 2.75166 c -0.338665,-0.34925 -0.77258,-0.52917 -1.269996,-0.52917 -1.386412,0 -2.243659,1.24883 -2.243659,2.98449 0,1.80975 0.666748,3.00566 2.063743,3.00566 0.740831,0 1.24883,-0.35983 1.555745,-0.79375 l 0.08467,0.61384 h 1.481662 v -7.85281 z m -0.825497,3.45016 c 0.349249,0 0.592665,0.16933 0.825497,0.46566 v 2.42358 c -0.243416,0.40216 -0.539748,0.64558 -0.920747,0.64558 -0.507998,0 -0.86783,-0.381 -0.86783,-1.76741 0,-1.25941 0.380999,-1.76741 0.96308,-1.76741 z"
         style="fill:#800080"
         id="path1820" />
      <path
         d="m 50.362761,153.84823 h 3.640655 c 0.02117,-0.16933 0.03175,-0.41275 0.03175,-0.60325 0,-1.80974 -1.02658,-2.88924 -2.635242,-2.88924 -1.767411,0 -2.741074,1.34408 -2.741074,3.00566 0,1.74625 0.99483,2.98449 2.920991,2.98449 0.952497,0 1.714494,-0.3175 2.243659,-0.77258 l -0.666748,-0.91016 c -0.444498,0.28575 -0.93133,0.46566 -1.439329,0.46566 -0.719664,0 -1.238246,-0.35983 -1.354662,-1.28058 z m 1.037163,-2.37066 c 0.709082,0 0.994831,0.53975 1.005414,1.35467 h -2.063744 c 0.07408,-0.93133 0.465666,-1.35467 1.05833,-1.35467 z"
         style="fill:#800080"
         id="path1822" />
      <path
         d="m 58.839968,148.13325 c -1.523995,0 -2.328325,0.84667 -2.328325,1.95791 v 0.80433 h -1.18533 v 1.16417 h 1.18533 v 4.10632 h 1.661578 v -4.10632 h 1.640411 l 0.190499,-1.16417 h -1.83091 v -0.75141 c 0,-0.55033 0.264582,-0.77258 0.93133,-0.77258 0.402165,0 0.814914,0.0635 1.195913,0.21166 l 0.465665,-1.09008 c -0.497415,-0.21166 -1.100663,-0.35983 -1.926161,-0.35983 z"
         style="fill:#800080"
         id="path1824" />
      <path
         d="m 64.036351,147.60409 c -0.582081,0 -0.99483,0.41274 -0.99483,0.94191 0,0.53975 0.412749,0.94191 0.99483,0.94191 0.582081,0 0.984247,-0.40216 0.984247,-0.94191 0,-0.52917 -0.402166,-0.94191 -0.984247,-0.94191 z m 1.005413,2.94215 h -3.206739 v 1.143 h 1.534578 v 3.33374 h -1.587495 v 1.143 h 4.698985 v -1.143 h -1.439329 z"
         style="fill:#800080"
         id="path1826" />
      <path
         d="m 67.96274,156.16598 h 1.672161 v -3.92641 c 0.317499,-0.40216 0.624415,-0.64558 0.984247,-0.64558 0.412748,0 0.539748,0.23283 0.539748,0.93133 v 3.64066 h 1.672161 v -4.12749 c 0,-1.06891 -0.582081,-1.68275 -1.545161,-1.68275 -0.719665,0 -1.24883,0.27517 -1.746245,0.83608 l -0.116416,-0.64558 H 67.96274 Z"
         style="fill:#800080"
         id="path1828" />
      <path
         d="m 75.762616,153.84823 h 3.640655 c 0.02117,-0.16933 0.03175,-0.41275 0.03175,-0.60325 0,-1.80974 -1.02658,-2.88924 -2.635242,-2.88924 -1.767411,0 -2.741075,1.34408 -2.741075,3.00566 0,1.74625 0.994831,2.98449 2.920991,2.98449 0.952497,0 1.714495,-0.3175 2.24366,-0.77258 l -0.666748,-0.91016 c -0.444499,0.28575 -0.931331,0.46566 -1.439329,0.46566 -0.719664,0 -1.238246,-0.35983 -1.354662,-1.28058 z m 1.037163,-2.37066 c 0.709081,0 0.99483,0.53975 1.005414,1.35467 h -2.063744 c 0.07408,-0.93133 0.465665,-1.35467 1.05833,-1.35467 z"
         style="fill:#800080"
         id="path1830" />
      <path
         d="m 90.304038,150.16524 h 1.968494 l 0.169333,-1.33349 h -5.937231 v 1.33349 h 2.063743 v 6.00074 h 1.735661 z"
         style="fill:#0000ff"
         id="path1832" />
      <path
         d="m 95.341673,150.07 h 2.878658 l 0.179916,-1.23825 h -4.794235 v 7.33423 h 4.794235 v -1.24883 h -3.058574 v -1.87325 h 2.539992 v -1.20649 h -2.539992 z"
         style="fill:#0000ff"
         id="path1834" />
      <path
         d="m 104.72904,148.83175 h -1.78858 l -0.77258,4.74132 -0.81491,-4.74132 h -1.78858 l -0.412748,7.33423 h 1.492248 l 0.0529,-3.11149 c 0.0212,-1.17475 -0.0212,-1.82033 -0.10583,-2.75166 l 0.89958,4.61432 h 1.31233 l 0.8255,-4.61432 c -0.0741,0.98424 -0.127,1.56633 -0.0953,2.71991 l 0.0847,3.14324 h 1.524 z"
         style="fill:#0000ff"
         id="path1836" />
      <path
         d="m 111.41767,151.22357 c 0,-1.60866 -1.13241,-2.39182 -3.13265,-2.39182 h -2.30716 v 7.33423 h 1.73566 v -2.44475 h 0.80433 c 1.72508,0 2.89982,-0.79374 2.89982,-2.49766 z m -1.77799,0 c 0,0.86784 -0.46567,1.24883 -1.23825,1.24883 h -0.68791 V 150.07 h 0.60325 c 0.87841,0 1.32291,0.37041 1.32291,1.15357 z"
         style="fill:#0000ff"
         id="path1838" />
      <path
         d="m 114.55031,148.64125 c -1.00541,0 -1.84149,0.34925 -2.50824,0.99483 l 0.85725,0.889 c 0.41275,-0.39159 0.87841,-0.635 1.46049,-0.635 0.635,0 1.06892,0.33866 1.06892,0.889 0,0.63499 -0.45509,0.96308 -1.11125,0.96308 h -0.46567 l -0.1905,1.14299 h 0.66675 c 0.78317,0 1.23825,0.32809 1.23825,1.10067 0,0.69849 -0.508,1.07949 -1.23825,1.07949 -0.5715,0 -1.10066,-0.21166 -1.52399,-0.6985 l -0.94192,0.87842 c 0.61383,0.6985 1.49225,1.10066 2.58233,1.10066 1.75683,0 2.83632,-1.00541 2.83632,-2.24366 0,-1.18533 -0.71966,-1.68274 -1.73566,-1.82033 0.91017,-0.26458 1.50283,-0.82549 1.50283,-1.75682 0,-1.02658 -0.92075,-1.88383 -2.49766,-1.88383 z"
         style="fill:#0000ff"
         id="path1840" />
      <path
         d="m 120.78386,152.46182 c 0,-1.74624 0.58208,-2.94216 2.00025,-4.4979 l -0.96308,-0.87842 c -1.67217,1.43933 -2.7305,3.05858 -2.7305,5.37632 0,2.31774 1.05833,3.93699 2.7305,5.37632 l 0.96308,-0.87842 c -1.524,-1.66157 -2.00025,-2.75165 -2.00025,-4.4979 z"
         style="font-style:normal;font-variant:normal;font-weight:bold;font-stretch:normal;font-family:'Fira Mono';-inkscape-font-specification:'Fira Mono';stroke-width:0.264583px"
         id="path1842" />
      <path
         d="m 129.84315,154.54673 v -2.20133 c 0,-1.29116 -0.78317,-1.98966 -2.45533,-1.98966 -0.62441,0 -1.46049,0.14817 -2.19074,0.42334 l 0.381,1.11124 c 0.56091,-0.1905 1.18533,-0.29633 1.54516,-0.29633 0.71966,0 1.11125,0.27517 1.11125,0.86783 v 0.20108 h -0.75142 c -1.73566,0 -2.74107,0.6985 -2.74107,1.91558 0,1.03716 0.74083,1.76741 1.90499,1.76741 0.6985,0 1.40758,-0.24341 1.8415,-0.762 0.26458,0.46567 0.71966,0.67734 1.37582,0.74084 l 0.34925,-1.10067 c -0.26458,-0.0953 -0.37041,-0.254 -0.37041,-0.67733 z m -2.62466,0.60325 c -0.47625,0 -0.75141,-0.254 -0.75141,-0.68792 0,-0.55033 0.42333,-0.84666 1.35466,-0.84666 h 0.41275 v 0.92075 c -0.21167,0.39158 -0.65617,0.61383 -1.016,0.61383 z"
         style="fill:#800000"
         id="path1844" />
      <path
         d="m 133.89653,153.98582 c -0.65616,0 -1.14299,0.49741 -1.14299,1.13241 0,0.40216 0.17991,0.75141 0.49741,0.9525 l -0.53975,2.24366 h 1.12183 l 0.762,-1.72508 c 0.30692,-0.68792 0.45508,-1.03717 0.45508,-1.4605 0,-0.64558 -0.48683,-1.14299 -1.15358,-1.14299 z"
         style="font-style:normal;font-variant:normal;font-weight:bold;font-stretch:normal;font-family:'Fira Mono';-inkscape-font-specification:'Fira Mono';stroke-width:0.264583px"
         id="path1846" />
      <path
         d="m 139.4845,151.11774 v -2.98449 l -1.67216,0.17992 v 7.85281 h 1.48166 l 0.0635,-0.508 c 0.32809,0.4445 0.8255,0.68791 1.38642,0.68791 1.46049,0 2.25424,-1.26999 2.25424,-3.00566 0,-1.83091 -0.635,-2.98449 -2.07433,-2.98449 -0.5715,0 -1.09008,0.29634 -1.43933,0.762 z m 0.8255,4.01107 c -0.35983,0 -0.61383,-0.17991 -0.8255,-0.508 v -2.37066 c 0.24342,-0.41274 0.52917,-0.65616 0.91017,-0.65616 0.52916,0 0.87841,0.37042 0.87841,1.76741 0,1.27 -0.37042,1.76741 -0.96308,1.76741 z"
         style="fill:#800000"
         id="path1848" />
      <path
         d="m 146.59646,153.98582 c -0.65616,0 -1.143,0.49741 -1.143,1.13241 0,0.40216 0.17992,0.75141 0.49742,0.9525 l -0.53975,2.24366 h 1.12183 l 0.762,-1.72508 c 0.30691,-0.68792 0.45508,-1.03717 0.45508,-1.4605 0,-0.64558 -0.48683,-1.14299 -1.15358,-1.14299 z"
         style="font-style:normal;font-variant:normal;font-weight:bold;font-stretch:normal;font-family:'Fira Mono';-inkscape-font-specification:'Fira Mono';stroke-width:0.264583px"
         id="path1850" />
      <path
         d="m 153.49676,155.02298 c -0.71966,0 -1.24883,-0.381 -1.24883,-1.62983 0,-1.26999 0.49742,-1.74624 1.25941,-1.74624 0.45509,0 0.87842,0.15875 1.25942,0.42333 l 0.71966,-1.00541 c -0.56091,-0.46567 -1.2065,-0.70909 -2.05316,-0.70909 -1.80974,0 -2.93157,1.28058 -2.93157,3.03741 0,1.75683 1.07949,2.95274 2.89982,2.95274 0.86783,0 1.5875,-0.3175 2.08491,-0.74083 l -0.74083,-1.05833 c -0.40217,0.27517 -0.79375,0.47625 -1.24883,0.47625 z"
         style="fill:#ff0000"
         id="path1852" />
      <path
         d="m 159.70915,152.46182 c 0,1.74625 -0.47625,2.83633 -2.00025,4.4979 l 0.96308,0.87842 c 1.67216,-1.43933 2.73049,-3.05858 2.73049,-5.37632 0,-2.31774 -1.05833,-3.93699 -2.73049,-5.37632 l -0.96308,0.87842 c 1.41816,1.55574 2.00025,2.75166 2.00025,4.4979 z"
         style="font-style:normal;font-variant:normal;font-weight:bold;font-stretch:normal;font-family:'Fira Mono';-inkscape-font-specification:'Fira Mono';stroke-width:0.264583px"
         id="path1854" />
      <path
         d="m 169.12824,148.12267 4.43441,9.22864 1.30174,-0.60325 -4.4344,-9.22864 z"
         style="fill:#008000"
         id="path1856" />
      <path
         d="m 176.15553,156.16598 h 4.74132 l 0.16934,-1.37583 h -3.17499 v -5.9584 h -1.73567 z"
         style="fill:#008000"
         id="path1858" />
      <path
         d="m 185.75457,154.57848 0.381,1.5875 h 1.86266 l -2.24366,-7.33423 h -2.10608 l -2.24366,7.33423 h 1.82033 l 0.381,-1.5875 z m -1.87325,-1.24883 0.79375,-3.24907 0.79375,3.24907 z"
         style="fill:#008000"
         id="path1860" />
      <path
         d="m 193.62854,148.83175 h -1.78858 l -0.77258,4.74132 -0.81491,-4.74132 h -1.78858 l -0.41275,7.33423 h 1.49224 l 0.0529,-3.11149 c 0.0212,-1.17475 -0.0212,-1.82033 -0.10583,-2.75166 l 0.89958,4.61432 h 1.31233 l 0.8255,-4.61432 c -0.0741,0.98424 -0.127,1.56633 -0.0953,2.71991 l 0.0847,3.14324 h 1.524 z"
         style="fill:#008000"
         id="path1862" />
      <path
         d="m 200.26425,154.01757 c 0,-1.17475 -0.87842,-1.60867 -1.66158,-1.73567 0.71966,-0.17991 1.34408,-0.69849 1.34408,-1.57691 0,-1.42874 -1.30175,-1.87324 -2.80458,-1.87324 h -2.32832 v 7.33423 h 2.43416 c 1.58749,0 3.01624,-0.45509 3.01624,-2.14841 z m -2.06375,-3.13266 c 0,0.61383 -0.31749,0.87841 -1.05833,0.87841 h -0.59266 v -1.70391 h 0.52916 c 0.77259,0 1.12183,0.24342 1.12183,0.8255 z m 0.27517,3.05857 c 0,0.80433 -0.60325,0.9525 -1.29116,0.9525 h -0.635 v -1.96849 h 0.70908 c 0.74083,0 1.21708,0.254 1.21708,1.01599 z"
         style="fill:#008000"
         id="path1864" />
      <path
         d="m 206.64596,152.46182 c 0,-3.02682 -1.78858,-3.63007 -3.67241,-3.63007 h -1.85207 v 7.33423 h 1.97907 c 1.82033,0 3.54541,-0.71967 3.54541,-3.70416 z m -1.78858,0 c 0,1.92616 -0.66675,2.44474 -1.62983,2.44474 h -0.37041 v -4.8154 h 0.37041 c 0.92075,0 1.62983,0.40217 1.62983,2.37066 z"
         style="fill:#008000"
         id="path1866" />
      <path
         d="m 211.15442,154.57848 0.381,1.5875 h 1.86266 l -2.24366,-7.33423 h -2.10607 l -2.24366,7.33423 h 1.82033 l 0.38099,-1.5875 z m -1.87324,-1.24883 0.79375,-3.24907 0.79375,3.24907 z"
         style="fill:#008000"
         id="path1868" />
      <path
         d="m 216.03332,152.46182 c 0,-1.74624 0.58208,-2.94216 2.00024,-4.4979 l -0.96308,-0.87842 c -1.67216,1.43933 -2.73049,3.05858 -2.73049,5.37632 0,2.31774 1.05833,3.93699 2.73049,5.37632 l 0.96308,-0.87842 c -1.52399,-1.66157 -2.00024,-2.75165 -2.00024,-4.4979 z"
         style="font-style:normal;font-variant:normal;font-weight:bold;font-stretch:normal;font-family:'Fira Mono';-inkscape-font-specification:'Fira Mono';stroke-width:0.264583px"
         id="path1870" />
      <path
         d="m 225.09261,154.54673 v -2.20133 c 0,-1.29116 -0.78317,-1.98966 -2.45533,-1.98966 -0.62441,0 -1.46049,0.14817 -2.19074,0.42334 l 0.381,1.11124 c 0.56091,-0.1905 1.18533,-0.29633 1.54516,-0.29633 0.71966,0 1.11124,0.27517 1.11124,0.86783 v 0.20108 h -0.75141 c -1.73566,0 -2.74107,0.6985 -2.74107,1.91558 0,1.03716 0.74083,1.76741 1.90499,1.76741 0.6985,0 1.40758,-0.24341 1.84149,-0.762 0.26459,0.46567 0.71967,0.67734 1.37583,0.74084 l 0.34925,-1.10067 c -0.26458,-0.0953 -0.37041,-0.254 -0.37041,-0.67733 z m -2.62466,0.60325 c -0.47625,0 -0.75142,-0.254 -0.75142,-0.68792 0,-0.55033 0.42334,-0.84666 1.35467,-0.84666 h 0.41274 v 0.92075 c -0.21166,0.39158 -0.65616,0.61383 -1.01599,0.61383 z"
         style="fill:#800000"
         id="path1872" />
      <path
         d="m 229.14599,153.98582 c -0.65616,0 -1.143,0.49741 -1.143,1.13241 0,0.40216 0.17992,0.75141 0.49742,0.9525 l -0.53975,2.24366 h 1.12183 l 0.762,-1.72508 c 0.30691,-0.68792 0.45508,-1.03717 0.45508,-1.4605 0,-0.64558 -0.48683,-1.14299 -1.15358,-1.14299 z"
         style="font-style:normal;font-variant:normal;font-weight:bold;font-stretch:normal;font-family:'Fira Mono';-inkscape-font-specification:'Fira Mono';stroke-width:0.264583px"
         id="path1874" />
      <path
         d="m 234.73395,151.11774 v -2.98449 l -1.67216,0.17992 v 7.85281 h 1.48166 l 0.0635,-0.508 c 0.32809,0.4445 0.8255,0.68791 1.38642,0.68791 1.46049,0 2.25424,-1.26999 2.25424,-3.00566 0,-1.83091 -0.635,-2.98449 -2.07433,-2.98449 -0.5715,0 -1.09008,0.29634 -1.43933,0.762 z m 0.8255,4.01107 c -0.35983,0 -0.61383,-0.17991 -0.8255,-0.508 v -2.37066 c 0.24342,-0.41274 0.52917,-0.65616 0.91017,-0.65616 0.52916,0 0.87841,0.37042 0.87841,1.76741 0,1.27 -0.37041,1.76741 -0.96308,1.76741 z"
         style="fill:#800000"
         id="path1876" />
      <path
         d="m 242.25866,152.46182 c 0,1.74625 -0.47625,2.83633 -2.00024,4.4979 l 0.96308,0.87842 c 1.67216,-1.43933 2.73049,-3.05858 2.73049,-5.37632 0,-2.31774 -1.05833,-3.93699 -2.73049,-5.37632 l -0.96308,0.87842 c 1.41816,1.55574 2.00024,2.75166 2.00024,4.4979 z"
         style="font-style:normal;font-variant:normal;font-weight:bold;font-stretch:normal;font-family:'Fira Mono';-inkscape-font-specification:'Fira Mono';stroke-width:0.264583px"
         id="path1878" />
      <path
         d="m 40.668491,164.71106 h 0.793747 v -1.11125 h -0.645581 l 0.201083,-1.50282 h -1.375829 l -0.201083,1.50282 h -1.015997 l 0.201083,-1.50282 h -1.386412 l -0.1905,1.50282 h -0.814914 v 1.11125 h 0.666748 l -0.275166,2.08491 h -0.783164 v 1.10066 h 0.634998 l -0.190499,1.53458 h 1.375829 l 0.201082,-1.53458 h 1.015997 l -0.201082,1.53458 h 1.375828 l 0.201083,-1.53458 h 0.814914 v -1.10066 h -0.666748 z m -2.666992,2.08491 0.275166,-2.08491 h 1.015997 l -0.275166,2.08491 z"
         style="fill:#800080"
         id="path1880" />
      <path
         d="m 44.012797,167.11347 h 3.640655 c 0.02117,-0.16933 0.03175,-0.41275 0.03175,-0.60325 0,-1.80974 -1.02658,-2.88924 -2.635242,-2.88924 -1.767411,0 -2.741074,1.34408 -2.741074,3.00566 0,1.74624 0.99483,2.98449 2.92099,2.98449 0.952497,0 1.714495,-0.3175 2.24366,-0.77258 l -0.666748,-0.91017 c -0.444499,0.28575 -0.93133,0.46567 -1.439329,0.46567 -0.719664,0 -1.238246,-0.35983 -1.354662,-1.28058 z m 1.037163,-2.37066 c 0.709081,0 0.99483,0.53975 1.005414,1.35466 H 43.99163 c 0.07408,-0.93133 0.465666,-1.35466 1.05833,-1.35466 z"
         style="fill:#800080"
         id="path1882" />
      <path
         d="m 48.912849,169.43121 h 1.672161 v -3.9264 c 0.317499,-0.40217 0.624415,-0.64558 0.984247,-0.64558 0.412749,0 0.539749,0.23283 0.539749,0.93133 v 3.64065 h 1.672161 v -4.12748 c 0,-1.06892 -0.582082,-1.68275 -1.545162,-1.68275 -0.719664,0 -1.248829,0.27517 -1.746244,0.83608 l -0.116417,-0.64558 h -1.460495 z"
         style="fill:#800080"
         id="path1884" />
      <path
         d="m 58.45897,161.39849 v 2.75166 c -0.338666,-0.34925 -0.772581,-0.52917 -1.269996,-0.52917 -1.386413,0 -2.24366,1.24883 -2.24366,2.98449 0,1.80975 0.666748,3.00566 2.063744,3.00566 0.740831,0 1.248829,-0.35983 1.555745,-0.79375 l 0.08467,0.61383 h 1.481662 v -7.85281 z m -0.825498,3.45015 c 0.349249,0 0.592665,0.16934 0.825498,0.46567 v 2.42358 c -0.243416,0.40216 -0.539749,0.64558 -0.920747,0.64558 -0.507999,0 -0.867831,-0.381 -0.867831,-1.76741 0,-1.25942 0.380999,-1.76742 0.96308,-1.76742 z"
         style="fill:#800080"
         id="path1886" />
      <path
         d="m 64.036351,160.86932 c -0.582081,0 -0.99483,0.41275 -0.99483,0.94192 0,0.53975 0.412749,0.94191 0.99483,0.94191 0.582081,0 0.984247,-0.40216 0.984247,-0.94191 0,-0.52917 -0.402166,-0.94192 -0.984247,-0.94192 z m 1.005413,2.94216 h -3.206739 v 1.143 h 1.534578 v 3.33374 h -1.587495 v 1.14299 h 4.698985 v -1.14299 h -1.439329 z"
         style="fill:#800080"
         id="path1888" />
      <path
         d="m 71.539895,161.39849 c -1.523995,0 -2.328326,0.84666 -2.328326,1.95791 v 0.80433 h -1.18533 v 1.16416 h 1.18533 v 4.10632 h 1.661578 v -4.10632 h 1.640411 l 0.1905,-1.16416 h -1.830911 v -0.75141 c 0,-0.55034 0.264582,-0.77259 0.93133,-0.77259 0.402166,0 0.814914,0.0635 1.195913,0.21167 l 0.465665,-1.09008 c -0.497415,-0.21167 -1.100663,-0.35983 -1.92616,-0.35983 z"
         style="fill:#800080"
         id="path1890" />
      <path
         d="m 39.059829,178.9923 c 0,1.74624 -0.476248,2.83632 -2.000243,4.4979 l 0.96308,0.87841 c 1.672161,-1.43933 2.730491,-3.05857 2.730491,-5.37631 0,-2.31775 -1.05833,-3.93699 -2.730491,-5.37632 l -0.96308,0.87841 c 1.418162,1.55575 2.000243,2.75166 2.000243,4.49791 z"
         style="font-style:normal;font-variant:normal;font-weight:bold;font-stretch:normal;font-family:'Fira Mono';-inkscape-font-specification:'Fira Mono';stroke-width:0.264583px"
         id="path1892" />
      <path
         d="m 45.854291,176.69572 h 1.968494 l 0.169333,-1.3335 h -5.937231 v 1.3335 h 2.063743 v 6.00073 h 1.735661 z"
         style="fill:#008000"
         id="path1894" />
      <path
         d="m 50.891926,176.60047 h 2.878658 l 0.179916,-1.23825 h -4.794235 v 7.33423 H 53.9505 v -1.24883 h -3.058574 v -1.87324 h 2.539992 v -1.2065 h -2.539992 z"
         style="fill:#008000"
         id="path1896" />
      <path
         d="M 60.279297,175.36222 H 58.49072 l -0.772581,4.74132 -0.814914,-4.74132 h -1.788578 l -0.412749,7.33423 h 1.492246 l 0.05292,-3.11149 c 0.02117,-1.17475 -0.02117,-1.82033 -0.105833,-2.75166 l 0.899581,4.61432 h 1.312329 l 0.825497,-4.61432 c -0.07408,0.98425 -0.127,1.56633 -0.09525,2.71991 l 0.08467,3.14324 h 1.523995 z"
         style="fill:#008000"
         id="path1898" />
      <path
         d="m 66.967925,177.75405 c 0,-1.60866 -1.132413,-2.39183 -3.132657,-2.39183 h -2.307159 v 7.33423 h 1.735661 v -2.44474 h 0.804331 c 1.725078,0 2.899824,-0.79375 2.899824,-2.49766 z m -1.777994,0 c 0,0.86783 -0.465666,1.24883 -1.238246,1.24883 H 63.26377 v -2.40241 h 0.603248 c 0.878414,0 1.322913,0.37042 1.322913,1.15358 z"
         style="fill:#008000"
         id="path1900" />
      <path
         d="m 70.100566,175.17172 c -1.005413,0 -1.841494,0.34925 -2.508242,0.99483 l 0.857247,0.889 c 0.412749,-0.39158 0.878414,-0.635 1.460496,-0.635 0.634998,0 1.068913,0.33867 1.068913,0.889 0,0.635 -0.455082,0.96308 -1.111247,0.96308 h -0.465665 l -0.190499,1.143 h 0.666748 c 0.783164,0 1.238246,0.32808 1.238246,1.10066 0,0.6985 -0.507999,1.0795 -1.238246,1.0795 -0.571498,0 -1.100663,-0.21167 -1.523995,-0.6985 l -0.941914,0.87841 c 0.613831,0.6985 1.492245,1.10067 2.582325,1.10067 1.756828,0 2.836324,-1.00542 2.836324,-2.24366 0,-1.18533 -0.719664,-1.68275 -1.735661,-1.82033 0.910164,-0.26458 1.502829,-0.8255 1.502829,-1.75683 0,-1.02658 -0.920747,-1.88383 -2.497659,-1.88383 z"
         style="fill:#008000"
         id="path1902" />
      <path
         d="m 76.334114,178.9923 c 0,-1.74625 0.582081,-2.94216 2.000244,-4.49791 l -0.963081,-0.87841 c -1.672161,1.43933 -2.730491,3.05857 -2.730491,5.37632 0,2.31774 1.05833,3.93698 2.730491,5.37631 l 0.963081,-0.87841 c -1.523996,-1.66158 -2.000244,-2.75166 -2.000244,-4.4979 z"
         style="font-style:normal;font-variant:normal;font-weight:bold;font-stretch:normal;font-family:'Fira Mono';-inkscape-font-specification:'Fira Mono';stroke-width:0.264583px"
         id="path1904" />
      <path
         d="m 81.964414,182.69645 1.068913,-2.10608 1.111246,2.10608 h 1.894411 l -1.936744,-3.01624 1.650995,-2.60349 h -1.777994 l -0.867831,1.79916 -0.89958,-1.79916 h -1.873244 l 1.746244,2.66699 -1.926161,2.95274 z"
         style="fill:#800000"
         id="path1906" />
      <path
         d="m 89.446791,180.51629 c -0.656165,0 -1.142996,0.49742 -1.142996,1.13241 0,0.40217 0.179916,0.75142 0.497415,0.9525 l -0.539749,2.24366 h 1.12183 l 0.761998,-1.72508 c 0.306915,-0.68791 0.455082,-1.03716 0.455082,-1.46049 0,-0.64558 -0.486832,-1.143 -1.15358,-1.143 z"
         style="font-style:normal;font-variant:normal;font-weight:bold;font-stretch:normal;font-family:'Fira Mono';-inkscape-font-specification:'Fira Mono';stroke-width:0.264583px"
         id="path1908" />
      <path
         d="m 96.939751,174.66373 c -1.523995,0 -2.328326,0.84666 -2.328326,1.95791 v 0.80433 h -1.185329 v 1.16416 h 1.185329 v 4.10632 h 1.661579 v -4.10632 h 1.640411 l 0.190499,-1.16416 h -1.83091 v -0.75142 c 0,-0.55033 0.264582,-0.77258 0.93133,-0.77258 0.402165,0 0.814914,0.0635 1.195913,0.21167 l 0.465665,-1.09008 c -0.497415,-0.21167 -1.100663,-0.35983 -1.926161,-0.35983 z"
         style="fill:#800000"
         id="path1910" />
      <path
         d="m 102.14672,180.51629 c -0.65617,0 -1.143,0.49742 -1.143,1.13241 0,0.40217 0.17992,0.75142 0.49741,0.9525 l -0.53974,2.24366 h 1.12183 l 0.76199,-1.72508 c 0.30692,-0.68791 0.45509,-1.03716 0.45509,-1.46049 0,-0.64558 -0.48684,-1.143 -1.15358,-1.143 z"
         style="font-style:normal;font-variant:normal;font-weight:bold;font-stretch:normal;font-family:'Fira Mono';-inkscape-font-specification:'Fira Mono';stroke-width:0.264583px"
         id="path1912" />
      <path
         d="m 111.36476,177.07672 h -1.69333 l -1.143,4.33915 -1.09008,-4.33915 h -1.80974 l 1.89441,5.61973 h 1.96849 z"
         style="fill:#800000"
         id="path1914" />
      <path
         d="m 115.25939,178.9923 c 0,1.74624 -0.47625,2.83632 -2.00024,4.4979 l 0.96308,0.87841 c 1.67216,-1.43933 2.73049,-3.05857 2.73049,-5.37631 0,-2.31775 -1.05833,-3.93699 -2.73049,-5.37632 l -0.96308,0.87841 c 1.41816,1.55575 2.00024,2.75166 2.00024,4.49791 z"
         style="font-style:normal;font-variant:normal;font-weight:bold;font-stretch:normal;font-family:'Fira Mono';-inkscape-font-specification:'Fira Mono';stroke-width:0.264583px"
         id="path1916" />
      <path
         d="m 27.968564,191.24154 h 0.793747 v -1.11125 H 28.11673 l 0.201082,-1.50283 h -1.375829 l -0.201082,1.50283 h -1.015997 l 0.201083,-1.50283 h -1.386413 l -0.190499,1.50283 h -0.814914 v 1.11125 h 0.666748 l -0.275166,2.08491 h -0.783164 v 1.10066 h 0.634998 l -0.1905,1.53458 h 1.375829 l 0.201083,-1.53458 h 1.015997 l -0.201083,1.53458 h 1.375829 l 0.201083,-1.53458 h 0.814914 v -1.10066 h -0.666748 z m -2.666992,2.08491 0.275166,-2.08491 h 1.015997 l -0.275166,2.08491 z"
         style="fill:#800080"
         id="path1918" />
      <path
         d="m 33.059115,187.92896 v 2.75166 c -0.338666,-0.34925 -0.772581,-0.52916 -1.269996,-0.52916 -1.386413,0 -2.24366,1.24883 -2.24366,2.98449 0,1.80974 0.666748,3.00565 2.063743,3.00565 0.740831,0 1.24883,-0.35983 1.555746,-0.79374 l 0.08467,0.61383 h 1.481662 v -7.85281 z m -0.825498,3.45016 c 0.349249,0 0.592665,0.16933 0.825498,0.46566 v 2.42358 c -0.243416,0.40217 -0.539749,0.64558 -0.920748,0.64558 -0.507998,0 -0.86783,-0.381 -0.86783,-1.76741 0,-1.25941 0.380999,-1.76741 0.96308,-1.76741 z"
         style="fill:#800080"
         id="path1920" />
      <path
         d="m 37.662834,193.64395 h 3.640655 c 0.02117,-0.16934 0.03175,-0.41275 0.03175,-0.60325 0,-1.80975 -1.02658,-2.88924 -2.635242,-2.88924 -1.767411,0 -2.741074,1.34408 -2.741074,3.00565 0,1.74625 0.99483,2.98449 2.92099,2.98449 0.952497,0 1.714495,-0.3175 2.24366,-0.77258 l -0.666748,-0.91016 c -0.444499,0.28575 -0.931331,0.46566 -1.439329,0.46566 -0.719664,0 -1.238246,-0.35983 -1.354662,-1.28057 z m 1.037163,-2.37066 c 0.709081,0 0.99483,0.53974 1.005414,1.35466 h -2.063744 c 0.07408,-0.93133 0.465665,-1.35466 1.05833,-1.35466 z"
         style="fill:#800080"
         id="path1922" />
      <path
         d="m 46.14004,187.92896 c -1.523995,0 -2.328326,0.84667 -2.328326,1.95791 v 0.80433 h -1.185329 v 1.16417 h 1.185329 v 4.10632 h 1.661578 v -4.10632 h 1.640412 l 0.190499,-1.16417 h -1.830911 v -0.75141 c 0,-0.55033 0.264583,-0.77258 0.931331,-0.77258 0.402165,0 0.814914,0.0635 1.195913,0.21167 l 0.465665,-1.09008 c -0.497415,-0.21167 -1.100663,-0.35984 -1.926161,-0.35984 z"
         style="fill:#800080"
         id="path1924" />
      <path
         d="m 51.336425,187.3998 c -0.582082,0 -0.994831,0.41275 -0.994831,0.94191 0,0.53975 0.412749,0.94192 0.994831,0.94192 0.582081,0 0.984247,-0.40217 0.984247,-0.94192 0,-0.52916 -0.402166,-0.94191 -0.984247,-0.94191 z m 1.005413,2.94216 h -3.20674 v 1.14299 h 1.534579 v 3.33374 h -1.587495 v 1.143 h 4.698985 v -1.143 h -1.439329 z"
         style="fill:#800080"
         id="path1926" />
      <path
         d="m 55.262813,195.96169 h 1.672162 v -3.92641 c 0.317498,-0.40216 0.624414,-0.64558 0.984246,-0.64558 0.412749,0 0.539749,0.23283 0.539749,0.93133 v 3.64066 h 1.672161 v -4.12749 c 0,-1.06891 -0.582081,-1.68274 -1.545162,-1.68274 -0.719664,0 -1.248829,0.27516 -1.746244,0.83608 l -0.116416,-0.64558 h -1.460496 z"
         style="fill:#800080"
         id="path1928" />
      <path
         d="m 63.062687,193.64395 h 3.640656 c 0.02117,-0.16934 0.03175,-0.41275 0.03175,-0.60325 0,-1.80975 -1.02658,-2.88924 -2.635241,-2.88924 -1.767411,0 -2.741075,1.34408 -2.741075,3.00565 0,1.74625 0.99483,2.98449 2.920991,2.98449 0.952497,0 1.714494,-0.3175 2.243659,-0.77258 l -0.666747,-0.91016 c -0.444499,0.28575 -0.931331,0.46566 -1.439329,0.46566 -0.719665,0 -1.238246,-0.35983 -1.354663,-1.28057 z m 1.037164,-2.37066 c 0.709081,0 0.99483,0.53974 1.005413,1.35466 h -2.063743 c 0.07408,-0.93133 0.465665,-1.35466 1.05833,-1.35466 z"
         style="fill:#800080"
         id="path1930" />
      <path
         d="m 76.291781,189.86571 h 2.878657 l 0.179916,-1.23825 H 74.55612 v 7.33423 h 4.794234 v -1.24883 h -3.058573 v -1.87325 h 2.539992 v -1.20649 h -2.539992 z"
         style="fill:#0000ff"
         id="path1932" />
      <path
         d="m 83.128577,194.60703 -1.365246,-5.97957 h -1.841494 l 2.106076,7.33423 h 2.137827 l 2.11666,-7.33423 h -1.777994 z"
         style="fill:#0000ff"
         id="path1934" />
      <path
         d="m 90.505121,194.37419 0.380999,1.5875 h 1.86266 l -2.243659,-7.33423 h -2.106077 l -2.243659,7.33423 h 1.820327 l 0.380999,-1.5875 z m -1.873244,-1.24883 0.793747,-3.24907 0.793748,3.24907 z"
         style="fill:#0000ff"
         id="path1936" />
      <path
         d="m 93.606012,195.96169 h 4.741318 l 0.169333,-1.37583 h -3.17499 v -5.9584 h -1.735661 z"
         style="fill:#0000ff"
         id="path1938" />
      <path
         d="m 103.20505,194.37419 0.38099,1.5875 h 1.86266 l -2.24365,-7.33423 h -2.10608 l -2.243661,7.33423 h 1.820331 l 0.381,-1.5875 z m -1.87325,-1.24883 0.79375,-3.24907 0.79375,3.24907 z"
         style="fill:#0000ff"
         id="path1940" />
      <path
         d="m 111.07901,188.62746 h -1.78858 l -0.77258,4.74132 -0.81491,-4.74132 h -1.78858 l -0.41275,7.33423 h 1.49224 l 0.0529,-3.11149 c 0.0212,-1.17475 -0.0212,-1.82033 -0.10583,-2.75166 l 0.89958,4.61432 h 1.31233 l 0.8255,-4.61432 c -0.0741,0.98425 -0.127,1.56633 -0.0953,2.71991 l 0.0847,3.14324 h 1.524 z"
         style="fill:#0000ff"
         id="path1942" />
      <path
         d="m 117.71472,193.81328 c 0,-1.17475 -0.87842,-1.60866 -1.66158,-1.73566 0.71966,-0.17992 1.34408,-0.6985 1.34408,-1.57691 0,-1.42875 -1.30175,-1.87325 -2.80458,-1.87325 h -2.32832 v 7.33423 h 2.43416 c 1.58749,0 3.01624,-0.45508 3.01624,-2.14841 z m -2.06375,-3.13266 c 0,0.61383 -0.31749,0.87842 -1.05833,0.87842 h -0.59266 v -1.70392 h 0.52916 c 0.77259,0 1.12183,0.24342 1.12183,0.8255 z m 0.27517,3.05857 c 0,0.80434 -0.60325,0.9525 -1.29116,0.9525 h -0.635 v -1.96849 h 0.70908 c 0.74083,0 1.21708,0.254 1.21708,1.01599 z"
         style="fill:#0000ff"
         id="path1944" />
      <path
         d="m 124.09644,192.25753 c 0,-3.02682 -1.78858,-3.63007 -3.67241,-3.63007 h -1.85208 v 7.33423 h 1.97908 c 1.82033,0 3.54541,-0.71967 3.54541,-3.70416 z m -1.78858,0 c 0,1.92616 -0.66675,2.44475 -1.62983,2.44475 h -0.37042 v -4.81541 h 0.37042 c 0.92075,0 1.62983,0.40217 1.62983,2.37066 z"
         style="fill:#0000ff"
         id="path1946" />
      <path
         d="m 128.6049,194.37419 0.381,1.5875 h 1.86266 l -2.24366,-7.33423 h -2.10607 l -2.24366,7.33423 h 1.82032 l 0.381,-1.5875 z m -1.87324,-1.24883 0.79375,-3.24907 0.79374,3.24907 z"
         style="fill:#0000ff"
         id="path1948" />
      <path
         d="m 133.48378,192.25753 c 0,-1.74624 0.58209,-2.94215 2.00025,-4.4979 l -0.96308,-0.87841 c -1.67216,1.43933 -2.73049,3.05857 -2.73049,5.37631 0,2.31775 1.05833,3.93699 2.73049,5.37632 l 0.96308,-0.87841 c -1.524,-1.66158 -2.00025,-2.75166 -2.00025,-4.49791 z"
         style="font-style:normal;font-variant:normal;font-weight:bold;font-stretch:normal;font-family:'Fira Mono';-inkscape-font-specification:'Fira Mono';stroke-width:0.264583px"
         id="path1950" />
      <path
         d="m 139.11409,195.96169 1.06891,-2.10608 1.11125,2.10608 h 1.89441 l -1.93675,-3.01624 1.651,-2.60349 h -1.778 l -0.86783,1.79916 -0.89958,-1.79916 h -1.87324 l 1.74624,2.66699 -1.92616,2.95274 z"
         style="fill:#800000"
         id="path1952" />
      <path
         d="m 146.59646,193.78153 c -0.65616,0 -1.143,0.49741 -1.143,1.13241 0,0.40217 0.17992,0.75142 0.49742,0.9525 l -0.53975,2.24366 h 1.12183 l 0.762,-1.72508 c 0.30691,-0.68791 0.45508,-1.03716 0.45508,-1.4605 0,-0.64558 -0.48683,-1.14299 -1.15358,-1.14299 z"
         style="font-style:normal;font-variant:normal;font-weight:bold;font-stretch:normal;font-family:'Fira Mono';-inkscape-font-specification:'Fira Mono';stroke-width:0.264583px"
         id="path1954" />
      <path
         d="m 155.82509,190.34196 h -1.7145 l -1.18533,4.55081 -1.09008,-4.55081 h -1.76741 l 1.778,5.61973 h 0.58208 c -0.30692,0.71966 -0.70908,1.03716 -1.80975,1.17474 l 0.1905,1.18533 c 1.70391,-0.0953 2.64583,-0.86783 3.14324,-2.36007 z"
         style="fill:#800000"
         id="path1956" />
      <path
         d="m 159.70915,192.25753 c 0,1.74625 -0.47625,2.83633 -2.00025,4.49791 l 0.96308,0.87841 c 1.67216,-1.43933 2.73049,-3.05857 2.73049,-5.37632 0,-2.31774 -1.05833,-3.93698 -2.73049,-5.37631 l -0.96308,0.87841 c 1.41816,1.55575 2.00025,2.75166 2.00025,4.4979 z"
         style="font-style:normal;font-variant:normal;font-weight:bold;font-stretch:normal;font-family:'Fira Mono';-inkscape-font-specification:'Fira Mono';stroke-width:0.264583px"
         id="path1958" />
      <path
         d="m 174.83264,193.81328 c 0,-1.34408 -0.81491,-1.93675 -2.21191,-2.36008 -1.16416,-0.35983 -1.49224,-0.55033 -1.49224,-1.01599 0,-0.47625 0.43391,-0.71967 1.09008,-0.71967 0.59266,0 1.18533,0.20108 1.68274,0.61383 l 0.81492,-0.94191 c -0.635,-0.60325 -1.50283,-0.9525 -2.62466,-0.9525 -1.524,0 -2.76224,0.78317 -2.76224,2.13783 0,1.11124 0.64558,1.75683 2.37065,2.28599 1.016,0.30692 1.32292,0.56092 1.32292,1.09008 0,0.5715 -0.48683,0.89958 -1.21708,0.89958 -0.78317,0 -1.43933,-0.26458 -1.97908,-0.74083 l -0.87841,0.97366 c 0.61383,0.60325 1.51341,1.05833 2.89982,1.05833 1.87324,0 2.98449,-0.95249 2.98449,-2.32832 z"
         style="fill:#008000"
         id="path1960" />
      <path
         d="m 180.72752,188.62746 h -4.76248 v 1.27 h 1.51341 v 4.78365 h -1.51341 v 1.28058 h 4.76248 v -1.28058 h -1.51341 v -4.78365 h 1.51341 z"
         style="fill:#008000"
         id="path1962" />
      <path
         d="m 182.50549,195.96169 h 4.74132 l 0.16934,-1.37583 h -3.17499 v -5.9584 h -1.73567 z"
         style="fill:#008000"
         id="path1964" />
      <path
         d="m 190.59113,189.86571 h 2.87866 l 0.17992,-1.23825 h -4.79424 v 7.33423 h 4.79424 v -1.24883 h -3.05858 v -1.87325 h 2.53999 v -1.20649 h -2.53999 z"
         style="fill:#008000"
         id="path1966" />
      <path
         d="m 197.91476,195.96169 h 2.10607 v -7.33423 h -1.47108 v 2.80458 c 0,1.32291 0.14817,2.39182 0.254,3.06915 l -1.86266,-5.87373 h -2.16957 v 7.33423 h 1.47107 v -2.76224 c 0,-1.29117 -0.16933,-2.50825 -0.254,-3.13266 z"
         style="fill:#008000"
         id="path1968" />
      <path
         d="m 204.60338,189.96096 h 1.96849 l 0.16934,-1.3335 h -5.93723 v 1.3335 h 2.06374 v 6.00073 h 1.73566 z"
         style="fill:#008000"
         id="path1970" />
      <path
         d="m 209.68335,192.25753 c 0,-1.74624 0.58208,-2.94215 2.00024,-4.4979 l -0.96308,-0.87841 c -1.67216,1.43933 -2.73049,3.05857 -2.73049,5.37631 0,2.31775 1.05833,3.93699 2.73049,5.37632 l 0.96308,-0.87841 c -1.524,-1.66158 -2.00024,-2.75166 -2.00024,-4.49791 z"
         style="font-style:normal;font-variant:normal;font-weight:bold;font-stretch:normal;font-family:'Fira Mono';-inkscape-font-specification:'Fira Mono';stroke-width:0.264583px"
         id="path1972" />
      <path
         d="m 40.668491,204.50677 h 0.793747 v -1.11124 h -0.645581 l 0.201083,-1.50283 h -1.375829 l -0.201083,1.50283 h -1.015997 l 0.201083,-1.50283 h -1.386412 l -0.1905,1.50283 h -0.814914 v 1.11124 h 0.666748 l -0.275166,2.08491 h -0.783164 v 1.10067 h 0.634998 l -0.190499,1.53458 h 1.375829 l 0.201082,-1.53458 h 1.015997 l -0.201082,1.53458 h 1.375828 l 0.201083,-1.53458 h 0.814914 v -1.10067 h -0.666748 z m -2.666992,2.08491 0.275166,-2.08491 h 1.015997 l -0.275166,2.08491 z"
         style="fill:#800080"
         id="path1974" />
      <path
         d="m 45.759041,201.1942 v 2.75166 c -0.338665,-0.34925 -0.77258,-0.52917 -1.269996,-0.52917 -1.386412,0 -2.243659,1.24883 -2.243659,2.98449 0,1.80975 0.666748,3.00566 2.063743,3.00566 0.740831,0 1.24883,-0.35983 1.555745,-0.79375 l 0.08467,0.61384 h 1.481662 v -7.85281 z m -0.825497,3.45016 c 0.349249,0 0.592665,0.16933 0.825497,0.46566 v 2.42358 c -0.243416,0.40216 -0.539748,0.64558 -0.920747,0.64558 -0.507998,0 -0.86783,-0.381 -0.86783,-1.76741 0,-1.25942 0.380999,-1.76741 0.96308,-1.76741 z"
         style="fill:#800080"
         id="path1976" />
      <path
         d="m 50.362761,206.90918 h 3.640655 c 0.02117,-0.16933 0.03175,-0.41275 0.03175,-0.60325 0,-1.80974 -1.02658,-2.88924 -2.635242,-2.88924 -1.767411,0 -2.741074,1.34408 -2.741074,3.00566 0,1.74625 0.99483,2.98449 2.920991,2.98449 0.952497,0 1.714494,-0.3175 2.243659,-0.77258 l -0.666748,-0.91016 c -0.444498,0.28575 -0.93133,0.46566 -1.439329,0.46566 -0.719664,0 -1.238246,-0.35983 -1.354662,-1.28058 z m 1.037163,-2.37066 c 0.709082,0 0.994831,0.53975 1.005414,1.35467 h -2.063744 c 0.07408,-0.93133 0.465666,-1.35467 1.05833,-1.35467 z"
         style="fill:#800080"
         id="path1978" />
      <path
         d="m 58.839968,201.1942 c -1.523995,0 -2.328325,0.84666 -2.328325,1.95791 v 0.80433 h -1.18533 v 1.16416 h 1.18533 v 4.10633 h 1.661578 v -4.10633 h 1.640411 l 0.190499,-1.16416 h -1.83091 v -0.75141 c 0,-0.55033 0.264582,-0.77258 0.93133,-0.77258 0.402165,0 0.814914,0.0635 1.195913,0.21166 l 0.465665,-1.09008 c -0.497415,-0.21166 -1.100663,-0.35983 -1.926161,-0.35983 z"
         style="fill:#800080"
         id="path1980" />
      <path
         d="m 63.062687,206.90918 h 3.640656 c 0.02117,-0.16933 0.03175,-0.41275 0.03175,-0.60325 0,-1.80974 -1.02658,-2.88924 -2.635241,-2.88924 -1.767411,0 -2.741075,1.34408 -2.741075,3.00566 0,1.74625 0.99483,2.98449 2.920991,2.98449 0.952497,0 1.714494,-0.3175 2.243659,-0.77258 l -0.666747,-0.91016 c -0.444499,0.28575 -0.931331,0.46566 -1.439329,0.46566 -0.719665,0 -1.238246,-0.35983 -1.354663,-1.28058 z m 1.037164,-2.37066 c 0.709081,0 0.99483,0.53975 1.005413,1.35467 h -2.063743 c 0.07408,-0.93133 0.465665,-1.35467 1.05833,-1.35467 z"
         style="fill:#800080"
         id="path1982" />
      <path
         d="m 73.264973,203.60719 h -1.693328 l -1.142997,4.33916 -1.09008,-4.33916 h -1.809744 l 1.894411,5.61974 h 1.968494 z"
         style="fill:#800080"
         id="path1984" />
      <path
         d="m 79.043439,207.60768 v -2.20133 c 0,-1.29116 -0.783165,-1.98966 -2.455326,-1.98966 -0.624415,0 -1.460495,0.14817 -2.190743,0.42334 l 0.380999,1.11124 c 0.560915,-0.1905 1.185329,-0.29633 1.545162,-0.29633 0.719664,0 1.111246,0.27517 1.111246,0.86783 v 0.20108 h -0.751414 c -1.735661,0 -2.741075,0.6985 -2.741075,1.91558 0,1.03716 0.740831,1.76741 1.904994,1.76741 0.698498,0 1.407579,-0.24341 1.841494,-0.762 0.264583,0.46567 0.719665,0.67733 1.375829,0.74083 l 0.349249,-1.10066 c -0.264582,-0.0952 -0.370415,-0.254 -0.370415,-0.67733 z m -2.624659,0.60325 c -0.476248,0 -0.751414,-0.254 -0.751414,-0.68792 0,-0.55033 0.423332,-0.84666 1.354662,-0.84666 h 0.412749 v 0.92075 c -0.211666,0.39158 -0.656164,0.61383 -1.015997,0.61383 z"
         style="fill:#800080"
         id="path1986" />
      <path
         d="m 83.594242,201.37412 h -3.323156 v 1.14299 h 1.650994 v 4.73074 c 0,1.32291 0.613832,2.15899 1.968494,2.15899 0.719665,0 1.24883,-0.16933 1.619245,-0.37041 l -0.391582,-1.12183 c -0.232833,0.0952 -0.507998,0.16933 -0.804331,0.16933 -0.444498,0 -0.719664,-0.16933 -0.719664,-0.62442 z"
         style="fill:#800080"
         id="path1988" />
      <path
         d="m 96.654002,203.22619 h 1.968494 l 0.169333,-1.33349 h -5.937231 v 1.33349 h 2.063743 v 6.00074 h 1.735661 z"
         style="fill:#0000ff"
         id="path1990" />
      <path
         d="m 101.69163,203.13094 h 2.87866 l 0.17992,-1.23824 h -4.794238 v 7.33423 h 4.794238 v -1.24883 h -3.05858 v -1.87325 h 2.54 v -1.20649 h -2.54 z"
         style="fill:#0000ff"
         id="path1992" />
      <path
         d="m 111.07901,201.8927 h -1.78858 l -0.77258,4.74132 -0.81491,-4.74132 h -1.78858 l -0.41275,7.33423 h 1.49224 l 0.0529,-3.1115 c 0.0212,-1.17474 -0.0212,-1.82032 -0.10583,-2.75165 l 0.89958,4.61432 h 1.31233 l 0.8255,-4.61432 c -0.0741,0.98424 -0.127,1.56633 -0.0953,2.71991 l 0.0847,3.14324 h 1.524 z"
         style="fill:#0000ff"
         id="path1994" />
      <path
         d="m 117.76763,204.28452 c 0,-1.60866 -1.13241,-2.39182 -3.13265,-2.39182 h -2.30716 v 7.33423 h 1.73566 v -2.44475 h 0.80433 c 1.72508,0 2.89982,-0.79374 2.89982,-2.49766 z m -1.77799,0 c 0,0.86783 -0.46567,1.24883 -1.23825,1.24883 h -0.68791 v -2.40241 h 0.60325 c 0.87841,0 1.32291,0.37042 1.32291,1.15358 z"
         style="fill:#0000ff"
         id="path1996" />
      <path
         d="m 123.87419,206.43293 h -0.73025 v -1.76741 h -1.41816 l -0.1905,1.76741 h -1.31233 l 1.72508,-4.20157 -1.41817,-0.52916 -2.03199,4.8789 v 1.10066 h 3.03741 l 0.0106,1.54517 h 1.59808 v -1.54517 h 0.73025 z"
         style="fill:#0000ff"
         id="path1998" />
      <path
         d="m 132.76412,209.22693 1.06891,-2.10608 1.11125,2.10608 h 1.89441 l -1.93674,-3.01625 1.65099,-2.60349 h -1.77799 l -0.86783,1.79916 -0.89958,-1.79916 h -1.87325 l 1.74625,2.66699 -1.92617,2.95275 z"
         style="fill:#800000"
         id="path2000" />
      <path
         d="m 40.668491,217.77201 h 0.793747 v -1.11125 h -0.645581 l 0.201083,-1.50282 h -1.375829 l -0.201083,1.50282 h -1.015997 l 0.201083,-1.50282 h -1.386412 l -0.1905,1.50282 h -0.814914 v 1.11125 h 0.666748 l -0.275166,2.08491 h -0.783164 v 1.10066 h 0.634998 l -0.190499,1.53458 h 1.375829 l 0.201082,-1.53458 h 1.015997 l -0.201082,1.53458 h 1.375828 l 0.201083,-1.53458 h 0.814914 v -1.10066 h -0.666748 z m -2.666992,2.08491 0.275166,-2.08491 h 1.015997 l -0.275166,2.08491 z"
         style="fill:#800080"
         id="path2002" />
      <path
         d="m 45.759041,214.45944 v 2.75166 c -0.338665,-0.34925 -0.77258,-0.52917 -1.269996,-0.52917 -1.386412,0 -2.243659,1.24883 -2.243659,2.98449 0,1.80975 0.666748,3.00566 2.063743,3.00566 0.740831,0 1.24883,-0.35983 1.555745,-0.79375 l 0.08467,0.61383 h 1.481662 v -7.85281 z m -0.825497,3.45015 c 0.349249,0 0.592665,0.16934 0.825497,0.46567 v 2.42357 c -0.243416,0.40217 -0.539748,0.64559 -0.920747,0.64559 -0.507998,0 -0.86783,-0.381 -0.86783,-1.76742 0,-1.25941 0.380999,-1.76741 0.96308,-1.76741 z"
         style="fill:#800080"
         id="path2004" />
      <path
         d="m 50.362761,220.17442 h 3.640655 c 0.02117,-0.16933 0.03175,-0.41275 0.03175,-0.60325 0,-1.80974 -1.02658,-2.88924 -2.635242,-2.88924 -1.767411,0 -2.741074,1.34408 -2.741074,3.00566 0,1.74624 0.99483,2.98449 2.920991,2.98449 0.952497,0 1.714494,-0.3175 2.243659,-0.77258 l -0.666748,-0.91017 c -0.444498,0.28575 -0.93133,0.46567 -1.439329,0.46567 -0.719664,0 -1.238246,-0.35983 -1.354662,-1.28058 z m 1.037163,-2.37066 c 0.709082,0 0.994831,0.53975 1.005414,1.35466 h -2.063744 c 0.07408,-0.93133 0.465666,-1.35466 1.05833,-1.35466 z"
         style="fill:#800080"
         id="path2006" />
      <path
         d="m 58.839968,214.45944 c -1.523995,0 -2.328325,0.84666 -2.328325,1.95791 v 0.80433 h -1.18533 v 1.16416 h 1.18533 v 4.10632 h 1.661578 v -4.10632 h 1.640411 l 0.190499,-1.16416 h -1.83091 v -0.75142 c 0,-0.55033 0.264582,-0.77258 0.93133,-0.77258 0.402165,0 0.814914,0.0635 1.195913,0.21167 l 0.465665,-1.09008 c -0.497415,-0.21167 -1.100663,-0.35983 -1.926161,-0.35983 z"
         style="fill:#800080"
         id="path2008" />
      <path
         d="m 63.062687,220.17442 h 3.640656 c 0.02117,-0.16933 0.03175,-0.41275 0.03175,-0.60325 0,-1.80974 -1.02658,-2.88924 -2.635241,-2.88924 -1.767411,0 -2.741075,1.34408 -2.741075,3.00566 0,1.74624 0.99483,2.98449 2.920991,2.98449 0.952497,0 1.714494,-0.3175 2.243659,-0.77258 l -0.666747,-0.91017 c -0.444499,0.28575 -0.931331,0.46567 -1.439329,0.46567 -0.719665,0 -1.238246,-0.35983 -1.354663,-1.28058 z m 1.037164,-2.37066 c 0.709081,0 0.99483,0.53975 1.005413,1.35466 h -2.063743 c 0.07408,-0.93133 0.465665,-1.35466 1.05833,-1.35466 z"
         style="fill:#800080"
         id="path2010" />
      <path
         d="m 73.264973,216.87243 h -1.693328 l -1.142997,4.33915 -1.09008,-4.33915 h -1.809744 l 1.894411,5.61973 h 1.968494 z"
         style="fill:#800080"
         id="path2012" />
      <path
         d="m 79.043439,220.87292 v -2.20133 c 0,-1.29116 -0.783165,-1.98966 -2.455326,-1.98966 -0.624415,0 -1.460495,0.14817 -2.190743,0.42333 l 0.380999,1.11125 c 0.560915,-0.1905 1.185329,-0.29633 1.545162,-0.29633 0.719664,0 1.111246,0.27516 1.111246,0.86783 v 0.20108 h -0.751414 c -1.735661,0 -2.741075,0.6985 -2.741075,1.91558 0,1.03716 0.740831,1.76741 1.904994,1.76741 0.698498,0 1.407579,-0.24342 1.841494,-0.762 0.264583,0.46567 0.719665,0.67733 1.375829,0.74083 l 0.349249,-1.10066 c -0.264582,-0.0952 -0.370415,-0.254 -0.370415,-0.67733 z m -2.624659,0.60325 c -0.476248,0 -0.751414,-0.254 -0.751414,-0.68792 0,-0.55033 0.423332,-0.84666 1.354662,-0.84666 h 0.412749 v 0.92074 c -0.211666,0.39159 -0.656164,0.61384 -1.015997,0.61384 z"
         style="fill:#800080"
         id="path2014" />
      <path
         d="m 83.594242,214.63935 h -3.323156 v 1.143 h 1.650994 v 4.73074 c 0,1.32291 0.613832,2.15899 1.968494,2.15899 0.719665,0 1.24883,-0.16933 1.619245,-0.37042 l -0.391582,-1.12183 c -0.232833,0.0952 -0.507998,0.16934 -0.804331,0.16934 -0.444498,0 -0.719664,-0.16934 -0.719664,-0.62442 z"
         style="fill:#800080"
         id="path2016" />
      <path
         d="m 96.654002,216.49143 h 1.968494 l 0.169333,-1.33349 h -5.937231 v 1.33349 h 2.063743 v 6.00073 h 1.735661 z"
         style="fill:#0000ff"
         id="path2018" />
      <path
         d="m 101.69163,216.39618 h 2.87866 l 0.17992,-1.23824 h -4.794238 v 7.33422 h 4.794238 v -1.24883 h -3.05858 v -1.87324 h 2.54 v -1.2065 h -2.54 z"
         style="fill:#0000ff"
         id="path2020" />
      <path
         d="m 111.07901,215.15794 h -1.78858 l -0.77258,4.74131 -0.81491,-4.74131 h -1.78858 l -0.41275,7.33422 h 1.49224 l 0.0529,-3.11149 c 0.0212,-1.17474 -0.0212,-1.82033 -0.10583,-2.75166 l 0.89958,4.61432 h 1.31233 l 0.8255,-4.61432 c -0.0741,0.98425 -0.127,1.56633 -0.0953,2.71991 l 0.0847,3.14324 h 1.524 z"
         style="fill:#0000ff"
         id="path2022" />
      <path
         d="m 117.76763,217.54976 c 0,-1.60866 -1.13241,-2.39182 -3.13265,-2.39182 h -2.30716 v 7.33422 h 1.73566 v -2.44474 h 0.80433 c 1.72508,0 2.89982,-0.79375 2.89982,-2.49766 z m -1.77799,0 c 0,0.86783 -0.46567,1.24883 -1.23825,1.24883 h -0.68791 v -2.40241 h 0.60325 c 0.87841,0 1.32291,0.37042 1.32291,1.15358 z"
         style="fill:#0000ff"
         id="path2024" />
      <path
         d="m 123.47202,215.15794 h -4.46615 v 3.93698 h 1.13241 c 0.3175,-0.17991 0.62442,-0.24341 0.889,-0.24341 0.60325,0 0.99483,0.34925 0.99483,1.25941 0,0.762 -0.508,1.28058 -1.28058,1.28058 -0.51858,0 -0.99483,-0.24342 -1.34408,-0.6985 l -0.96308,0.87842 c 0.53975,0.66674 1.37583,1.10066 2.43416,1.10066 1.72508,0 2.87866,-1.10066 2.87866,-2.59291 0,-1.48166 -0.93133,-2.38124 -2.06375,-2.38124 -0.3175,0 -0.71966,0.0741 -1.07949,0.24341 v -1.58749 h 2.67757 z"
         style="fill:#0000ff"
         id="path2026" />
      <path
         d="m 136.77519,216.87243 h -1.71449 l -1.18533,4.55082 -1.09008,-4.55082 h -1.76742 l 1.778,5.61973 h 0.58208 c -0.30692,0.71967 -0.70908,1.03717 -1.80974,1.17475 l 0.1905,1.18533 c 1.70391,-0.0952 2.64582,-0.86783 3.14324,-2.36008 z"
         style="fill:#800000"
         id="path2028" />
    </g>
  </g>
</svg>
