<?xml version="1.0" encoding="UTF-8" standalone="no"?>
<svg
   xmlns:dc="http://purl.org/dc/elements/1.1/"
   xmlns:cc="http://creativecommons.org/ns#"
   xmlns:rdf="http://www.w3.org/1999/02/22-rdf-syntax-ns#"
   xmlns:svg="http://www.w3.org/2000/svg"
   xmlns="http://www.w3.org/2000/svg"
   version="1.1"
   id="svg2"
   width="400"
   height="400"
   viewBox="0 0 400 400.00001">
  <metadata
     id="metadata8">
    <rdf:RDF>
      <cc:Work
         rdf:about="">
        <dc:format>image/svg+xml</dc:format>
        <dc:type
           rdf:resource="http://purl.org/dc/dcmitype/StillImage" />
        <dc:title></dc:title>
      </cc:Work>
    </rdf:RDF>
  </metadata>
  <defs
     id="defs6" />
  <g
     id="g10"
     transform="translate(-11.099476,65.272377)">
    <g
       id="g1053">
      <rect
         style="fill:#fab623;fill-opacity:1;stroke-width:5.66928;stop-color:#000000"
         id="rect96"
         width="400"
         height="400"
         x="11.099477"
         y="-65.272377" />
      <path
         style="fill:#000000"
         d="m 198.46704,224.61032 c -11.63975,-2.4241 -20.92221,-6.79044 -25.4859,-11.98819 -7.63044,-8.6906 -3.28253,-19.14244 10.59544,-25.47015 8.6422,-3.94045 17.71281,-5.28387 30.84615,-4.56853 12.24271,0.66683 18.57678,2.11038 26.04431,5.93558 10.17275,5.21094 14.61448,13.2208 11.50038,20.73889 -2.41499,5.83032 -14.20372,13.01285 -24.47425,14.91146 -5.60549,1.03623 -24.76984,1.32736 -29.02613,0.44094 z m 4.5,-2.85147 c -0.68469,-0.825 -1.69489,-1.5 -2.24489,-1.5 -0.55783,0 -0.44954,0.66326 0.24489,1.5 0.68469,0.825 1.69489,1.5 2.24489,1.5 0.55782,0 0.44954,-0.66326 -0.24489,-1.5 z m 3.36162,0 c -0.31658,-0.825 -1.03255,-1.5 -1.59106,-1.5 -0.5853,0 -0.48811,0.6354 0.22944,1.5 0.68469,0.825 1.40066,1.5 1.59106,1.5 0.19039,0 0.0872,-0.675 -0.22944,-1.5 z m 3.1795,-0.43347 c -0.36254,-0.58659 -1.1377,-1.06653 -1.72258,-1.06653 -0.6631,0 -0.58723,0.57378 0.20151,1.52416 1.37155,1.65261 2.59734,1.28381 1.52107,-0.45763 z m 4.04958,-0.80917 c -0.6935,-0.6935 -2.5907,0.71554 -2.5907,1.9241 0,0.66309 0.57378,0.58723 1.52416,-0.20152 0.8383,-0.69572 1.31823,-1.47088 1.06654,-1.72258 z m 6.66832,0.74264 c 0.47245,0 0.55315,0.49489 0.17932,1.09976 -0.53739,0.86952 2.62705,-0.26957 4.28586,-1.54276 0.12332,-0.0947 -2.01418,-0.19511 -4.75,-0.22325 -2.73581,-0.0281 -4.9742,0.36181 -4.9742,0.86656 0,0.50474 0.45,0.63961 1,0.29969 0.55,-0.33992 1,-0.0515 1,0.64098 0,0.97923 0.26667,0.99235 1.2,0.059 0.66,-0.66 1.58656,-1.2 2.05902,-1.2 z m -21.78626,0.13943 c -0.33581,-0.33582 -1.98819,-0.67986 -3.67195,-0.76454 -1.77054,-0.0891 -2.53977,0.1684 -1.82433,0.61057 1.46255,0.90391 6.38409,1.04177 5.49628,0.15397 z m -4.45271,-4.61527 c -1.4279,-1.72052 -5.5157,-2.13516 -4.47674,-0.45409 0.72262,1.16923 4.7181,2.9152 5.34919,2.33753 0.21587,-0.1976 -0.17673,-1.04515 -0.87245,-1.88344 z m 5.97995,2.05762 c 0,-2.00623 -1.65481,-3.58178 -3.76198,-3.58178 -2.48465,0 -2.503,0.0497 -0.73802,2 1.57898,1.74475 4.5,2.77152 4.5,1.58178 z m 4.26443,-0.17955 c 1.11931,-1.11931 -0.47193,-3.40223 -2.37142,-3.40223 -2.16818,0 -2.43102,1.06198 -0.69301,2.8 1.33233,1.33233 2.16976,1.4969 3.06443,0.60223 z m 15.73557,-1.40223 c 0.89748,-1.67697 0.76049,-2 -0.84819,-2 -1.07754,0 -2.14781,0.8767 -2.44156,2 -0.33522,1.28189 -0.0307,2 0.84818,2 0.75416,0 1.85287,-0.9 2.44157,-2 z m 5.13921,0.0333 2.36079,-1.96673 -2.75,-0.0333 c -1.5125,-0.0183 -2.75,0.15492 -2.75,0.38494 0,0.23002 -0.27315,1.13002 -0.60699,2 -0.83045,2.16411 0.89984,1.98632 3.7462,-0.38494 z m 5.36079,-0.0333 c 1.75265,-1.93666 1.74663,-2 -0.19003,-2 -1.1,0 -2.81449,0.9 -3.80997,2 -1.75265,1.93665 -1.74663,2 0.19002,2 1.1,0 2.81449,-0.9 3.80998,-2 z m -39.5,-5 c 0,-1.5774 -0.66667,-2.00001 -3.15499,-2.00001 -3.09164,0 -3.11865,0.0401 -1.34501,2.00001 0.99548,1.1 2.41523,2 3.15499,2 0.73975,0 1.34501,-0.9 1.34501,-2 z m 7,1.58178 c 0,-1.80751 -1.53908,-3.58179 -3.10699,-3.58179 -1.04116,0 -1.89301,-0.49814 -1.89301,-1.10699 0,-0.60884 0.675,-0.84796 1.5,-0.53138 1.08369,0.41585 1.5,-0.10953 1.5,-1.89301 0,-1.96653 -0.50848,-2.46862 -2.5,-2.46862 -2.77794,0 -2.96218,0.7956 -1.44742,6.25 0.84179,3.03114 1.51166,3.75001 3.49442,3.75001 1.34915,0 2.453,-0.1882 2.453,-0.41822 z m 5.81477,-1.33178 c -0.19718,-1.03976 -1.41275,-1.87537 -2.9951,-2.05888 -2.25705,-0.26177 -2.58111,0.005 -2.12482,1.75 0.70196,2.6843 5.62675,2.9814 5.11992,0.30888 z m 4.4156,-0.25 c 2.33579,-2.17612 1.76338,-2.60222 -1.29611,-0.96482 -1.06385,0.56935 -1.93426,1.46935 -1.93426,2 0,1.4513 0.85583,1.17704 3.23037,-1.03518 z m 6.64151,-1.10034 c -2.82823,-1.79158 -4.41008,-0.88466 -1.87188,1.0732 1.49365,1.15213 2.6497,1.49917 2.87188,0.86211 0.20454,-0.58646 -0.24546,-1.45735 -1,-1.93531 z m 7.94123,0.85034 c 0.24468,-1.2838 -0.32351,-1.75001 -2.1328,-1.75001 -2.39158,0 -4.20044,2.14654 -2.90256,3.44442 1.21964,1.21964 4.70339,0.0473 5.03536,-1.69441 z m 6.18689,0.25 c 0.96109,-1.79582 0.76049,-2.00001 -1.96482,-2.00001 -2.36851,0 -3.03518,0.43929 -3.03518,2.00001 0,1.32139 0.66667,2 1.96481,2 1.08065,0 2.44649,-0.9 3.03519,-2 z m 5.8,0.8 c 1.85774,-1.85774 1.4321,-2.80001 -1.26482,-2.80001 -1.44136,0 -2.90926,0.83045 -3.53518,2.00001 -0.92833,1.7346 -0.76049,2 1.26481,2 1.28436,0 2.87519,-0.54 3.53519,-1.2 z m -32.01179,-6.6793 c -0.46378,-2.43534 -4.78821,-2.7577 -4.78821,-0.35693 0,2.54006 0.72292,3.12144 3.10633,2.49817 1.15601,-0.30231 1.86112,-1.2 1.68188,-2.14124 z m 21.03134,0.051 c 0.2539,-1.72552 -0.18438,-2.17168 -2.13337,-2.17168 -2.92844,0 -4.46514,3.63433 -1.8288,4.32514 2.64254,0.69243 3.62172,0.16023 3.96217,-2.15347 z m 6.41514,1.32832 c 1.56211,-2.12623 0.68498,-3.5 -2.23469,-3.5 -2.48936,0 -3,0.40337 -3,2.36974 0,1.82631 0.51596,2.34228 2.25,2.25 1.2375,-0.0658 2.58061,-0.56974 2.98469,-1.11974 z m 7.15832,-0.0818 c 1.08091,-2.8168 0.65988,-3.41821 -2.39301,-3.41821 -2.53333,0 -3,0.38889 -3,2.5 0,1.9702 0.50713,2.5 2.39301,2.5 1.31616,0 2.66616,-0.7118 3,-1.58178 z m -47.39301,0.16358 c 0,-1.96511 -1.62805,-3.58179 -3.60699,-3.58179 -1.72634,0 -2.39301,0.55718 -2.39301,2 0,1.55556 0.66667,2 3,2 1.65,0 3,-0.18819 3,-0.41821 z m -0.57421,-6.249 c 0.35188,-0.91697 0.22282,-2.08418 -0.28679,-2.59379 -1.57661,-1.57661 -4.62238,-0.33508 -4.95855,2.02122 -0.25679,1.79986 0.16412,2.23978 2.14301,2.23978 1.37622,0 2.74479,-0.73547 3.10233,-1.66721 z m 6.57421,-0.90234 c 0,-2.09273 -0.41752,-2.51025 -2.25,-2.25 -1.44596,0.20536 -2.36419,1.1236 -2.56955,2.56955 -0.26026,1.83248 0.15726,2.25 2.25,2.25 2.09273,0 2.56955,-0.47681 2.56955,-2.56955 z m 6.5,0.0696 c 0,-1.31272 -0.77319,-2.10981 -2.25,-2.31955 -1.84568,-0.26213 -2.25,0.15469 -2.25,2.31955 0,2.16486 0.40432,2.58168 2.25,2.31955 1.47681,-0.20974 2.25,-1.00682 2.25,-2.31955 z m 21.4199,0.75 c 0.97074,-1.66667 1.02073,-1.66667 1.04969,0 0.0221,1.27102 0.85152,1.75 3.03041,1.75 5.15294,0 3.17825,-3.95672 -2.06491,-4.13747 -6.06279,-0.20902 -6.93509,0.0598 -6.93509,2.13747 0,2.53365 3.4866,2.71082 4.9199,0.25 z m 14.0801,1.33179 c 0,-2.10285 -1.65714,-3.58179 -4.01337,-3.58179 -2.30706,0 -2.70741,0.35174 -2.27638,2 0.37046,1.41665 1.36402,2 3.40638,2 1.58585,0 2.88337,-0.18819 2.88337,-0.41821 z m -46.71025,-7.58179 c 0.4063,-1.55372 0.0307,-2 -1.68337,-2 -2.19559,0 -4.60638,1.67475 -4.60638,3.2 0,0.44 1.29751,0.8 2.88337,0.8 2.04236,0 3.03591,-0.58335 3.40638,-2 z m 6,0 c 0.59896,-2.29042 -2.07606,-2.81369 -4.08975,-0.8 -1.84258,1.84258 -1.43794,2.8 1.18337,2.8 1.54236,0 2.56792,-0.70572 2.90638,-2 z m 6.52502,-0.25 c 0.2464,-1.29927 -0.3309,-1.75 -2.24145,-1.75 -1.41533,0 -2.57332,0.1882 -2.57332,0.41822 0,0.23001 -0.28691,1.16588 -0.63757,2.07969 -0.51799,1.34986 -0.0976,1.59965 2.24145,1.33179 1.77848,-0.20367 3.00588,-0.99865 3.21089,-2.0797 z m 19.18523,1.83179 c 0,-1.93869 -1.61171,-3.58179 -3.51337,-3.58179 -1.80706,0 -2.18741,0.42823 -1.77638,2 0.33846,1.29428 1.36402,2 2.90638,2 1.31085,0 2.38337,-0.18819 2.38337,-0.41821 z m 6,0 c 0,-1.93869 -1.61171,-3.58179 -3.51337,-3.58179 -1.80706,0 -2.18741,0.42823 -1.77638,2 0.33846,1.29428 1.36402,2 2.90638,2 1.31085,0 2.38337,-0.18819 2.38337,-0.41821 z m 7,-0.38179 c 0,-1.55722 -2.43089,-3.2 -4.73519,-3.2 -2.0253,0 -2.19314,0.2654 -1.26481,2 1.02919,1.92306 6,2.91723 6,1.2 z m -40.91032,-6.80806 c 1.36797,-1.6483 0.91252,-1.72347 -2.52458,-0.41669 -1.41081,0.53639 -2.5651,1.39426 -2.5651,1.90638 0,1.28677 3.67912,0.20993 5.08968,-1.48969 z m 4.10377,0.81461 c 0.64527,-0.64527 0.85322,-1.49321 0.4621,-1.88432 -0.39111,-0.39112 -1.66914,0.24692 -2.84007,1.41785 -1.73874,1.73874 -1.82344,2.08412 -0.4621,1.88432 0.91677,-0.13455 2.19481,-0.77259 2.84007,-1.41785 z m 4.67034,-0.87066 c -0.92845,-1.11873 -1.35559,-1.15817 -1.95954,-0.18097 -1.05409,1.70556 -0.16383,2.88192 1.6533,2.18463 1.17488,-0.45085 1.24021,-0.8783 0.30624,-2.00366 z m 22.13621,1.67064 c 0,-0.36308 1.4625,-0.51401 3.25,-0.3354 l 3.25,0.32475 -3,-1.40074 c -1.94262,-0.90704 -3.22029,-1.04492 -3.625,-0.39118 -0.40946,0.6614 -0.8609,0.62788 -1.30902,-0.0972 -0.37621,-0.60872 -1.34829,-1.10676 -2.16018,-1.10676 -1.12156,0 -1.24047,0.44041 -0.495,1.83333 0.91852,1.71628 4.0892,2.62594 4.0892,1.17319 z m -6.01024,-1.51886 c -0.95466,-1.1503 -1.58243,-1.24068 -2.62244,-0.37755 -1.92451,1.5972 -1.73013,1.88988 1.25512,1.88988 2.22719,0 2.43327,-0.22794 1.36732,-1.51233 z"
         id="path46" />
      <path
         style="fill:#000000"
         d="m 187.2175,124.09557 c -10.03571,-2.36314 -17.11677,-8.69775 -18.80316,-16.82103 -1.20585,-5.80858 -0.67809,-16.796751 0.95254,-19.83187 0.51873,-0.96554 3.5734,-3.105527 6.78814,-4.755527 5.27711,-2.708536 6.69508,-2.986884 14.59498,-2.865002 4.8125,0.07425 8.75,-0.263251 8.75,-0.75 0,-0.486749 0.675,-0.884998 1.5,-0.884998 1.19894,0 1.5,1.493443 1.5,7.440983 0,7.697968 -1.31417,10.493079 -2.93238,6.236872 -1.19646,-3.146927 -8.39039,-5.677855 -16.13877,-5.677855 -6.55699,0 -6.92885,0.441979 -6.92885,8.235464 v 5.071889 l 11.8793,-0.638745 c 6.53362,-0.351309 12.60862,-0.918609 13.5,-1.260665 1.89561,-0.727412 2.19461,1.65118 0.58552,4.657794 -0.93468,1.74646 -2.19384,1.93426 -12.96862,1.93426 -13.57004,0 -13.8056,0.23928 -7.14389,7.25644 5.14713,5.42177 17.78401,9.75905 19.64769,6.74356 0.73747,-1.19325 3.5,-1.34519 3.5,-0.1925 0,0.44413 -2.03816,2.24413 -4.52924,4 -4.68609,3.30307 -7.08912,3.67015 -13.75326,2.10093 z m 42.6089,0.0361 C 217.3456,121.69705 211.5,113.8063 211.5,99.393546 c 0,-8.791336 1.45029,-12.002649 6.29634,-13.94165 3.42393,-1.369987 3.75917,-1.740122 2.13303,-2.355047 C 209.16012,79.024459 206.5,77.826597 206.5,77.049561 c 0,-0.497913 1.2375,-1.44291 2.75,-2.099994 1.5125,-0.657085 4.14248,-2.222437 5.84439,-3.478562 3.79616,-2.801814 5.75601,-2.963229 4.94477,-0.407256 -0.76132,2.398721 4.83125,5.154097 16.51725,8.137797 4.56633,1.165888 9.5083,2.74338 10.98215,3.505538 4.00456,2.070838 5.4544,6.673506 5.23265,16.611592 -0.23794,10.663624 -2.26492,16.313104 -6.64516,18.521044 -1.71933,0.86666 -4.25105,2.59882 -5.62605,3.84924 -3.2112,2.92025 -5.51849,3.44829 -10.6736,2.44269 z m 11.75462,-8.5959 c 2.05927,-3.84778 1.99615,-24.703196 -0.081,-26.768932 -0.825,-0.82046 -5.24274,-2.361285 -9.8172,-3.424054 l -8.31721,-1.932309 -1.03764,2.63834 c -1.73339,4.407394 -2.1813,14.528605 -0.82948,18.743675 2.04304,6.37035 5.53204,10.18858 10.7873,11.80518 6.65903,2.04843 7.69392,1.93021 9.29525,-1.0619 z M 298,124.25207 c -14.09383,-3.43112 -20.70759,-16.90081 -16.03092,-32.648839 1.41456,-4.763338 1.74915,-5.085501 9.01654,-8.681501 6.14763,-3.041928 8.64515,-3.734587 13.46582,-3.734587 3.2551,0 7.07266,0.438862 8.48346,0.975249 2.38843,0.908079 2.5651,1.420575 2.5651,7.440983 0,6.694832 -1.46017,9.582799 -2.58306,5.10885 -1.19835,-4.774595 -4.81746,-6.525082 -13.49053,-6.525082 h -7.80386 l -0.62657,4.75 c -0.34461,2.6125 -0.77643,5.946258 -0.95959,7.408351 -0.565,4.510046 1.41304,11.307556 4.14908,14.258246 4.95346,5.34209 16.8942,8.60373 20.0274,5.47054 1.28313,-1.28314 3.61896,-0.23307 2.71938,1.22248 -0.3302,0.53428 -2.3536,2.07819 -4.49644,3.4309 -3.9814,2.51335 -8.43974,2.98415 -14.43581,1.52441 z m -35.63179,-0.70794 c -0.0725,-0.47134 -0.0244,-9.00923 0.10685,-18.97308 0.2426,-18.41701 -0.37949,-22.383907 -3.51024,-22.383907 -0.80565,0 -1.46482,-0.675 -1.46482,-1.5 0,-1.075269 1.09722,-1.5 3.875,-1.5 2.13125,0 5.17956,-0.260912 6.77402,-0.579804 l 2.89902,-0.579803 -0.024,19.632902 -0.024,19.632902 2.49347,1.88486 c 2.76344,2.08892 2.41837,2.36803 -4.31448,3.48966 -2.10156,0.35011 -4.46406,0.88331 -5.25,1.18491 -0.78595,0.30159 -1.48829,0.16271 -1.56078,-0.30864 z M 49.630604,112.43714 C 41.822805,98.550118 38.597603,93.444855 38.417205,94.687143 c -0.07987,0.55 -0.431413,6.849997 -0.78121,13.999997 l -0.635995,13 -4.25,0.23866 c -2.3375,0.13127 -4.25,0.0737 -4.25,-0.12787 0,-0.2016 0.622294,-1.884 1.382875,-3.73866 0.760581,-1.85467 1.650834,-6.52213 1.97834,-10.37213 0.327506,-3.85 0.89298,-10.495206 1.256609,-14.767128 0.566947,-6.6605 0.405475,-8.049643 -1.133328,-9.75 -0.986959,-1.090578 -2.662227,-1.982869 -3.722817,-1.982869 -1.096451,0 -1.750037,-0.539255 -1.515022,-1.25 0.266863,-0.807062 2.964017,-1.354313 7.611549,-1.544379 l 7.198224,-0.294379 3.660748,7.794379 c 4.175043,8.889401 11.069501,20.294376 12.268218,20.294376 1.276514,0 6.556666,-8.772662 10.533021,-17.499997 4.830075,-10.601086 4.865465,-10.666397 5.731583,-10.577221 0.4125,0.04247 3.45,0.07722 6.75,0.07722 6.532604,0 7.90429,1.4402 3,3.149845 l -3,1.045805 0.04355,13.652175 c 0.03987,12.498553 0.583496,17.705493 2.495477,23.902173 0.662971,2.14867 0.441292,2.25 -4.922396,2.25 H 72.5 v -14.55901 c 0,-10.600302 -0.308417,-14.368409 -1.134267,-13.858006 -0.623846,0.385559 -4.254958,7.162116 -8.069136,15.059016 -3.814178,7.8969 -7.089461,14.358 -7.278408,14.358 -0.188946,0 -3.063359,-4.8375 -6.387585,-10.75 z m 281.492876,9.0443 c 0.4793,-0.98686 1.00536,-9.58228 1.16902,-19.10093 l 0.29758,-17.306628 -4.79504,0.30663 c -4.55542,0.291308 -4.79696,0.453023 -4.83355,3.236135 -0.0654,4.972046 -2.19659,3.993531 -3.87471,-1.779003 -2.6979,-9.280432 -3.80351,-8.648694 15.16322,-8.664156 9.2125,-0.0075 17.7625,-0.284994 19,-0.616631 2.59513,-0.695468 2.95577,0.987181 1.08948,5.083233 -1.05074,2.306128 -1.71286,2.547053 -7,2.547053 H 341.5 v 16.521437 16.52144 l 2.5259,1.15088 c 4.3509,1.9824 2.17479,3.2926 -5.98014,3.60054 -7.2039,0.27202 -7.72778,0.1585 -6.92228,-1.5 z m 19.2122,1.20805 c -0.35774,-0.35774 1.23965,-3.87961 3.54976,-7.82639 7.98203,-13.63719 14.41622,-29.144493 13.29968,-32.054133 -0.38459,-1.002223 -1.78046,-1.621824 -3.65374,-1.621824 -1.95299,0 -3.03138,-0.505509 -3.03138,-1.420996 0,-1.074456 1.85306,-1.50123 7.59855,-1.75 4.35634,-0.188622 7.86689,0.09768 8.22746,0.670996 0.34591,0.55 2.30296,5.146795 4.349,10.215101 2.04605,5.068306 6.21869,14.471616 9.27254,20.896246 3.05385,6.42463 5.55245,11.84033 5.55245,12.0349 0,0.19456 -2.45766,0.35375 -5.46146,0.35375 h -5.46145 l -1.13975,-4.23269 c -2.39325,-8.88786 -3.98456,-11.75295 -6.2873,-11.32009 -1.18252,0.22229 -4.66733,0.4376 -7.74402,0.47847 l -5.59398,0.0743 -2.37789,7.5 c -1.30785,4.125 -2.8968,7.5 -3.53102,7.5 -0.63422,0 -2.45001,0.25938 -4.03507,0.57639 -1.58507,0.31702 -3.17464,0.2837 -3.53238,-0.074 z m 24.65171,-26.126777 c -1.36806,-3.093437 -2.48739,-5.883437 -2.48739,-6.2 0,-1.591919 -2.08952,1.917984 -3.91389,6.57443 l -2.05693,5.249997 h 5.4728 5.4728 z M 88.5,121.57982 c 0,-0.39429 2.000995,-4.13145 4.446656,-8.30479 4.442178,-7.58025 12.797424,-24.734588 13.964494,-28.670827 0.47034,-1.586325 0.007,-2.36119 -1.94384,-3.25 -1.40878,-0.641883 -3.25274,-1.16706 -4.0977,-1.16706 -0.84495,0 -1.350162,-0.5625 -1.122689,-1.25 0.271109,-0.819384 3.056539,-1.350628 8.085589,-1.542105 7.19852,-0.274077 7.72785,-0.150648 8.57706,2 0.49779,1.260658 2.35321,6.117105 4.12317,10.792105 1.76996,4.675 5.61589,13.584597 8.54651,19.799107 5.84009,12.38416 5.81606,12.5561 -1.67901,12.01398 -4.00694,-0.28982 -4.37839,-0.55858 -4.99913,-3.61697 -0.3688,-1.81714 -1.43465,-5.30464 -2.36854,-7.75 l -1.69799,-4.44612 h -7.6846 -7.6846 l -2.19281,5.75 c -1.206045,3.1625 -2.327303,6.65 -2.491684,7.75 -0.242666,1.62386 -1.190512,2.05732 -5.03988,2.30479 C 90.633452,122.15957 88.5,121.97412 88.5,121.57982 Z m 27.06816,-21.642677 c -0.48529,-1.2375 -1.7359,-4.230377 -2.77912,-6.650838 l -1.89678,-4.400838 -2.69613,6.216752 c -1.48287,3.419213 -2.69613,6.412091 -2.69613,6.650841 0,0.23874 2.46386,0.43408 5.47525,0.43408 5.2728,0 5.44262,-0.0832 4.59291,-2.249997 z M 136.5,121.59744 c 0,-0.32434 1.0125,-1.40885 2.25,-2.41001 2.18477,-1.76752 2.25937,-2.43341 2.57306,-22.969797 0.33751,-22.095878 0.0199,-24.03049 -3.9455,-24.03049 -1.03266,0 -1.87756,-0.625815 -1.87756,-1.3907 0,-1.030439 2.00764,-1.503725 7.75,-1.827003 4.2625,-0.239967 7.85878,-0.367875 7.99173,-0.28424 0.13295,0.08364 -0.25267,6.418286 -0.85694,14.077003 -1.37835,17.469817 -0.8663,32.191847 1.16435,33.476477 0.79797,0.50481 3.25086,0.92878 5.45086,0.94216 3.31402,0.0202 4.45842,-0.53348 6.67306,-3.22829 3.52624,-4.29078 4.42399,-3.07904 2.34846,3.16981 l -1.68225,5.06478 h -13.91964 c -7.6558,0 -13.91963,-0.26537 -13.91963,-0.5897 z M 263.8891,74.175698 c -2.79143,-1.085938 -3.4833,-3.163772 -2.02957,-6.09529 1.39917,-2.821497 5.74018,-3.682974 7.55283,-1.498865 2.94951,3.55394 -1.20949,9.27232 -5.52326,7.594155 z"
         id="path14" />
      <g
         aria-label="THE INTERNATIONAL JOURNAL OF VERBAL AGGRESSION"
         id="text70"
         style="font-weight:bold;font-size:13.3712px;line-height:1.25;font-family:'Garamond Premier Pro';-inkscape-font-specification:'Garamond Premier Pro Bold';text-align:end;letter-spacing:0px;word-spacing:0px;text-anchor:end;stroke-width:0.999998">
        <path
           d="m 30.889629,138.35971 c -0.508105,0 -2.620755,-0.0535 -2.874808,-0.0802 -0.294166,-0.0267 -0.56159,-0.12034 -0.601704,-0.1872 -0.05348,-0.0936 -0.133712,-0.21394 -0.22731,-0.21394 -0.10697,0 -0.227311,0.25406 -0.227311,0.29417 -0.02674,0.62845 -0.254052,1.56443 -0.254052,1.81848 0,0.13372 0.06686,0.30754 0.22731,0.30754 0.06686,0 0.133712,-0.13371 0.307538,-0.40113 0.160454,-0.25406 0.294166,-0.50811 0.467992,-0.70868 0.133712,-0.14708 0.548219,-0.30754 0.615075,-0.30754 0.33428,0 1.203408,0.0134 1.444089,0.0535 0.04011,0 0.160455,0.0535 0.160455,0.1872 0,0.22731 0.01337,0.77553 0.01337,1.53768 0,1.01621 -0.06686,3.65034 -0.120341,4.43924 -0.05348,0.90924 -0.133712,1.05633 -0.962726,1.27027 -0.147083,0.0401 -0.320909,0.16045 -0.320909,0.30753 0,0.10697 0.173826,0.16046 0.427878,0.16046 0.240682,0 1.44409,-0.0802 1.738256,-0.0802 0.240682,0 2.099279,0.0535 2.206248,0.0535 0.147083,0 0.361023,-0.0802 0.361023,-0.1872 0,-0.0669 -0.120341,-0.24068 -0.307538,-0.2808 -0.935984,-0.18719 -1.056325,-0.49473 -1.083067,-0.84238 -0.05348,-0.74879 -0.08023,-2.24636 -0.08023,-3.78405 0,-1.14992 0.02674,-1.92545 0.02674,-2.54053 0,-0.0669 0.04011,-0.14708 0.133712,-0.16045 0.414507,-0.0535 1.149923,-0.0669 1.510946,-0.0669 0.588332,0 0.748787,0.14708 0.909241,0.94936 0.06686,0.34765 0.160455,0.4145 0.254053,0.4145 0.173826,0 0.267424,-0.26742 0.267424,-0.38776 0.01337,-0.41451 0.173826,-1.21678 0.267424,-1.56443 0.05349,-0.1872 -0.08023,-0.36103 -0.147083,-0.36103 -0.05349,0 -0.120341,0.0535 -0.227311,0.12035 -0.173825,0.0936 -0.361022,0.14708 -1.083067,0.20056 -0.387765,0.0267 -2.045793,0.0401 -2.821323,0.0401 z"
           style="stroke-width:0.999998"
           id="path925" />
        <path
           d="m 39.059406,141.96993 c -0.05348,-0.28079 0.02674,-1.72488 0.04011,-2.21962 0.01337,-0.54822 0.04011,-0.81564 0.574962,-0.93598 0.294166,-0.0669 0.481363,-0.17383 0.481363,-0.32091 0,-0.13371 -0.160455,-0.1872 -0.44125,-0.1872 -0.320909,0 -1.029582,0.0535 -1.577801,0.0535 -0.361023,0 -1.203408,-0.0669 -1.564431,-0.0669 -0.254052,0 -0.427878,0.0535 -0.427878,0.20057 0,0.12034 0.173826,0.21394 0.494734,0.32091 0.387765,0.13371 0.521477,0.25405 0.54822,0.70867 0.02674,0.50811 0.01337,0.98947 0.01337,1.4842 0,1.65803 -0.06686,3.87765 -0.133712,4.4125 -0.06686,0.57496 -0.200568,0.73542 -0.735416,0.8825 -0.267424,0.0802 -0.414507,0.16045 -0.414507,0.32091 0,0.10697 0.133712,0.1872 0.508105,0.1872 0.44125,0 1.190037,-0.0535 1.497575,-0.0535 0.467992,0 1.711513,0.0401 1.805111,0.0401 0.173826,0 0.454621,-0.0535 0.454621,-0.20056 0,-0.14709 -0.22731,-0.2808 -0.508105,-0.36103 -0.54822,-0.16045 -0.588333,-0.34765 -0.601704,-0.97609 -0.01337,-0.44125 -0.05349,-1.72489 -0.01337,-2.29985 0,-0.0802 0.0936,-0.17383 0.173826,-0.1872 0.267424,-0.0267 3.062005,0 3.650338,0 0.04011,0 0.08023,0.0669 0.0936,0.13372 0.02674,0.21393 0.01337,1.63128 -0.02674,2.15276 -0.06686,1.01621 -0.08023,1.09644 -0.708674,1.25689 -0.200568,0.0535 -0.401136,0.17383 -0.401136,0.29417 0,0.12034 0.147083,0.20057 0.521477,0.20057 0.267424,0 1.363862,-0.0535 1.6714,-0.0535 0.387765,0 1.23015,0.0401 1.45746,0.0401 0.240682,0 0.454621,-0.0401 0.454621,-0.20056 0,-0.12034 -0.147083,-0.21394 -0.414507,-0.30754 -0.494734,-0.16046 -0.628446,-0.20057 -0.641817,-0.72205 -0.01337,-0.56159 -0.05348,-1.01621 -0.05348,-2.67424 0,-1.71151 0.04011,-2.79458 0.106969,-3.39628 0.04011,-0.40114 0.0936,-0.58833 0.548219,-0.6953 0.307538,-0.0802 0.44125,-0.16046 0.44125,-0.30754 0,-0.10697 -0.160454,-0.1872 -0.427878,-0.1872 -0.160455,0 -1.123181,0.0535 -1.551059,0.0535 -0.347652,0 -1.390605,-0.0535 -1.564431,-0.0535 -0.320909,0 -0.467992,0.10697 -0.467992,0.20057 0,0.13371 0.227311,0.22731 0.427879,0.2808 0.494734,0.13371 0.56159,0.28079 0.615075,0.76215 0.05349,0.52148 0.05349,1.99231 0.02674,2.16614 -0.01337,0.16045 -0.06686,0.32091 -0.106969,0.32091 -0.935984,0 -2.687612,0.0535 -3.650338,0.0535 -0.0936,0 -0.160454,-0.0802 -0.173826,-0.12034 z"
           style="stroke-width:0.999998"
           id="path927" />
        <path
           d="m 49.635994,138.35971 c -0.615076,0 -1.992309,-0.0401 -2.620755,-0.0401 -0.173826,0 -0.427879,0.0802 -0.427879,0.20057 0,0.16046 0.160455,0.21394 0.44125,0.26743 0.574961,0.0936 0.66856,0.40113 0.695302,0.84238 0.02674,0.38777 0.01337,1.14992 0.01337,2.72773 0,1.64465 -0.06686,2.40681 -0.106969,2.95503 -0.05349,0.72205 -0.187197,0.8825 -0.869128,1.04295 -0.240682,0.0535 -0.414507,0.16046 -0.414507,0.29417 0,0.13371 0.22731,0.17383 0.481363,0.17383 0.45462,0 0.548219,-0.0669 1.524316,-0.0669 0.427879,0 4.359012,0.0535 4.506095,0.0535 0.06686,0 0.320909,-0.0669 0.374393,-0.1872 0.120341,-0.26743 0.521477,-1.49758 0.521477,-1.60455 0,-0.0936 0.04011,-0.40113 -0.120341,-0.40113 -0.12034,0 -0.254052,0.14708 -0.467992,0.5081 -0.267424,0.468 -0.641817,0.82902 -1.029582,0.98947 -0.347651,0.14709 -0.695302,0.13372 -1.203408,0.13372 -0.427878,0 -0.815643,-0.0267 -1.016211,-0.0669 -0.160455,-0.0401 -0.294167,-0.24068 -0.307538,-0.34765 -0.05349,-0.30754 -0.01337,-0.80227 -0.02674,-1.08307 -0.01337,-0.38776 -0.02674,-1.31038 0.01337,-1.73826 0,-0.0267 0.147083,-0.18719 0.200568,-0.18719 0.44125,0 0.922613,0 1.350491,0.0401 0.387765,0.0401 0.601704,0.17383 0.77553,0.73542 0.04011,0.14708 0.160454,0.30754 0.267424,0.30754 0.120341,0 0.213939,-0.17383 0.187197,-0.41451 -0.04011,-0.36102 -0.05349,-0.60171 -0.05349,-0.94936 0,-0.29416 0.02674,-0.53485 0.05349,-0.89587 0.01337,-0.18719 -0.02674,-0.4145 -0.147084,-0.4145 -0.133712,0 -0.22731,0.17382 -0.320908,0.37439 -0.254053,0.56159 -0.200568,0.62845 -1.00284,0.62845 h -1.149924 c -0.0936,0 -0.160454,-0.10697 -0.160454,-0.14709 0,-0.9761 0.04011,-2.52715 0.05349,-2.84806 0.01337,-0.33428 0.106969,-0.38777 0.160454,-0.38777 1.243522,0 1.644658,0.0535 1.845226,0.0936 0.254053,0.0535 0.66856,0.2808 0.842385,1.04295 0.02674,0.14709 0.147084,0.34765 0.267424,0.34765 0.120341,0 0.227311,-0.20056 0.227311,-0.38776 0,-0.26742 0,-1.45746 -0.01337,-1.51095 -0.01337,-0.0936 -0.120341,-0.20056 -0.173826,-0.18719 -0.187197,0.0401 -0.722045,0.10697 -1.163294,0.10697 z"
           style="stroke-width:0.999998"
           id="path929" />
        <path
           d="m 58.287128,142.23736 c 0,1.13655 -0.02674,2.50041 -0.05349,3.03526 -0.02674,0.54822 -0.133712,0.86913 -0.722045,1.01621 -0.294166,0.0802 -0.414507,0.17382 -0.414507,0.26742 0,0.14709 0.10697,0.24068 0.454621,0.24068 0.494734,0 1.029582,-0.0401 1.417347,-0.0401 0.655189,-0.0134 1.551059,0.0535 2.00568,0.0669 0.160455,0 0.44125,-0.0267 0.44125,-0.1872 0,-0.14708 -0.133712,-0.24068 -0.374394,-0.30754 -0.708673,-0.20057 -0.788901,-0.32091 -0.855757,-1.13655 -0.02674,-0.38776 -0.04011,-0.85576 -0.04011,-2.90155 0,-2.12602 0.02674,-2.42019 0.04011,-2.68761 0.02674,-0.34765 0.0936,-0.6953 0.708674,-0.80227 0.22731,-0.0401 0.44125,-0.14709 0.44125,-0.29417 0,-0.13371 -0.227311,-0.20057 -0.454621,-0.20057 -0.467992,0 -1.00284,0.0535 -1.658029,0.0535 -0.44125,0 -1.149923,-0.0535 -1.56443,-0.0535 -0.267424,0 -0.481364,0.0936 -0.481364,0.20057 0,0.10697 0.0936,0.20057 0.427879,0.29417 0.615075,0.16045 0.615075,0.37439 0.655189,1.01621 0.04011,0.54822 0.02674,1.80511 0.02674,2.42019 z"
           style="stroke-width:0.999998"
           id="path931" />
        <path
           d="m 61.750237,138.50679 c 0,0.10697 0.22731,0.22731 0.374394,0.25405 0.735416,0.14709 0.802272,0.42788 0.976097,0.64182 0.05349,0.0669 0.06686,0.24068 0.06686,0.80227 0,0.8825 -0.160454,3.14223 -0.22731,4.85375 -0.04011,1.00284 -0.387765,1.13655 -0.989469,1.31038 -0.133712,0.0401 -0.320909,0.0936 -0.320909,0.25405 0,0.0936 0.160455,0.1872 0.347651,0.1872 0.227311,0 1.176666,-0.0535 1.470832,-0.0535 0.467992,0 0.655189,0.0401 1.042954,0.0401 0.254053,0 0.44125,-0.0535 0.44125,-0.21393 0,-0.0802 -0.120341,-0.17383 -0.387765,-0.25406 -0.655189,-0.20057 -0.802272,-0.45462 -0.842386,-0.7889 -0.0936,-0.76216 -0.08023,-1.28363 -0.05349,-3.46314 0.01337,-1.05632 0.04011,-1.33712 0.06686,-1.69814 0,-0.0267 0.08023,-0.16046 0.147084,-0.0802 1.176665,1.37723 3.289315,3.54337 4.546207,5.09443 0.361023,0.44125 0.628447,0.72204 0.895871,1.08307 0.120341,0.17382 0.454621,0.54821 0.775529,0.54821 0.04011,0 0.240682,-0.12034 0.240682,-0.24068 0,-0.40113 -0.08023,-1.6714 -0.08023,-2.21962 0,-0.57496 0.08023,-4.33226 0.133712,-4.80026 0.06686,-0.45462 0.05348,-0.76216 0.815643,-1.01621 0.22731,-0.0802 0.33428,-0.20057 0.33428,-0.26742 0,-0.10697 -0.0936,-0.20057 -0.320909,-0.20057 -0.347651,0 -0.962726,0.0802 -1.6714,0.0802 -0.200568,0 -0.481363,-0.0134 -0.802272,-0.0134 -0.267424,0 -0.401136,0.0936 -0.401136,0.18719 0,0.17383 0.200568,0.24068 0.481363,0.30754 0.628447,0.16045 0.77553,0.44125 0.815644,0.70867 0.04011,0.32091 0.08023,1.02959 0.08023,1.47084 0,0.73541 0.04011,2.28647 -0.02674,2.66086 0,0.0267 -0.05348,0.12035 -0.106969,0.0669 -0.615075,-0.62845 -3.075376,-3.11549 -3.770679,-3.93113 -0.56159,-0.62845 -0.949355,-1.04296 -1.149923,-1.28364 -0.02674,-0.0267 -0.240681,-0.17382 -0.307537,-0.17382 -0.681931,0 -1.925453,-0.0669 -2.219619,-0.0669 -0.200568,0 -0.374394,0.10697 -0.374394,0.21394 z"
           style="stroke-width:0.999998"
           id="path933" />
        <path
           d="m 76.351574,138.35971 c -0.508106,0 -2.620755,-0.0535 -2.874808,-0.0802 -0.294167,-0.0267 -0.561591,-0.12034 -0.601704,-0.1872 -0.05348,-0.0936 -0.133712,-0.21394 -0.227311,-0.21394 -0.106969,0 -0.22731,0.25406 -0.22731,0.29417 -0.02674,0.62845 -0.254053,1.56443 -0.254053,1.81848 0,0.13372 0.06686,0.30754 0.227311,0.30754 0.06686,0 0.133712,-0.13371 0.307537,-0.40113 0.160455,-0.25406 0.294167,-0.50811 0.467992,-0.70868 0.133712,-0.14708 0.548219,-0.30754 0.615075,-0.30754 0.33428,0 1.203408,0.0134 1.44409,0.0535 0.04011,0 0.160454,0.0535 0.160454,0.1872 0,0.22731 0.01337,0.77553 0.01337,1.53768 0,1.01621 -0.06686,3.65034 -0.120341,4.43924 -0.05349,0.90924 -0.133712,1.05633 -0.962727,1.27027 -0.147083,0.0401 -0.320908,0.16045 -0.320908,0.30753 0,0.10697 0.173825,0.16046 0.427878,0.16046 0.240682,0 1.44409,-0.0802 1.738256,-0.0802 0.240681,0 2.099278,0.0535 2.206248,0.0535 0.147083,0 0.361022,-0.0802 0.361022,-0.1872 0,-0.0669 -0.120341,-0.24068 -0.307537,-0.2808 -0.935984,-0.18719 -1.056325,-0.49473 -1.083068,-0.84238 -0.05348,-0.74879 -0.08023,-2.24636 -0.08023,-3.78405 0,-1.14992 0.02674,-1.92545 0.02674,-2.54053 0,-0.0669 0.04011,-0.14708 0.133712,-0.16045 0.414507,-0.0535 1.149923,-0.0669 1.510945,-0.0669 0.588333,0 0.748787,0.14708 0.909242,0.94936 0.06686,0.34765 0.160454,0.4145 0.254053,0.4145 0.173825,0 0.267424,-0.26742 0.267424,-0.38776 0.01337,-0.41451 0.173825,-1.21678 0.267424,-1.56443 0.05348,-0.1872 -0.08023,-0.36103 -0.147084,-0.36103 -0.05348,0 -0.12034,0.0535 -0.22731,0.12035 -0.173826,0.0936 -0.361022,0.14708 -1.083067,0.20056 -0.387765,0.0267 -2.045794,0.0401 -2.821323,0.0401 z"
           style="stroke-width:0.999998"
           id="path935" />
        <path
           d="m 84.548095,138.35971 c -0.615075,0 -1.992308,-0.0401 -2.620755,-0.0401 -0.173825,0 -0.427878,0.0802 -0.427878,0.20057 0,0.16046 0.160454,0.21394 0.441249,0.26743 0.574962,0.0936 0.66856,0.40113 0.695303,0.84238 0.02674,0.38777 0.01337,1.14992 0.01337,2.72773 0,1.64465 -0.06686,2.40681 -0.10697,2.95503 -0.05348,0.72205 -0.187196,0.8825 -0.869128,1.04295 -0.240681,0.0535 -0.414507,0.16046 -0.414507,0.29417 0,0.13371 0.227311,0.17383 0.481363,0.17383 0.454621,0 0.54822,-0.0669 1.524317,-0.0669 0.427879,0 4.359011,0.0535 4.506094,0.0535 0.06686,0 0.320909,-0.0669 0.374394,-0.1872 0.120341,-0.26743 0.521477,-1.49758 0.521477,-1.60455 0,-0.0936 0.04011,-0.40113 -0.120341,-0.40113 -0.120341,0 -0.254053,0.14708 -0.467992,0.5081 -0.267424,0.468 -0.641818,0.82902 -1.029582,0.98947 -0.347651,0.14709 -0.695303,0.13372 -1.203408,0.13372 -0.427879,0 -0.815643,-0.0267 -1.016211,-0.0669 -0.160455,-0.0401 -0.294167,-0.24068 -0.307538,-0.34765 -0.05349,-0.30754 -0.01337,-0.80227 -0.02674,-1.08307 -0.01337,-0.38776 -0.02674,-1.31038 0.01337,-1.73826 0,-0.0267 0.147083,-0.18719 0.200568,-0.18719 0.441249,0 0.922613,0 1.350491,0.0401 0.387765,0.0401 0.601704,0.17383 0.77553,0.73542 0.04011,0.14708 0.160454,0.30754 0.267423,0.30754 0.120341,0 0.21394,-0.17383 0.187197,-0.41451 -0.04011,-0.36102 -0.05349,-0.60171 -0.05349,-0.94936 0,-0.29416 0.02674,-0.53485 0.05349,-0.89587 0.01337,-0.18719 -0.02674,-0.4145 -0.147083,-0.4145 -0.133712,0 -0.22731,0.17382 -0.320909,0.37439 -0.254052,0.56159 -0.200568,0.62845 -1.00284,0.62845 h -1.149923 c -0.0936,0 -0.160454,-0.10697 -0.160454,-0.14709 0,-0.9761 0.04011,-2.52715 0.05348,-2.84806 0.01337,-0.33428 0.106969,-0.38777 0.160454,-0.38777 1.243522,0 1.644658,0.0535 1.845226,0.0936 0.254052,0.0535 0.668559,0.2808 0.842385,1.04295 0.02674,0.14709 0.147083,0.34765 0.267424,0.34765 0.120341,0 0.22731,-0.20056 0.22731,-0.38776 0,-0.26742 0,-1.45746 -0.01337,-1.51095 -0.01337,-0.0936 -0.120341,-0.20056 -0.173825,-0.18719 -0.187197,0.0401 -0.722045,0.10697 -1.163295,0.10697 z"
           style="stroke-width:0.999998"
           id="path937" />
        <path
           d="m 96.56877,140.43224 c 0,-0.6017 -0.307537,-1.24352 -0.695302,-1.56443 -0.695302,-0.57496 -1.938824,-0.6017 -2.393445,-0.6017 -0.722044,0 -1.925452,0.0669 -2.406816,0.0669 -0.280795,0 -0.681931,0 -1.096438,0 -0.187197,0 -0.401136,0.12035 -0.401136,0.21394 0,0.10697 0.160454,0.21394 0.347651,0.25406 0.641818,0.14708 0.748787,0.42788 0.77553,0.66856 0.02674,0.29416 0.05348,1.3906 0.05348,2.51378 0,1.28364 0.02674,2.28648 -0.08023,3.59686 -0.02674,0.38776 -0.133712,0.58833 -0.762158,0.77552 -0.173826,0.0535 -0.33428,0.16046 -0.33428,0.22732 0,0.12034 0.05349,0.22731 0.454621,0.22731 0.147083,0 0.802272,-0.0535 1.390605,-0.0535 0.521476,0 1.270264,0.0802 1.711513,0.0802 0.200568,0 0.454621,-0.0669 0.454621,-0.21394 0,-0.10697 -0.10697,-0.20057 -0.33428,-0.26743 -0.601704,-0.16045 -0.66856,-0.26742 -0.722045,-0.85575 -0.04011,-0.54822 -0.05349,-2.3667 -0.02674,-2.6475 0.01337,-0.0669 0.106969,-0.12034 0.147083,-0.12034 0.173826,0 0.374394,0.0936 0.494734,0.17383 0.120341,0.0802 0.280796,0.36102 0.361023,0.5081 0.574961,1.02958 1.270264,2.15276 1.591172,2.60738 0.227311,0.32091 0.641818,0.86913 2.139392,0.86913 0.120341,0 0.735416,-0.0267 0.962727,-0.12034 0.106969,-0.0267 0.240681,-0.13371 0.240681,-0.21394 0,-0.0535 -0.12034,-0.16045 -0.254052,-0.18719 -0.320909,-0.0669 -0.708674,-0.1872 -1.069696,-0.60171 -0.601704,-0.72204 -1.698143,-2.58064 -2.00568,-3.22246 -0.02674,-0.0535 -0.05349,-0.14708 0.01337,-0.17382 0.240681,-0.12034 0.534848,-0.26743 0.588333,-0.32091 0.548219,-0.48136 0.855756,-0.89587 0.855756,-1.61792 z m -1.885339,0.21394 c 0,0.70868 -0.320908,1.13655 -0.681931,1.41735 -0.120341,0.0802 -0.695302,0.26742 -1.33712,0.26742 -0.05348,0 -0.147083,-0.0668 -0.160454,-0.13371 -0.05349,-0.41451 0.01337,-2.63412 0.05348,-3.07537 0.01337,-0.0802 0.0936,-0.24069 0.147083,-0.2808 0.0936,-0.0535 0.401136,-0.0936 0.454621,-0.0936 0.320908,0 0.655188,0.12034 0.962726,0.44125 0.494734,0.50811 0.56159,1.09644 0.56159,1.45746 z"
           style="stroke-width:0.999998"
           id="path939" />
        <path
           d="m 98.427338,138.50679 c 0,0.10697 0.227311,0.22731 0.374394,0.25405 0.735416,0.14709 0.802272,0.42788 0.976097,0.64182 0.05349,0.0669 0.06686,0.24068 0.06686,0.80227 0,0.8825 -0.160454,3.14223 -0.22731,4.85375 -0.04011,1.00284 -0.387765,1.13655 -0.989469,1.31038 -0.133712,0.0401 -0.320909,0.0936 -0.320909,0.25405 0,0.0936 0.160455,0.1872 0.347652,0.1872 0.22731,0 1.176665,-0.0535 1.470831,-0.0535 0.46799,0 0.65519,0.0401 1.04295,0.0401 0.25406,0 0.44125,-0.0535 0.44125,-0.21393 0,-0.0802 -0.12034,-0.17383 -0.38776,-0.25406 -0.65519,-0.20057 -0.80227,-0.45462 -0.84239,-0.7889 -0.0936,-0.76216 -0.0802,-1.28363 -0.0535,-3.46314 0.0134,-1.05632 0.0401,-1.33712 0.0669,-1.69814 0,-0.0267 0.0802,-0.16046 0.14709,-0.0802 1.17666,1.37723 3.28931,3.54337 4.54621,5.09443 0.36102,0.44125 0.62844,0.72204 0.89587,1.08307 0.12034,0.17382 0.45462,0.54821 0.77553,0.54821 0.0401,0 0.24068,-0.12034 0.24068,-0.24068 0,-0.40113 -0.0802,-1.6714 -0.0802,-2.21962 0,-0.57496 0.0802,-4.33226 0.13371,-4.80026 0.0669,-0.45462 0.0535,-0.76216 0.81565,-1.01621 0.22731,-0.0802 0.33428,-0.20057 0.33428,-0.26742 0,-0.10697 -0.0936,-0.20057 -0.32091,-0.20057 -0.34765,0 -0.96273,0.0802 -1.6714,0.0802 -0.20057,0 -0.48137,-0.0134 -0.80228,-0.0134 -0.26742,0 -0.40113,0.0936 -0.40113,0.18719 0,0.17383 0.20057,0.24068 0.48136,0.30754 0.62845,0.16045 0.77553,0.44125 0.81564,0.70867 0.0401,0.32091 0.0802,1.02959 0.0802,1.47084 0,0.73541 0.0401,2.28647 -0.0267,2.66086 0,0.0267 -0.0535,0.12035 -0.10697,0.0669 -0.61508,-0.62845 -3.07538,-3.11549 -3.77068,-3.93113 -0.56159,-0.62845 -0.94935,-1.04296 -1.14992,-1.28364 -0.0267,-0.0267 -0.24068,-0.17382 -0.30754,-0.17382 -0.68193,0 -1.925452,-0.0669 -2.219618,-0.0669 -0.200568,0 -0.374394,0.10697 -0.374394,0.21394 z"
           style="stroke-width:0.999998"
           id="path941" />
        <path
           d="m 113.10889,138.1324 c -0.0669,0 -0.17383,0.0535 -0.25405,0.17382 -0.0936,0.14709 -0.61508,0.72205 -0.82902,0.92262 -0.0401,0.0267 -0.0267,0.0669 -0.0267,0.10696 0,0.0401 -0.0669,0.22732 -0.0669,0.22732 -0.53484,1.25689 -1.95219,4.96071 -2.28647,5.58916 -0.3744,0.74878 -0.52148,1.04295 -1.20341,1.21678 -0.30754,0.0802 -0.34765,0.16045 -0.34765,0.26742 0,0.0802 0.0802,0.17383 0.42788,0.17383 0.20057,0 0.76216,-0.0535 1.28363,-0.0535 0.49474,0 0.82902,0.0267 1.0697,0.0267 0.25405,0 0.41451,-0.0802 0.41451,-0.17382 0,-0.14709 -0.10697,-0.21394 -0.38777,-0.2808 -0.45462,-0.12034 -0.61507,-0.28079 -0.61507,-0.6017 0,-0.22731 0.0535,-0.58833 0.5081,-1.73826 0.0267,-0.0535 0.10697,-0.14708 0.14708,-0.14708 0.14709,0 0.53485,-0.0535 2.28648,-0.0401 0.0401,0 0.22731,0.17382 0.24068,0.22731 0.30754,0.85575 0.56159,1.55106 0.56159,1.79174 0,0.18719 -0.0267,0.37439 -0.54822,0.5081 -0.25405,0.0669 -0.34765,0.17383 -0.34765,0.24068 0,0.13372 0.1872,0.21394 0.42788,0.21394 0.34765,0 1.04295,-0.0267 1.4842,-0.0267 0.33428,0 1.49758,0.0535 1.79174,0.0535 0.29417,0 0.44125,-0.12035 0.44125,-0.21394 0,-0.0936 -0.13371,-0.1872 -0.36102,-0.25406 -0.38776,-0.12034 -0.72204,-0.28079 -1.14992,-1.35049 -0.29417,-0.72204 -1.1633,-3.04863 -1.91208,-5.17465 -0.13372,-0.38777 -0.3744,-1.12318 -0.50811,-1.41735 -0.10697,-0.25405 -0.16045,-0.26742 -0.24068,-0.26742 z m 0.0134,5.0142 c -0.41451,-0.0134 -1.35049,0 -1.8586,0.0134 -0.0535,0 -0.13371,-0.0669 -0.10697,-0.16046 0.0535,-0.26742 0.66856,-1.85859 0.92262,-2.50041 0.0401,-0.10697 0.13371,-0.16046 0.16045,-0.0535 0.21394,0.54822 0.74879,1.99231 0.93599,2.58065 0.0267,0.0668 -0.0401,0.12034 -0.0535,0.12034 z"
           style="stroke-width:0.999998"
           id="path943" />
        <path
           d="m 120.55663,138.35971 c -0.50811,0 -2.62076,-0.0535 -2.87481,-0.0802 -0.29417,-0.0267 -0.56159,-0.12034 -0.6017,-0.1872 -0.0535,-0.0936 -0.13371,-0.21394 -0.22731,-0.21394 -0.10697,0 -0.22731,0.25406 -0.22731,0.29417 -0.0268,0.62845 -0.25406,1.56443 -0.25406,1.81848 0,0.13372 0.0669,0.30754 0.22731,0.30754 0.0669,0 0.13372,-0.13371 0.30754,-0.40113 0.16046,-0.25406 0.29417,-0.50811 0.46799,-0.70868 0.13372,-0.14708 0.54822,-0.30754 0.61508,-0.30754 0.33428,0 1.20341,0.0134 1.44409,0.0535 0.0401,0 0.16045,0.0535 0.16045,0.1872 0,0.22731 0.0134,0.77553 0.0134,1.53768 0,1.01621 -0.0669,3.65034 -0.12034,4.43924 -0.0535,0.90924 -0.13371,1.05633 -0.96272,1.27027 -0.14709,0.0401 -0.32091,0.16045 -0.32091,0.30753 0,0.10697 0.17382,0.16046 0.42788,0.16046 0.24068,0 1.44409,-0.0802 1.73825,-0.0802 0.24068,0 2.09928,0.0535 2.20625,0.0535 0.14708,0 0.36102,-0.0802 0.36102,-0.1872 0,-0.0669 -0.12034,-0.24068 -0.30754,-0.2808 -0.93598,-0.18719 -1.05632,-0.49473 -1.08306,-0.84238 -0.0535,-0.74879 -0.0802,-2.24636 -0.0802,-3.78405 0,-1.14992 0.0267,-1.92545 0.0267,-2.54053 0,-0.0669 0.0401,-0.14708 0.13371,-0.16045 0.41451,-0.0535 1.14993,-0.0669 1.51095,-0.0669 0.58833,0 0.74879,0.14708 0.90924,0.94936 0.0669,0.34765 0.16046,0.4145 0.25405,0.4145 0.17383,0 0.26743,-0.26742 0.26743,-0.38776 0.0134,-0.41451 0.17382,-1.21678 0.26742,-1.56443 0.0535,-0.1872 -0.0802,-0.36103 -0.14708,-0.36103 -0.0535,0 -0.12034,0.0535 -0.22731,0.12035 -0.17383,0.0936 -0.36102,0.14708 -1.08307,0.20056 -0.38776,0.0267 -2.04579,0.0401 -2.82132,0.0401 z"
           style="stroke-width:0.999998"
           id="path945" />
        <path
           d="m 126.85444,142.23736 c 0,1.13655 -0.0267,2.50041 -0.0535,3.03526 -0.0267,0.54822 -0.13371,0.86913 -0.72204,1.01621 -0.29417,0.0802 -0.41451,0.17382 -0.41451,0.26742 0,0.14709 0.10697,0.24068 0.45462,0.24068 0.49473,0 1.02958,-0.0401 1.41735,-0.0401 0.65519,-0.0134 1.55106,0.0535 2.00568,0.0669 0.16045,0 0.44125,-0.0267 0.44125,-0.1872 0,-0.14708 -0.13371,-0.24068 -0.3744,-0.30754 -0.70867,-0.20057 -0.7889,-0.32091 -0.85575,-1.13655 -0.0267,-0.38776 -0.0401,-0.85576 -0.0401,-2.90155 0,-2.12602 0.0267,-2.42019 0.0401,-2.68761 0.0267,-0.34765 0.0936,-0.6953 0.70867,-0.80227 0.22731,-0.0401 0.44125,-0.14709 0.44125,-0.29417 0,-0.13371 -0.22731,-0.20057 -0.45462,-0.20057 -0.46799,0 -1.00284,0.0535 -1.65803,0.0535 -0.44125,0 -1.14992,-0.0535 -1.56443,-0.0535 -0.26742,0 -0.48136,0.0936 -0.48136,0.20057 0,0.10697 0.0936,0.20057 0.42788,0.29417 0.61507,0.16045 0.61507,0.37439 0.65518,1.01621 0.0401,0.54822 0.0267,1.80511 0.0267,2.42019 z"
           style="stroke-width:0.999998"
           id="path947" />
        <path
           d="m 135.61256,138.1324 c -1.20341,0 -2.31322,0.53484 -2.90155,0.98947 -0.98947,0.77553 -1.69814,1.79174 -1.69814,3.40965 0,1.27027 0.42787,2.31322 1.16329,3.07538 0.85576,0.8825 2.05916,1.3906 3.47651,1.3906 1.19004,0 2.33996,-0.46799 3.06201,-1.05632 0.90924,-0.77553 1.59117,-1.83186 1.59117,-3.51663 0,-1.95219 -1.55106,-4.29215 -4.69329,-4.29215 z m -0.33428,0.49473 c 0.57496,0 1.24352,0.32091 1.65803,0.72205 0.97609,0.93598 1.28363,2.63412 1.28363,3.48988 0,1.36386 -0.41451,2.54053 -0.9761,3.14223 -0.18719,0.1872 -0.61507,0.49474 -1.17666,0.49474 -1.87197,0 -3.00852,-2.20625 -3.00852,-4.29216 0,-1.60454 0.48136,-2.54053 0.8825,-2.92829 0.22731,-0.22731 0.72204,-0.62845 1.33712,-0.62845 z"
           style="stroke-width:0.999998"
           id="path949" />
        <path
           d="m 141.24181,138.50679 c 0,0.10697 0.22731,0.22731 0.3744,0.25405 0.73541,0.14709 0.80227,0.42788 0.9761,0.64182 0.0535,0.0669 0.0669,0.24068 0.0669,0.80227 0,0.8825 -0.16045,3.14223 -0.22731,4.85375 -0.0401,1.00284 -0.38776,1.13655 -0.98947,1.31038 -0.13371,0.0401 -0.32091,0.0936 -0.32091,0.25405 0,0.0936 0.16046,0.1872 0.34765,0.1872 0.22731,0 1.17667,-0.0535 1.47084,-0.0535 0.46799,0 0.65519,0.0401 1.04295,0.0401 0.25405,0 0.44125,-0.0535 0.44125,-0.21393 0,-0.0802 -0.12034,-0.17383 -0.38777,-0.25406 -0.65518,-0.20057 -0.80227,-0.45462 -0.84238,-0.7889 -0.0936,-0.76216 -0.0802,-1.28363 -0.0535,-3.46314 0.0134,-1.05632 0.0401,-1.33712 0.0669,-1.69814 0,-0.0267 0.0802,-0.16046 0.14708,-0.0802 1.17667,1.37723 3.28932,3.54337 4.54621,5.09443 0.36102,0.44125 0.62845,0.72204 0.89587,1.08307 0.12034,0.17382 0.45462,0.54821 0.77553,0.54821 0.0401,0 0.24068,-0.12034 0.24068,-0.24068 0,-0.40113 -0.0802,-1.6714 -0.0802,-2.21962 0,-0.57496 0.0802,-4.33226 0.13371,-4.80026 0.0668,-0.45462 0.0535,-0.76216 0.81564,-1.01621 0.22731,-0.0802 0.33428,-0.20057 0.33428,-0.26742 0,-0.10697 -0.0936,-0.20057 -0.32091,-0.20057 -0.34765,0 -0.96272,0.0802 -1.6714,0.0802 -0.20057,0 -0.48136,-0.0134 -0.80227,-0.0134 -0.26742,0 -0.40114,0.0936 -0.40114,0.18719 0,0.17383 0.20057,0.24068 0.48137,0.30754 0.62844,0.16045 0.77553,0.44125 0.81564,0.70867 0.0401,0.32091 0.0802,1.02959 0.0802,1.47084 0,0.73541 0.0401,2.28647 -0.0267,2.66086 0,0.0267 -0.0535,0.12035 -0.10697,0.0669 -0.61508,-0.62845 -3.07538,-3.11549 -3.77068,-3.93113 -0.56159,-0.62845 -0.94936,-1.04296 -1.14993,-1.28364 -0.0267,-0.0267 -0.24068,-0.17382 -0.30753,-0.17382 -0.68193,0 -1.92546,-0.0669 -2.21962,-0.0669 -0.20057,0 -0.3744,0.10697 -0.3744,0.21394 z"
           style="stroke-width:0.999998"
           id="path951" />
        <path
           d="m 155.92337,138.1324 c -0.0669,0 -0.17383,0.0535 -0.25406,0.17382 -0.0936,0.14709 -0.61507,0.72205 -0.82901,0.92262 -0.0401,0.0267 -0.0267,0.0669 -0.0267,0.10696 0,0.0401 -0.0669,0.22732 -0.0669,0.22732 -0.53485,1.25689 -1.9522,4.96071 -2.28648,5.58916 -0.37439,0.74878 -0.52147,1.04295 -1.2034,1.21678 -0.30754,0.0802 -0.34765,0.16045 -0.34765,0.26742 0,0.0802 0.0802,0.17383 0.42787,0.17383 0.20057,0 0.76216,-0.0535 1.28364,-0.0535 0.49473,0 0.82901,0.0267 1.06969,0.0267 0.25406,0 0.41451,-0.0802 0.41451,-0.17382 0,-0.14709 -0.10697,-0.21394 -0.38776,-0.2808 -0.45462,-0.12034 -0.61508,-0.28079 -0.61508,-0.6017 0,-0.22731 0.0535,-0.58833 0.50811,-1.73826 0.0267,-0.0535 0.10697,-0.14708 0.14708,-0.14708 0.14708,0 0.53485,-0.0535 2.28648,-0.0401 0.0401,0 0.22731,0.17382 0.24068,0.22731 0.30754,0.85575 0.56159,1.55106 0.56159,1.79174 0,0.18719 -0.0267,0.37439 -0.54822,0.5081 -0.25405,0.0669 -0.34765,0.17383 -0.34765,0.24068 0,0.13372 0.18719,0.21394 0.42788,0.21394 0.34765,0 1.04295,-0.0267 1.4842,-0.0267 0.33428,0 1.49757,0.0535 1.79174,0.0535 0.29417,0 0.44125,-0.12035 0.44125,-0.21394 0,-0.0936 -0.13371,-0.1872 -0.36102,-0.25406 -0.38777,-0.12034 -0.72205,-0.28079 -1.14993,-1.35049 -0.29416,-0.72204 -1.16329,-3.04863 -1.91208,-5.17465 -0.13371,-0.38777 -0.37439,-1.12318 -0.5081,-1.41735 -0.10697,-0.25405 -0.16046,-0.26742 -0.24068,-0.26742 z m 0.0134,5.0142 c -0.41451,-0.0134 -1.35049,0 -1.8586,0.0134 -0.0535,0 -0.13371,-0.0669 -0.10697,-0.16046 0.0535,-0.26742 0.66856,-1.85859 0.92261,-2.50041 0.0401,-0.10697 0.13371,-0.16046 0.16046,-0.0535 0.21394,0.54822 0.74878,1.99231 0.93598,2.58065 0.0267,0.0668 -0.0401,0.12034 -0.0535,0.12034 z"
           style="stroke-width:0.999998"
           id="path953" />
        <path
           d="m 160.8707,138.52016 c 0,0.0936 0.12034,0.20057 0.37439,0.26743 0.60171,0.16045 0.66856,0.34765 0.68194,0.88249 0.0134,0.44125 0.0134,0.77553 0.0134,2.43356 0,1.91208 -0.0401,2.98178 -0.0669,3.31606 -0.0535,0.61508 -0.14708,0.84239 -0.8825,0.9761 -0.21394,0.0401 -0.34765,0.17382 -0.34765,0.26742 0,0.12034 0.17383,0.17383 0.41451,0.17383 0.52147,0 1.5778,-0.0802 2.09928,-0.0802 2.70098,0 3.87764,0.0936 4.10495,0.0936 0.0669,0 0.2808,-0.17383 0.29417,-0.21394 0.0802,-0.30754 0.32091,-1.27026 0.44125,-1.65803 0.0669,-0.20057 0.0535,-0.36102 -0.0535,-0.36102 -0.0936,0 -0.26743,0.12034 -0.36103,0.26742 -0.36102,0.58834 -0.72204,0.93599 -0.89587,1.10981 -0.0802,0.0802 -0.22731,0.12034 -0.34765,0.14709 -0.25405,0.0668 -0.72204,0.0936 -0.96272,0.0936 -0.34766,0 -0.82902,-0.0401 -1.02959,-0.0802 -0.0267,0 -0.46799,-0.13372 -0.5081,-0.52148 -0.0535,-0.46799 -0.0535,-1.47083 -0.0535,-2.33996 0,-1.96557 0.0134,-3.32943 0.10697,-4.02473 0.0134,-0.14708 0.12034,-0.36102 0.81565,-0.53485 0.10696,-0.0267 0.28079,-0.13371 0.28079,-0.28079 0,-0.0936 -0.10697,-0.16046 -0.44125,-0.16046 -0.32091,0 -1.25689,0.0669 -1.77837,0.0669 -0.38776,0 -1.13655,-0.0401 -1.49757,-0.0401 -0.22731,0 -0.40114,0.0535 -0.40114,0.20057 z"
           style="stroke-width:0.999998"
           id="path955" />
        <path
           d="m 169.78927,149.01655 c 0,0.42788 0.61507,0.64182 1.01621,0.64182 0.36102,0 1.02958,-0.24068 1.68477,-0.70867 0.96273,-0.68193 1.73826,-2.0458 1.80511,-3.6236 0.0535,-1.13655 0.0936,-4.50609 0.12034,-5.60253 0.0134,-0.65519 0.16046,-0.81564 0.57497,-0.92261 0.36102,-0.0936 0.4145,-0.22731 0.4145,-0.32091 0,-0.0936 -0.17382,-0.17383 -0.38776,-0.17383 -0.41451,0 -0.86913,0.0535 -1.73826,0.0535 -0.57496,0 -1.13655,-0.0669 -1.55106,-0.0669 -0.32091,0 -0.42787,0.10697 -0.42787,0.21394 0,0.10697 0.13371,0.22731 0.42787,0.30754 0.56159,0.14708 0.72205,0.40113 0.73542,0.65519 0.0134,0.53484 0.0535,1.84522 0.0535,3.7573 0,1.93883 0.0268,3.8108 -0.0267,4.54621 -0.0134,0.12034 -0.0267,0.52148 -0.20057,0.74879 -0.0535,0.0802 -0.16045,0.12034 -0.28079,0.12034 -0.20057,0 -0.56159,-0.17383 -0.92261,-0.42788 -0.21394,-0.14708 -0.34766,-0.16045 -0.41451,-0.16045 -0.0669,0 -0.34765,0.14708 -0.41451,0.22731 -0.14708,0.14708 -0.46799,0.57496 -0.46799,0.73541 z"
           style="stroke-width:0.999998"
           id="path957" />
        <path
           d="m 181.10128,138.1324 c -1.20341,0 -2.31322,0.53484 -2.90155,0.98947 -0.98947,0.77553 -1.69814,1.79174 -1.69814,3.40965 0,1.27027 0.42788,2.31322 1.16329,3.07538 0.85576,0.8825 2.05917,1.3906 3.47652,1.3906 1.19003,0 2.33996,-0.46799 3.062,-1.05632 0.90924,-0.77553 1.59117,-1.83186 1.59117,-3.51663 0,-1.95219 -1.55106,-4.29215 -4.69329,-4.29215 z m -0.33428,0.49473 c 0.57496,0 1.24352,0.32091 1.65803,0.72205 0.9761,0.93598 1.28364,2.63412 1.28364,3.48988 0,1.36386 -0.41451,2.54053 -0.9761,3.14223 -0.1872,0.1872 -0.61508,0.49474 -1.17667,0.49474 -1.87197,0 -3.00852,-2.20625 -3.00852,-4.29216 0,-1.60454 0.48137,-2.54053 0.8825,-2.92829 0.22731,-0.22731 0.72205,-0.62845 1.33712,-0.62845 z"
           style="stroke-width:0.999998"
           id="path959" />
        <path
           d="m 186.79739,138.50679 c 0,0.12034 0.24069,0.22731 0.38777,0.26742 0.5081,0.10697 0.61507,0.34766 0.64182,0.60171 0.0134,0.16045 0.0669,2.72772 0.0669,3.28931 0,2.08591 0.30754,2.80796 1.05633,3.50326 0.49473,0.45462 1.35049,0.82901 2.56727,0.82901 0.5081,0 1.16329,-0.0668 1.77837,-0.4145 0.94935,-0.54822 1.64465,-1.36387 1.75162,-3.58349 0.0268,-0.6953 0.10697,-2.33996 0.10697,-2.99515 0,-0.82901 0.17383,-1.1098 0.85576,-1.25689 0.1872,-0.0401 0.37439,-0.16045 0.37439,-0.24068 0,-0.10697 -0.12034,-0.21394 -0.33428,-0.21394 -0.37439,0 -0.72204,0.0669 -1.25689,0.0669 -0.42788,0 -0.96273,-0.0669 -1.27026,-0.0669 -0.24068,0 -0.38777,0.0936 -0.38777,0.17383 0,0.14708 0.25406,0.24068 0.38777,0.28079 0.56159,0.14709 0.84238,0.36102 0.89587,0.70868 0.0267,0.14708 0.0668,0.21393 0.0668,1.08306 0,2.00568 -0.0668,3.14223 -0.22731,3.85091 -0.33428,1.44409 -1.32375,1.69814 -2.25973,1.69814 -0.24068,0 -1.12318,-0.17382 -1.4842,-0.53485 -0.44125,-0.44125 -0.76216,-0.85575 -0.76216,-2.42018 0,-1.88534 0,-3.11549 0.0535,-3.55674 0.0802,-0.52148 0.20057,-0.69531 0.68194,-0.7889 0.25405,-0.0535 0.4145,-0.17383 0.4145,-0.2808 0,-0.10697 -0.13371,-0.21394 -0.38776,-0.21394 -0.29417,0 -1.1633,0.0669 -1.65803,0.0669 -0.48136,0 -1.08307,-0.0669 -1.64466,-0.0669 -0.24068,0 -0.41451,0.10697 -0.41451,0.21394 z"
           style="stroke-width:0.999998"
           id="path961" />
        <path
           d="m 203.89912,140.43224 c 0,-0.6017 -0.30754,-1.24352 -0.69531,-1.56443 -0.6953,-0.57496 -1.93882,-0.6017 -2.39344,-0.6017 -0.72205,0 -1.92545,0.0669 -2.40682,0.0669 -0.28079,0 -0.68193,0 -1.09644,0 -0.18719,0 -0.40113,0.12035 -0.40113,0.21394 0,0.10697 0.16045,0.21394 0.34765,0.25406 0.64182,0.14708 0.74879,0.42788 0.77553,0.66856 0.0267,0.29416 0.0535,1.3906 0.0535,2.51378 0,1.28364 0.0267,2.28648 -0.0802,3.59686 -0.0267,0.38776 -0.13372,0.58833 -0.76216,0.77552 -0.17383,0.0535 -0.33428,0.16046 -0.33428,0.22732 0,0.12034 0.0535,0.22731 0.45462,0.22731 0.14708,0 0.80227,-0.0535 1.3906,-0.0535 0.52148,0 1.27027,0.0802 1.71152,0.0802 0.20057,0 0.45462,-0.0669 0.45462,-0.21394 0,-0.10697 -0.10697,-0.20057 -0.33428,-0.26743 -0.60171,-0.16045 -0.66856,-0.26742 -0.72205,-0.85575 -0.0401,-0.54822 -0.0535,-2.3667 -0.0267,-2.6475 0.0134,-0.0669 0.10697,-0.12034 0.14708,-0.12034 0.17383,0 0.3744,0.0936 0.49474,0.17383 0.12034,0.0802 0.28079,0.36102 0.36102,0.5081 0.57496,1.02958 1.27026,2.15276 1.59117,2.60738 0.22731,0.32091 0.64182,0.86913 2.1394,0.86913 0.12034,0 0.73541,-0.0267 0.96272,-0.12034 0.10697,-0.0267 0.24068,-0.13371 0.24068,-0.21394 0,-0.0535 -0.12034,-0.16045 -0.25405,-0.18719 -0.32091,-0.0669 -0.70867,-0.1872 -1.0697,-0.60171 -0.6017,-0.72204 -1.69814,-2.58064 -2.00568,-3.22246 -0.0267,-0.0535 -0.0535,-0.14708 0.0134,-0.17382 0.24068,-0.12034 0.53484,-0.26743 0.58833,-0.32091 0.54822,-0.48136 0.85576,-0.89587 0.85576,-1.61792 z m -1.88534,0.21394 c 0,0.70868 -0.32091,1.13655 -0.68193,1.41735 -0.12035,0.0802 -0.69531,0.26742 -1.33712,0.26742 -0.0535,0 -0.14709,-0.0668 -0.16046,-0.13371 -0.0535,-0.41451 0.0134,-2.63412 0.0535,-3.07537 0.0134,-0.0802 0.0936,-0.24069 0.14708,-0.2808 0.0936,-0.0535 0.40113,-0.0936 0.45462,-0.0936 0.32091,0 0.65519,0.12034 0.96273,0.44125 0.49473,0.50811 0.56159,1.09644 0.56159,1.45746 z"
           style="stroke-width:0.999998"
           id="path963" />
        <path
           d="m 205.75768,138.50679 c 0,0.10697 0.22731,0.22731 0.3744,0.25405 0.73541,0.14709 0.80227,0.42788 0.97609,0.64182 0.0535,0.0669 0.0669,0.24068 0.0669,0.80227 0,0.8825 -0.16045,3.14223 -0.22731,4.85375 -0.0401,1.00284 -0.38776,1.13655 -0.98947,1.31038 -0.13371,0.0401 -0.32091,0.0936 -0.32091,0.25405 0,0.0936 0.16046,0.1872 0.34765,0.1872 0.22731,0 1.17667,-0.0535 1.47084,-0.0535 0.46799,0 0.65518,0.0401 1.04295,0.0401 0.25405,0 0.44125,-0.0535 0.44125,-0.21393 0,-0.0802 -0.12034,-0.17383 -0.38777,-0.25406 -0.65518,-0.20057 -0.80227,-0.45462 -0.84238,-0.7889 -0.0936,-0.76216 -0.0802,-1.28363 -0.0535,-3.46314 0.0134,-1.05632 0.0401,-1.33712 0.0669,-1.69814 0,-0.0267 0.0802,-0.16046 0.14708,-0.0802 1.17667,1.37723 3.28932,3.54337 4.54621,5.09443 0.36102,0.44125 0.62845,0.72204 0.89587,1.08307 0.12034,0.17382 0.45462,0.54821 0.77553,0.54821 0.0401,0 0.24068,-0.12034 0.24068,-0.24068 0,-0.40113 -0.0802,-1.6714 -0.0802,-2.21962 0,-0.57496 0.0802,-4.33226 0.13371,-4.80026 0.0668,-0.45462 0.0535,-0.76216 0.81564,-1.01621 0.22731,-0.0802 0.33428,-0.20057 0.33428,-0.26742 0,-0.10697 -0.0936,-0.20057 -0.32091,-0.20057 -0.34765,0 -0.96272,0.0802 -1.6714,0.0802 -0.20057,0 -0.48136,-0.0134 -0.80227,-0.0134 -0.26742,0 -0.40114,0.0936 -0.40114,0.18719 0,0.17383 0.20057,0.24068 0.48137,0.30754 0.62844,0.16045 0.77553,0.44125 0.81564,0.70867 0.0401,0.32091 0.0802,1.02959 0.0802,1.47084 0,0.73541 0.0401,2.28647 -0.0267,2.66086 0,0.0267 -0.0535,0.12035 -0.10696,0.0669 -0.61508,-0.62845 -3.07538,-3.11549 -3.77068,-3.93113 -0.56159,-0.62845 -0.94936,-1.04296 -1.14993,-1.28364 -0.0267,-0.0267 -0.24068,-0.17382 -0.30753,-0.17382 -0.68194,0 -1.92546,-0.0669 -2.21962,-0.0669 -0.20057,0 -0.3744,0.10697 -0.3744,0.21394 z"
           style="stroke-width:0.999998"
           id="path965" />
        <path
           d="m 220.43924,138.1324 c -0.0669,0 -0.17382,0.0535 -0.25405,0.17382 -0.0936,0.14709 -0.61508,0.72205 -0.82902,0.92262 -0.0401,0.0267 -0.0267,0.0669 -0.0267,0.10696 0,0.0401 -0.0668,0.22732 -0.0668,0.22732 -0.53485,1.25689 -1.9522,4.96071 -2.28648,5.58916 -0.37439,0.74878 -0.52148,1.04295 -1.20341,1.21678 -0.30753,0.0802 -0.34765,0.16045 -0.34765,0.26742 0,0.0802 0.0802,0.17383 0.42788,0.17383 0.20057,0 0.76216,-0.0535 1.28364,-0.0535 0.49473,0 0.82901,0.0267 1.06969,0.0267 0.25405,0 0.41451,-0.0802 0.41451,-0.17382 0,-0.14709 -0.10697,-0.21394 -0.38777,-0.2808 -0.45462,-0.12034 -0.61507,-0.28079 -0.61507,-0.6017 0,-0.22731 0.0535,-0.58833 0.5081,-1.73826 0.0267,-0.0535 0.10697,-0.14708 0.14709,-0.14708 0.14708,0 0.53485,-0.0535 2.28647,-0.0401 0.0401,0 0.22731,0.17382 0.24068,0.22731 0.30754,0.85575 0.56159,1.55106 0.56159,1.79174 0,0.18719 -0.0267,0.37439 -0.54821,0.5081 -0.25406,0.0669 -0.34766,0.17383 -0.34766,0.24068 0,0.13372 0.1872,0.21394 0.42788,0.21394 0.34765,0 1.04296,-0.0267 1.48421,-0.0267 0.33428,0 1.49757,0.0535 1.79174,0.0535 0.29416,0 0.44125,-0.12035 0.44125,-0.21394 0,-0.0936 -0.13372,-0.1872 -0.36103,-0.25406 -0.38776,-0.12034 -0.72204,-0.28079 -1.14992,-1.35049 -0.29417,-0.72204 -1.16329,-3.04863 -1.91208,-5.17465 -0.13371,-0.38777 -0.37439,-1.12318 -0.50811,-1.41735 -0.10697,-0.25405 -0.16045,-0.26742 -0.24068,-0.26742 z m 0.0134,5.0142 c -0.4145,-0.0134 -1.35049,0 -1.85859,0.0134 -0.0535,0 -0.13372,-0.0669 -0.10697,-0.16046 0.0535,-0.26742 0.66856,-1.85859 0.92261,-2.50041 0.0401,-0.10697 0.13371,-0.16046 0.16045,-0.0535 0.21394,0.54822 0.74879,1.99231 0.93599,2.58065 0.0267,0.0668 -0.0401,0.12034 -0.0535,0.12034 z"
           style="stroke-width:0.999998"
           id="path967" />
        <path
           d="m 225.38657,138.52016 c 0,0.0936 0.12034,0.20057 0.37439,0.26743 0.60171,0.16045 0.66856,0.34765 0.68193,0.88249 0.0134,0.44125 0.0134,0.77553 0.0134,2.43356 0,1.91208 -0.0401,2.98178 -0.0669,3.31606 -0.0535,0.61508 -0.14708,0.84239 -0.8825,0.9761 -0.21394,0.0401 -0.34765,0.17382 -0.34765,0.26742 0,0.12034 0.17383,0.17383 0.41451,0.17383 0.52147,0 1.5778,-0.0802 2.09928,-0.0802 2.70098,0 3.87764,0.0936 4.10495,0.0936 0.0669,0 0.2808,-0.17383 0.29417,-0.21394 0.0802,-0.30754 0.32091,-1.27026 0.44125,-1.65803 0.0669,-0.20057 0.0535,-0.36102 -0.0535,-0.36102 -0.0936,0 -0.26742,0.12034 -0.36102,0.26742 -0.36102,0.58834 -0.72204,0.93599 -0.89587,1.10981 -0.0802,0.0802 -0.22731,0.12034 -0.34765,0.14709 -0.25405,0.0668 -0.72204,0.0936 -0.96273,0.0936 -0.34765,0 -0.82901,-0.0401 -1.02958,-0.0802 -0.0267,0 -0.46799,-0.13372 -0.5081,-0.52148 -0.0535,-0.46799 -0.0535,-1.47083 -0.0535,-2.33996 0,-1.96557 0.0134,-3.32943 0.10697,-4.02473 0.0134,-0.14708 0.12034,-0.36102 0.81564,-0.53485 0.10697,-0.0267 0.2808,-0.13371 0.2808,-0.28079 0,-0.0936 -0.10697,-0.16046 -0.44125,-0.16046 -0.32091,0 -1.25689,0.0669 -1.77837,0.0669 -0.38776,0 -1.13655,-0.0401 -1.49757,-0.0401 -0.22731,0 -0.40114,0.0535 -0.40114,0.20057 z"
           style="stroke-width:0.999998"
           id="path969" />
        <path
           d="m 240.56286,138.1324 c -1.20341,0 -2.31322,0.53484 -2.90155,0.98947 -0.98947,0.77553 -1.69814,1.79174 -1.69814,3.40965 0,1.27027 0.42788,2.31322 1.16329,3.07538 0.85576,0.8825 2.05917,1.3906 3.47651,1.3906 1.19004,0 2.33996,-0.46799 3.06201,-1.05632 0.90924,-0.77553 1.59117,-1.83186 1.59117,-3.51663 0,-1.95219 -1.55106,-4.29215 -4.69329,-4.29215 z m -0.33428,0.49473 c 0.57496,0 1.24352,0.32091 1.65803,0.72205 0.9761,0.93598 1.28363,2.63412 1.28363,3.48988 0,1.36386 -0.4145,2.54053 -0.97609,3.14223 -0.1872,0.1872 -0.61508,0.49474 -1.17667,0.49474 -1.87197,0 -3.00852,-2.20625 -3.00852,-4.29216 0,-1.60454 0.48136,-2.54053 0.8825,-2.92829 0.22731,-0.22731 0.72204,-0.62845 1.33712,-0.62845 z"
           style="stroke-width:0.999998"
           id="path971" />
        <path
           d="m 248.58556,138.35971 c -0.58833,0 -1.24352,-0.0401 -1.83185,-0.0401 -0.1872,0 -0.42788,0.0669 -0.42788,0.20057 0,0.14708 0.20057,0.21394 0.48136,0.29417 0.48136,0.12034 0.61508,0.29416 0.64182,0.73541 0.0267,0.34766 0.0267,1.10981 0.0267,2.35334 0,2.62075 -0.0669,3.32942 -0.10697,3.74393 -0.0401,0.38777 -0.18719,0.57496 -0.72204,0.72205 -0.25406,0.0669 -0.40114,0.14708 -0.40114,0.29416 0,0.0802 0.13371,0.17383 0.40114,0.17383 0.52147,0 1.31037,-0.0802 2.07253,-0.0802 0.50811,0 1.04296,0.0401 1.37724,0.0401 0.24068,0 0.46799,-0.0936 0.46799,-0.21393 0,-0.14709 -0.1872,-0.24069 -0.40114,-0.2808 -0.6017,-0.12034 -0.74878,-0.22731 -0.77553,-0.84239 0,-0.14708 -0.0535,-1.21677 -0.0535,-2.39344 0,-0.0267 0.0668,-0.13371 0.12034,-0.14708 0.16045,-0.0267 0.44125,-0.0401 0.65519,-0.0401 0.32091,0 0.66856,0.0401 0.86913,0.0802 0.17382,0.0401 0.4145,0.1872 0.54821,0.65519 0.0802,0.28079 0.20057,0.37439 0.25406,0.37439 0.0936,0 0.24068,-0.0936 0.24068,-0.5081 0,-0.16046 -0.0267,-0.60171 -0.0267,-0.98947 0,-0.24068 0.0401,-0.68193 0.0401,-0.85576 0,-0.10697 -0.0669,-0.34765 -0.17383,-0.34765 -0.13371,0 -0.24068,0.17383 -0.29416,0.37439 -0.13371,0.44125 -0.29417,0.52148 -0.6953,0.60171 -0.2808,0.0535 -1.04296,0.0401 -1.37724,0.0401 -0.13371,0 -0.17382,-0.30754 -0.17382,-0.46799 0,-0.8825 0.0134,-2.3667 0.0936,-2.79458 0,-0.0267 0.14708,-0.14708 0.20056,-0.14708 0.2808,0 1.36387,0 1.75163,0.0401 0.46799,0.0535 0.80227,0.57496 0.93598,1.02958 0.0936,0.32091 0.20057,0.45462 0.30754,0.45462 0.16046,0 0.22731,-0.21394 0.21394,-0.38776 -0.0134,-0.45462 -0.0802,-1.17667 -0.0535,-1.56443 0,-0.0802 -0.0802,-0.1872 -0.1872,-0.17383 -0.13371,0.0134 -0.30754,0.0669 -2.20625,0.0669 z"
           style="stroke-width:0.999998"
           id="path973" />
        <path
           d="m 255.699,138.50679 c 0,0.16045 0.20056,0.21394 0.36102,0.25405 0.61507,0.17383 0.77553,0.42788 1.05632,1.05633 0.65519,1.56443 1.5778,3.65034 2.03243,4.86711 0.37439,0.9761 0.62844,1.73826 0.6953,1.97894 0.0134,0.0669 0.14708,0.36102 0.33428,0.36102 0.13371,0 0.33428,-0.22731 0.38776,-0.37439 0.25406,-0.72204 0.60171,-1.65803 0.8825,-2.31322 0.80227,-1.96556 1.8586,-4.09158 2.00568,-4.41249 0.36102,-0.76216 0.64182,-1.00284 1.24352,-1.14993 0.24068,-0.0535 0.36103,-0.14708 0.36103,-0.26742 0,-0.12034 -0.16046,-0.20057 -0.40114,-0.20057 -0.2808,0 -0.81564,0.0535 -1.20341,0.0535 -0.44125,0 -0.6953,-0.0535 -1.17666,-0.0535 -0.21394,0 -0.34766,0.12034 -0.34766,0.21394 0,0.0802 0.17383,0.1872 0.30754,0.24068 0.50811,0.21394 0.86913,0.21394 0.58834,1.01621 -0.30754,0.86913 -1.69815,4.10496 -1.80512,4.27879 -0.0134,0.0134 -0.0936,0.0535 -0.12034,0.0134 -0.24068,-0.41451 -1.65803,-3.87765 -1.84522,-4.50609 -0.14709,-0.468 -0.14709,-0.60171 0.40113,-0.77553 0.24068,-0.0669 0.33428,-0.17383 0.33428,-0.29417 0,-0.0936 -0.14708,-0.17383 -0.32091,-0.17383 -0.30753,0 -1.25689,0.0401 -1.71151,0.0401 -0.65519,0 -1.41735,-0.0669 -1.68477,-0.0669 -0.20057,0 -0.37439,0.0936 -0.37439,0.21394 z"
           style="stroke-width:0.999998"
           id="path975" />
        <path
           d="m 268.14755,138.35971 c -0.61508,0 -1.99231,-0.0401 -2.62076,-0.0401 -0.17382,0 -0.42788,0.0802 -0.42788,0.20057 0,0.16046 0.16046,0.21394 0.44125,0.26743 0.57497,0.0936 0.66856,0.40113 0.69531,0.84238 0.0267,0.38777 0.0134,1.14992 0.0134,2.72773 0,1.64465 -0.0669,2.40681 -0.10697,2.95503 -0.0535,0.72205 -0.1872,0.8825 -0.86913,1.04295 -0.24068,0.0535 -0.41451,0.16046 -0.41451,0.29417 0,0.13371 0.22731,0.17383 0.48137,0.17383 0.45462,0 0.54822,-0.0669 1.52431,-0.0669 0.42788,0 4.35901,0.0535 4.5061,0.0535 0.0669,0 0.32091,-0.0669 0.37439,-0.1872 0.12034,-0.26743 0.52148,-1.49758 0.52148,-1.60455 0,-0.0936 0.0401,-0.40113 -0.12034,-0.40113 -0.12034,0 -0.25406,0.14708 -0.46799,0.5081 -0.26743,0.468 -0.64182,0.82902 -1.02959,0.98947 -0.34765,0.14709 -0.6953,0.13372 -1.20341,0.13372 -0.42787,0 -0.81564,-0.0267 -1.01621,-0.0669 -0.16045,-0.0401 -0.29416,-0.24068 -0.30753,-0.34765 -0.0535,-0.30754 -0.0134,-0.80227 -0.0267,-1.08307 -0.0134,-0.38776 -0.0267,-1.31038 0.0134,-1.73826 0,-0.0267 0.14709,-0.18719 0.20057,-0.18719 0.44125,0 0.92262,0 1.35049,0.0401 0.38777,0.0401 0.60171,0.17383 0.77553,0.73542 0.0401,0.14708 0.16046,0.30754 0.26743,0.30754 0.12034,0 0.21394,-0.17383 0.18719,-0.41451 -0.0401,-0.36102 -0.0535,-0.60171 -0.0535,-0.94936 0,-0.29416 0.0267,-0.53485 0.0535,-0.89587 0.0134,-0.18719 -0.0267,-0.4145 -0.14708,-0.4145 -0.13371,0 -0.22731,0.17382 -0.32091,0.37439 -0.25405,0.56159 -0.20057,0.62845 -1.00284,0.62845 h -1.14992 c -0.0936,0 -0.16046,-0.10697 -0.16046,-0.14709 0,-0.9761 0.0401,-2.52715 0.0535,-2.84806 0.0134,-0.33428 0.10697,-0.38777 0.16045,-0.38777 1.24353,0 1.64466,0.0535 1.84523,0.0936 0.25405,0.0535 0.66856,0.2808 0.84239,1.04295 0.0267,0.14709 0.14708,0.34765 0.26742,0.34765 0.12034,0 0.22731,-0.20056 0.22731,-0.38776 0,-0.26742 0,-1.45746 -0.0134,-1.51095 -0.0134,-0.0936 -0.12034,-0.20056 -0.17383,-0.18719 -0.18719,0.0401 -0.72204,0.10697 -1.16329,0.10697 z"
           style="stroke-width:0.999998"
           id="path977" />
        <path
           d="m 280.16822,140.43224 c 0,-0.6017 -0.30754,-1.24352 -0.6953,-1.56443 -0.69531,-0.57496 -1.93883,-0.6017 -2.39345,-0.6017 -0.72204,0 -1.92545,0.0669 -2.40681,0.0669 -0.2808,0 -0.68193,0 -1.09644,0 -0.1872,0 -0.40114,0.12035 -0.40114,0.21394 0,0.10697 0.16046,0.21394 0.34765,0.25406 0.64182,0.14708 0.74879,0.42788 0.77553,0.66856 0.0267,0.29416 0.0535,1.3906 0.0535,2.51378 0,1.28364 0.0267,2.28648 -0.0802,3.59686 -0.0267,0.38776 -0.13371,0.58833 -0.76216,0.77552 -0.17382,0.0535 -0.33428,0.16046 -0.33428,0.22732 0,0.12034 0.0535,0.22731 0.45462,0.22731 0.14709,0 0.80227,-0.0535 1.39061,-0.0535 0.52147,0 1.27026,0.0802 1.71151,0.0802 0.20057,0 0.45462,-0.0669 0.45462,-0.21394 0,-0.10697 -0.10697,-0.20057 -0.33428,-0.26743 -0.6017,-0.16045 -0.66856,-0.26742 -0.72204,-0.85575 -0.0401,-0.54822 -0.0535,-2.3667 -0.0267,-2.6475 0.0134,-0.0669 0.10697,-0.12034 0.14709,-0.12034 0.17382,0 0.37439,0.0936 0.49473,0.17383 0.12034,0.0802 0.2808,0.36102 0.36102,0.5081 0.57497,1.02958 1.27027,2.15276 1.59118,2.60738 0.22731,0.32091 0.64182,0.86913 2.13939,0.86913 0.12034,0 0.73542,-0.0267 0.96273,-0.12034 0.10697,-0.0267 0.24068,-0.13371 0.24068,-0.21394 0,-0.0535 -0.12034,-0.16045 -0.25406,-0.18719 -0.3209,-0.0669 -0.70867,-0.1872 -1.06969,-0.60171 -0.60171,-0.72204 -1.69814,-2.58064 -2.00568,-3.22246 -0.0267,-0.0535 -0.0535,-0.14708 0.0134,-0.17382 0.24068,-0.12034 0.53485,-0.26743 0.58833,-0.32091 0.54822,-0.48136 0.85576,-0.89587 0.85576,-1.61792 z m -1.88534,0.21394 c 0,0.70868 -0.32091,1.13655 -0.68193,1.41735 -0.12034,0.0802 -0.6953,0.26742 -1.33712,0.26742 -0.0535,0 -0.14708,-0.0668 -0.16046,-0.13371 -0.0535,-0.41451 0.0134,-2.63412 0.0535,-3.07537 0.0134,-0.0802 0.0936,-0.24069 0.14708,-0.2808 0.0936,-0.0535 0.40114,-0.0936 0.45462,-0.0936 0.32091,0 0.65519,0.12034 0.96273,0.44125 0.49473,0.50811 0.56159,1.09644 0.56159,1.45746 z"
           style="stroke-width:0.999998"
           id="path979" />
        <path
           d="m 289.04667,140.29853 c 0,-0.68193 -0.2808,-1.23015 -0.93599,-1.63129 -0.40113,-0.25405 -1.17666,-0.40113 -1.95219,-0.40113 -0.54822,0 -2.40682,0.0936 -2.8347,0.0936 h -0.86912 c -0.17383,0 -0.3744,0.0668 -0.3744,0.17382 0,0.16046 0.16046,0.24068 0.33428,0.2808 0.66856,0.14708 0.77553,0.22731 0.84239,0.52147 0.0401,0.1872 0.0936,0.82902 0.0936,1.96557 0,2.63413 -0.0936,3.91776 -0.12034,4.19856 -0.0535,0.45462 -0.13372,0.65519 -0.8825,0.81564 -0.14709,0.0267 -0.38777,0.10697 -0.38777,0.24068 0,0.12034 0.17383,0.22731 0.44125,0.22731 0.21394,0 0.53485,-0.0267 1.09644,-0.0134 0.6017,0.0134 2.15276,0.0401 2.52716,0.0401 0.46799,0 1.76499,-0.13372 2.40681,-0.57497 0.62845,-0.42787 1.14993,-1.06969 1.14993,-1.91208 0,-1.09644 -0.53485,-1.77837 -1.57781,-2.20625 -0.0401,0 -0.0535,-0.13371 -0.0134,-0.14708 0.32091,-0.24068 1.05633,-0.66856 1.05633,-1.6714 z m -1.77837,0.1872 c 0,0.5081 -0.1872,0.92261 -0.60171,1.23015 -0.30753,0.24068 -0.98947,0.29416 -1.40397,0.29416 -0.0669,0 -0.14709,-0.10696 -0.14709,-0.16045 0,-2.29985 0,-2.56727 0.0268,-2.78121 0.0134,-0.0936 0.0802,-0.20057 0.12034,-0.21394 0.13371,-0.0401 0.33428,-0.0802 0.4145,-0.0802 0.81565,0 1.59118,0.58834 1.59118,1.71152 z m 0.30754,3.93113 c 0,1.04295 -0.70868,1.92545 -1.43072,1.92545 -0.2808,0 -0.61508,-0.24068 -0.81565,-0.45462 -0.0802,-0.0936 -0.14708,-0.30753 -0.14708,-0.42788 -0.0134,-0.36102 -0.0669,-1.89871 -0.0669,-2.1795 0,-0.62845 0.0669,-0.70867 0.12035,-0.74879 0.0535,-0.0535 0.26742,-0.0936 0.38776,-0.0936 0.42788,0 0.74879,0.0936 1.01621,0.25406 0.56159,0.30753 0.93599,0.96272 0.93599,1.72488 z"
           style="stroke-width:0.999998"
           id="path981" />
        <path
           d="m 294.91661,138.1324 c -0.0668,0 -0.17382,0.0535 -0.25405,0.17382 -0.0936,0.14709 -0.61507,0.72205 -0.82901,0.92262 -0.0401,0.0267 -0.0267,0.0669 -0.0267,0.10696 0,0.0401 -0.0668,0.22732 -0.0668,0.22732 -0.53485,1.25689 -1.9522,4.96071 -2.28648,5.58916 -0.37439,0.74878 -0.52147,1.04295 -1.20341,1.21678 -0.30753,0.0802 -0.34765,0.16045 -0.34765,0.26742 0,0.0802 0.0802,0.17383 0.42788,0.17383 0.20057,0 0.76216,-0.0535 1.28364,-0.0535 0.49473,0 0.82901,0.0267 1.06969,0.0267 0.25406,0 0.41451,-0.0802 0.41451,-0.17382 0,-0.14709 -0.10697,-0.21394 -0.38776,-0.2808 -0.45463,-0.12034 -0.61508,-0.28079 -0.61508,-0.6017 0,-0.22731 0.0535,-0.58833 0.50811,-1.73826 0.0267,-0.0535 0.10697,-0.14708 0.14708,-0.14708 0.14708,0 0.53485,-0.0535 2.28647,-0.0401 0.0401,0 0.22731,0.17382 0.24069,0.22731 0.30753,0.85575 0.56159,1.55106 0.56159,1.79174 0,0.18719 -0.0267,0.37439 -0.54822,0.5081 -0.25406,0.0669 -0.34765,0.17383 -0.34765,0.24068 0,0.13372 0.18719,0.21394 0.42787,0.21394 0.34766,0 1.04296,-0.0267 1.48421,-0.0267 0.33428,0 1.49757,0.0535 1.79174,0.0535 0.29416,0 0.44125,-0.12035 0.44125,-0.21394 0,-0.0936 -0.13371,-0.1872 -0.36102,-0.25406 -0.38777,-0.12034 -0.72205,-0.28079 -1.14993,-1.35049 -0.29416,-0.72204 -1.16329,-3.04863 -1.91208,-5.17465 -0.13371,-0.38777 -0.37439,-1.12318 -0.50811,-1.41735 -0.10696,-0.25405 -0.16045,-0.26742 -0.24068,-0.26742 z m 0.0134,5.0142 c -0.4145,-0.0134 -1.35049,0 -1.85859,0.0134 -0.0535,0 -0.13371,-0.0669 -0.10697,-0.16046 0.0535,-0.26742 0.66856,-1.85859 0.92261,-2.50041 0.0401,-0.10697 0.13371,-0.16046 0.16046,-0.0535 0.21393,0.54822 0.74878,1.99231 0.93598,2.58065 0.0267,0.0668 -0.0401,0.12034 -0.0535,0.12034 z"
           style="stroke-width:0.999998"
           id="path983" />
        <path
           d="m 299.86396,138.52016 c 0,0.0936 0.12034,0.20057 0.37439,0.26743 0.6017,0.16045 0.66856,0.34765 0.68193,0.88249 0.0134,0.44125 0.0134,0.77553 0.0134,2.43356 0,1.91208 -0.0401,2.98178 -0.0668,3.31606 -0.0535,0.61508 -0.14709,0.84239 -0.8825,0.9761 -0.21394,0.0401 -0.34765,0.17382 -0.34765,0.26742 0,0.12034 0.17382,0.17383 0.4145,0.17383 0.52148,0 1.5778,-0.0802 2.09928,-0.0802 2.70098,0 3.87765,0.0936 4.10496,0.0936 0.0669,0 0.2808,-0.17383 0.29417,-0.21394 0.0802,-0.30754 0.32091,-1.27026 0.44125,-1.65803 0.0668,-0.20057 0.0535,-0.36102 -0.0535,-0.36102 -0.0936,0 -0.26742,0.12034 -0.36102,0.26742 -0.36102,0.58834 -0.72205,0.93599 -0.89587,1.10981 -0.0802,0.0802 -0.22731,0.12034 -0.34765,0.14709 -0.25406,0.0668 -0.72205,0.0936 -0.96273,0.0936 -0.34765,0 -0.82901,-0.0401 -1.02958,-0.0802 -0.0267,0 -0.46799,-0.13372 -0.50811,-0.52148 -0.0535,-0.46799 -0.0535,-1.47083 -0.0535,-2.33996 0,-1.96557 0.0134,-3.32943 0.10697,-4.02473 0.0134,-0.14708 0.12034,-0.36102 0.81564,-0.53485 0.10697,-0.0267 0.2808,-0.13371 0.2808,-0.28079 0,-0.0936 -0.10697,-0.16046 -0.44125,-0.16046 -0.32091,0 -1.2569,0.0669 -1.77837,0.0669 -0.38777,0 -1.13656,-0.0401 -1.49758,-0.0401 -0.22731,0 -0.40113,0.0535 -0.40113,0.20057 z"
           style="stroke-width:0.999998"
           id="path985" />
        <path
           d="m 314.61235,138.1324 c -0.0668,0 -0.17382,0.0535 -0.25405,0.17382 -0.0936,0.14709 -0.61508,0.72205 -0.82901,0.92262 -0.0401,0.0267 -0.0267,0.0669 -0.0267,0.10696 0,0.0401 -0.0668,0.22732 -0.0668,0.22732 -0.53485,1.25689 -1.9522,4.96071 -2.28648,5.58916 -0.37439,0.74878 -0.52147,1.04295 -1.20341,1.21678 -0.30753,0.0802 -0.34765,0.16045 -0.34765,0.26742 0,0.0802 0.0802,0.17383 0.42788,0.17383 0.20057,0 0.76216,-0.0535 1.28364,-0.0535 0.49473,0 0.82901,0.0267 1.06969,0.0267 0.25406,0 0.41451,-0.0802 0.41451,-0.17382 0,-0.14709 -0.10697,-0.21394 -0.38777,-0.2808 -0.45462,-0.12034 -0.61507,-0.28079 -0.61507,-0.6017 0,-0.22731 0.0535,-0.58833 0.50811,-1.73826 0.0267,-0.0535 0.10696,-0.14708 0.14708,-0.14708 0.14708,0 0.53485,-0.0535 2.28647,-0.0401 0.0401,0 0.22731,0.17382 0.24069,0.22731 0.30753,0.85575 0.56159,1.55106 0.56159,1.79174 0,0.18719 -0.0267,0.37439 -0.54822,0.5081 -0.25406,0.0669 -0.34765,0.17383 -0.34765,0.24068 0,0.13372 0.18719,0.21394 0.42787,0.21394 0.34765,0 1.04296,-0.0267 1.48421,-0.0267 0.33428,0 1.49757,0.0535 1.79174,0.0535 0.29416,0 0.44125,-0.12035 0.44125,-0.21394 0,-0.0936 -0.13371,-0.1872 -0.36103,-0.25406 -0.38776,-0.12034 -0.72204,-0.28079 -1.14992,-1.35049 -0.29416,-0.72204 -1.16329,-3.04863 -1.91208,-5.17465 -0.13371,-0.38777 -0.37439,-1.12318 -0.50811,-1.41735 -0.10697,-0.25405 -0.16045,-0.26742 -0.24068,-0.26742 z m 0.0134,5.0142 c -0.4145,-0.0134 -1.35049,0 -1.85859,0.0134 -0.0535,0 -0.13371,-0.0669 -0.10697,-0.16046 0.0535,-0.26742 0.66856,-1.85859 0.92261,-2.50041 0.0401,-0.10697 0.13371,-0.16046 0.16045,-0.0535 0.21394,0.54822 0.74879,1.99231 0.93599,2.58065 0.0267,0.0668 -0.0401,0.12034 -0.0535,0.12034 z"
           style="stroke-width:0.999998"
           id="path987" />
        <path
           d="m 324.30646,138.1324 c -1.40398,0 -2.80795,0.46799 -3.65034,1.21678 -0.84238,0.73541 -1.47083,1.71151 -1.47083,3.1556 0,1.84522 0.74879,2.75447 1.37723,3.3428 0.7889,0.72204 2.17951,1.14992 3.59686,1.14992 0.26742,0 1.47083,-0.17382 2.03242,-0.28079 0.53485,-0.0936 0.98947,-0.21394 1.21678,-0.2808 0.0802,-0.0267 0.20057,-0.13371 0.20057,-0.21394 0,-0.10697 -0.0669,-0.16045 -0.10697,-0.21394 -0.20057,-0.21394 -0.22731,-0.24068 -0.22731,-0.4145 0,-0.54822 0.0535,-1.48421 0.0668,-1.64466 0.0267,-0.21394 -0.0134,-0.38777 0.46799,-0.50811 0.16046,-0.0401 0.30754,-0.18719 0.30754,-0.25405 0,-0.10697 -0.0936,-0.21394 -0.36102,-0.21394 -0.53485,0 -1.39061,0.0802 -1.71152,0.0802 -0.36102,0 -0.98946,-0.0535 -1.61791,-0.0535 -0.26742,0 -0.46799,0.10697 -0.46799,0.20057 0,0.12034 0.20057,0.25405 0.40113,0.26743 0.81565,0.0802 0.92262,0.36102 1.00284,0.66856 0.0401,0.16045 0.0535,0.62844 0.0535,1.08306 0,0.58834 -0.0802,0.92262 -0.26743,1.05633 -0.26742,0.18719 -0.52147,0.24068 -0.68193,0.24068 -1.14992,0 -2.09927,-0.73542 -2.62075,-1.68477 -0.38777,-0.68193 -0.53485,-1.47083 -0.53485,-2.39345 0,-2.07253 1.12318,-3.83753 2.99515,-3.83753 1.06969,0 1.84522,0.58833 2.13939,0.93598 0.20057,0.25406 0.44125,0.73542 0.52148,0.94936 0.0668,0.20057 0.18719,0.36102 0.25405,0.36102 0.16045,0 0.25405,-0.1872 0.25405,-0.34765 0,-0.56159 -0.18719,-1.25689 -0.21394,-1.68477 -0.0134,-0.16046 -0.0936,-0.30754 -0.16045,-0.30754 -0.10697,0 -0.45462,-0.0401 -0.64182,-0.0936 -0.5081,-0.14708 -1.27026,-0.28079 -2.15276,-0.28079 z"
           style="stroke-width:0.999998"
           id="path989" />
        <path
           d="m 334.5488,138.1324 c -1.40398,0 -2.80795,0.46799 -3.65034,1.21678 -0.84238,0.73541 -1.47083,1.71151 -1.47083,3.1556 0,1.84522 0.74879,2.75447 1.37723,3.3428 0.7889,0.72204 2.17951,1.14992 3.59686,1.14992 0.26742,0 1.47083,-0.17382 2.03242,-0.28079 0.53485,-0.0936 0.98947,-0.21394 1.21678,-0.2808 0.0802,-0.0267 0.20057,-0.13371 0.20057,-0.21394 0,-0.10697 -0.0669,-0.16045 -0.10697,-0.21394 -0.20057,-0.21394 -0.22731,-0.24068 -0.22731,-0.4145 0,-0.54822 0.0535,-1.48421 0.0669,-1.64466 0.0267,-0.21394 -0.0134,-0.38777 0.46799,-0.50811 0.16046,-0.0401 0.30754,-0.18719 0.30754,-0.25405 0,-0.10697 -0.0936,-0.21394 -0.36102,-0.21394 -0.53485,0 -1.39061,0.0802 -1.71151,0.0802 -0.36103,0 -0.98947,-0.0535 -1.61792,-0.0535 -0.26742,0 -0.46799,0.10697 -0.46799,0.20057 0,0.12034 0.20057,0.25405 0.40113,0.26743 0.81565,0.0802 0.92262,0.36102 1.00284,0.66856 0.0401,0.16045 0.0535,0.62844 0.0535,1.08306 0,0.58834 -0.0802,0.92262 -0.26743,1.05633 -0.26742,0.18719 -0.52147,0.24068 -0.68193,0.24068 -1.14992,0 -2.09927,-0.73542 -2.62075,-1.68477 -0.38777,-0.68193 -0.53485,-1.47083 -0.53485,-2.39345 0,-2.07253 1.12318,-3.83753 2.99515,-3.83753 1.0697,0 1.84522,0.58833 2.13939,0.93598 0.20057,0.25406 0.44125,0.73542 0.52148,0.94936 0.0668,0.20057 0.18719,0.36102 0.25405,0.36102 0.16046,0 0.25405,-0.1872 0.25405,-0.34765 0,-0.56159 -0.18719,-1.25689 -0.21394,-1.68477 -0.0134,-0.16046 -0.0936,-0.30754 -0.16045,-0.30754 -0.10697,0 -0.45462,-0.0401 -0.64182,-0.0936 -0.5081,-0.14708 -1.27026,-0.28079 -2.15276,-0.28079 z"
           style="stroke-width:0.999998"
           id="path991" />
        <path
           d="m 346.39567,140.43224 c 0,-0.6017 -0.30754,-1.24352 -0.69531,-1.56443 -0.6953,-0.57496 -1.93882,-0.6017 -2.39344,-0.6017 -0.72204,0 -1.92545,0.0669 -2.40682,0.0669 -0.28079,0 -0.68193,0 -1.09643,0 -0.1872,0 -0.40114,0.12035 -0.40114,0.21394 0,0.10697 0.16045,0.21394 0.34765,0.25406 0.64182,0.14708 0.74879,0.42788 0.77553,0.66856 0.0267,0.29416 0.0535,1.3906 0.0535,2.51378 0,1.28364 0.0267,2.28648 -0.0802,3.59686 -0.0267,0.38776 -0.13371,0.58833 -0.76216,0.77552 -0.17383,0.0535 -0.33428,0.16046 -0.33428,0.22732 0,0.12034 0.0535,0.22731 0.45462,0.22731 0.14708,0 0.80227,-0.0535 1.39061,-0.0535 0.52147,0 1.27026,0.0802 1.71151,0.0802 0.20057,0 0.45462,-0.0669 0.45462,-0.21394 0,-0.10697 -0.10697,-0.20057 -0.33428,-0.26743 -0.6017,-0.16045 -0.66856,-0.26742 -0.72205,-0.85575 -0.0401,-0.54822 -0.0535,-2.3667 -0.0267,-2.6475 0.0134,-0.0669 0.10697,-0.12034 0.14709,-0.12034 0.17382,0 0.37439,0.0936 0.49473,0.17383 0.12034,0.0802 0.2808,0.36102 0.36102,0.5081 0.57496,1.02958 1.27027,2.15276 1.59118,2.60738 0.22731,0.32091 0.64181,0.86913 2.13939,0.86913 0.12034,0 0.73541,-0.0267 0.96272,-0.12034 0.10697,-0.0267 0.24069,-0.13371 0.24069,-0.21394 0,-0.0535 -0.12035,-0.16045 -0.25406,-0.18719 -0.32091,-0.0669 -0.70867,-0.1872 -1.06969,-0.60171 -0.60171,-0.72204 -1.69815,-2.58064 -2.00568,-3.22246 -0.0268,-0.0535 -0.0535,-0.14708 0.0134,-0.17382 0.24068,-0.12034 0.53485,-0.26743 0.58833,-0.32091 0.54822,-0.48136 0.85576,-0.89587 0.85576,-1.61792 z m -1.88534,0.21394 c 0,0.70868 -0.32091,1.13655 -0.68193,1.41735 -0.12034,0.0802 -0.69531,0.26742 -1.33712,0.26742 -0.0535,0 -0.14709,-0.0668 -0.16046,-0.13371 -0.0535,-0.41451 0.0134,-2.63412 0.0535,-3.07537 0.0134,-0.0802 0.0936,-0.24069 0.14708,-0.2808 0.0936,-0.0535 0.40114,-0.0936 0.45462,-0.0936 0.32091,0 0.65519,0.12034 0.96273,0.44125 0.49473,0.50811 0.56159,1.09644 0.56159,1.45746 z"
           style="stroke-width:0.999998"
           id="path993" />
        <path
           d="m 351.43658,138.35971 c -0.61507,0 -1.99231,-0.0401 -2.62075,-0.0401 -0.17383,0 -0.42788,0.0802 -0.42788,0.20057 0,0.16046 0.16045,0.21394 0.44125,0.26743 0.57496,0.0936 0.66856,0.40113 0.6953,0.84238 0.0267,0.38777 0.0134,1.14992 0.0134,2.72773 0,1.64465 -0.0669,2.40681 -0.10697,2.95503 -0.0535,0.72205 -0.1872,0.8825 -0.86913,1.04295 -0.24068,0.0535 -0.4145,0.16046 -0.4145,0.29417 0,0.13371 0.22731,0.17383 0.48136,0.17383 0.45462,0 0.54822,-0.0669 1.52432,-0.0669 0.42787,0 4.35901,0.0535 4.50609,0.0535 0.0669,0 0.32091,-0.0669 0.37439,-0.1872 0.12034,-0.26743 0.52148,-1.49758 0.52148,-1.60455 0,-0.0936 0.0401,-0.40113 -0.12034,-0.40113 -0.12034,0 -0.25405,0.14708 -0.46799,0.5081 -0.26743,0.468 -0.64182,0.82902 -1.02959,0.98947 -0.34765,0.14709 -0.6953,0.13372 -1.2034,0.13372 -0.42788,0 -0.81565,-0.0267 -1.01621,-0.0669 -0.16046,-0.0401 -0.29417,-0.24068 -0.30754,-0.34765 -0.0535,-0.30754 -0.0134,-0.80227 -0.0267,-1.08307 -0.0134,-0.38776 -0.0267,-1.31038 0.0134,-1.73826 0,-0.0267 0.14708,-0.18719 0.20056,-0.18719 0.44125,0 0.92262,0 1.3505,0.0401 0.38776,0.0401 0.6017,0.17383 0.77553,0.73542 0.0401,0.14708 0.16045,0.30754 0.26742,0.30754 0.12034,0 0.21394,-0.17383 0.1872,-0.41451 -0.0401,-0.36102 -0.0535,-0.60171 -0.0535,-0.94936 0,-0.29416 0.0267,-0.53485 0.0535,-0.89587 0.0134,-0.18719 -0.0267,-0.4145 -0.14709,-0.4145 -0.13371,0 -0.22731,0.17382 -0.32091,0.37439 -0.25405,0.56159 -0.20056,0.62845 -1.00284,0.62845 h -1.14992 c -0.0936,0 -0.16045,-0.10697 -0.16045,-0.14709 0,-0.9761 0.0401,-2.52715 0.0535,-2.84806 0.0134,-0.33428 0.10697,-0.38777 0.16046,-0.38777 1.24352,0 1.64465,0.0535 1.84522,0.0936 0.25405,0.0535 0.66856,0.2808 0.84239,1.04295 0.0267,0.14709 0.14708,0.34765 0.26742,0.34765 0.12034,0 0.22731,-0.20056 0.22731,-0.38776 0,-0.26742 0,-1.45746 -0.0134,-1.51095 -0.0134,-0.0936 -0.12034,-0.20056 -0.17383,-0.18719 -0.18719,0.0401 -0.72204,0.10697 -1.16329,0.10697 z"
           style="stroke-width:0.999998"
           id="path995" />
        <path
           d="m 360.03421,138.1324 c -1.10981,0 -1.73826,0.26742 -2.20625,0.64181 -0.41451,0.32091 -0.84238,0.9761 -0.84238,1.80512 0,1.21678 0.6953,1.92545 2.1795,2.90155 1.13655,0.76216 1.41735,1.27026 1.41735,1.81848 0,0.80227 -0.80227,1.20341 -1.28364,1.20341 -0.74878,0 -1.47083,-0.45462 -1.89871,-1.31038 -0.21394,-0.41451 -0.42787,-0.72204 -0.54822,-0.72204 -0.0668,0 -0.22731,0.20056 -0.22731,0.29416 0,0.48137 0.12034,1.04296 0.24069,1.51095 0.0134,0.0668 0.28079,0.33428 0.37439,0.37439 0.61507,0.22731 1.04295,0.34765 2.00568,0.34765 0.65519,0 1.44409,-0.20057 1.89871,-0.48136 0.80227,-0.46799 1.21678,-1.29701 1.21678,-1.99231 0,-0.64182 -0.0802,-1.56443 -2.01905,-2.72772 -1.21678,-0.73542 -1.765,-1.17667 -1.765,-1.88534 0,-0.85576 0.77553,-1.31038 1.28363,-1.31038 0.42788,0 0.77553,0.10697 1.12319,0.41451 0.17382,0.14708 0.4145,0.52147 0.54821,0.94935 0.0669,0.20057 0.29417,0.32091 0.41451,0.32091 0.0669,0 0.12034,-0.12034 0.12034,-0.32091 0,-0.0535 -0.13371,-1.19004 -0.13371,-1.33712 -0.0134,-0.0802 -0.13371,-0.26742 -0.17383,-0.28079 -0.4145,-0.0669 -1.13655,-0.21394 -1.72488,-0.21394 z"
           style="stroke-width:0.999998"
           id="path997" />
        <path
           d="m 366.85352,138.1324 c -1.10981,0 -1.73826,0.26742 -2.20625,0.64181 -0.41451,0.32091 -0.84239,0.9761 -0.84239,1.80512 0,1.21678 0.6953,1.92545 2.17951,2.90155 1.13655,0.76216 1.41734,1.27026 1.41734,1.81848 0,0.80227 -0.80227,1.20341 -1.28363,1.20341 -0.74879,0 -1.47083,-0.45462 -1.89871,-1.31038 -0.21394,-0.41451 -0.42788,-0.72204 -0.54822,-0.72204 -0.0669,0 -0.22731,0.20056 -0.22731,0.29416 0,0.48137 0.12034,1.04296 0.24068,1.51095 0.0134,0.0668 0.2808,0.33428 0.37439,0.37439 0.61508,0.22731 1.04296,0.34765 2.00568,0.34765 0.65519,0 1.44409,-0.20057 1.89871,-0.48136 0.80228,-0.46799 1.21678,-1.29701 1.21678,-1.99231 0,-0.64182 -0.0802,-1.56443 -2.01905,-2.72772 -1.21678,-0.73542 -1.765,-1.17667 -1.765,-1.88534 0,-0.85576 0.77553,-1.31038 1.28364,-1.31038 0.42788,0 0.77553,0.10697 1.12318,0.41451 0.17383,0.14708 0.41451,0.52147 0.54822,0.94935 0.0669,0.20057 0.29417,0.32091 0.41451,0.32091 0.0668,0 0.12034,-0.12034 0.12034,-0.32091 0,-0.0535 -0.13371,-1.19004 -0.13371,-1.33712 -0.0134,-0.0802 -0.13372,-0.26742 -0.17383,-0.28079 -0.41451,-0.0669 -1.13655,-0.21394 -1.72488,-0.21394 z"
           style="stroke-width:0.999998"
           id="path999" />
        <path
           d="m 371.33282,142.23736 c 0,1.13655 -0.0267,2.50041 -0.0535,3.03526 -0.0267,0.54822 -0.13371,0.86913 -0.72205,1.01621 -0.29416,0.0802 -0.4145,0.17382 -0.4145,0.26742 0,0.14709 0.10697,0.24068 0.45462,0.24068 0.49473,0 1.02958,-0.0401 1.41734,-0.0401 0.65519,-0.0134 1.55106,0.0535 2.00568,0.0669 0.16046,0 0.44125,-0.0267 0.44125,-0.1872 0,-0.14708 -0.13371,-0.24068 -0.37439,-0.30754 -0.70867,-0.20057 -0.7889,-0.32091 -0.85576,-1.13655 -0.0267,-0.38776 -0.0401,-0.85576 -0.0401,-2.90155 0,-2.12602 0.0267,-2.42019 0.0401,-2.68761 0.0267,-0.34765 0.0936,-0.6953 0.70868,-0.80227 0.22731,-0.0401 0.44125,-0.14709 0.44125,-0.29417 0,-0.13371 -0.22731,-0.20057 -0.45462,-0.20057 -0.468,0 -1.00284,0.0535 -1.65803,0.0535 -0.44125,0 -1.14993,-0.0535 -1.56443,-0.0535 -0.26743,0 -0.48137,0.0936 -0.48137,0.20057 0,0.10697 0.0936,0.20057 0.42788,0.29417 0.61508,0.16045 0.61508,0.37439 0.65519,1.01621 0.0401,0.54822 0.0267,1.80511 0.0267,2.42019 z"
           style="stroke-width:0.999998"
           id="path1001" />
        <path
           d="m 380.09095,138.1324 c -1.20341,0 -2.31322,0.53484 -2.90155,0.98947 -0.98947,0.77553 -1.69814,1.79174 -1.69814,3.40965 0,1.27027 0.42788,2.31322 1.16329,3.07538 0.85576,0.8825 2.05917,1.3906 3.47652,1.3906 1.19003,0 2.33995,-0.46799 3.062,-1.05632 0.90924,-0.77553 1.59117,-1.83186 1.59117,-3.51663 0,-1.95219 -1.55106,-4.29215 -4.69329,-4.29215 z m -0.33428,0.49473 c 0.57496,0 1.24352,0.32091 1.65803,0.72205 0.9761,0.93598 1.28364,2.63412 1.28364,3.48988 0,1.36386 -0.41451,2.54053 -0.9761,3.14223 -0.1872,0.1872 -0.61508,0.49474 -1.17667,0.49474 -1.87197,0 -3.00852,-2.20625 -3.00852,-4.29216 0,-1.60454 0.48137,-2.54053 0.8825,-2.92829 0.22731,-0.22731 0.72205,-0.62845 1.33712,-0.62845 z"
           style="stroke-width:0.999998"
           id="path1003" />
        <path
           d="m 385.72021,138.50679 c 0,0.10697 0.22731,0.22731 0.37439,0.25405 0.73542,0.14709 0.80227,0.42788 0.9761,0.64182 0.0535,0.0669 0.0668,0.24068 0.0668,0.80227 0,0.8825 -0.16045,3.14223 -0.22731,4.85375 -0.0401,1.00284 -0.38776,1.13655 -0.98946,1.31038 -0.13372,0.0401 -0.32091,0.0936 -0.32091,0.25405 0,0.0936 0.16045,0.1872 0.34765,0.1872 0.22731,0 1.17666,-0.0535 1.47083,-0.0535 0.46799,0 0.65519,0.0401 1.04295,0.0401 0.25406,0 0.44125,-0.0535 0.44125,-0.21393 0,-0.0802 -0.12034,-0.17383 -0.38776,-0.25406 -0.65519,-0.20057 -0.80227,-0.45462 -0.84239,-0.7889 -0.0936,-0.76216 -0.0802,-1.28363 -0.0535,-3.46314 0.0134,-1.05632 0.0401,-1.33712 0.0668,-1.69814 0,-0.0267 0.0802,-0.16046 0.14709,-0.0802 1.17666,1.37723 3.28931,3.54337 4.54621,5.09443 0.36102,0.44125 0.62844,0.72204 0.89587,1.08307 0.12034,0.17382 0.45462,0.54821 0.77553,0.54821 0.0401,0 0.24068,-0.12034 0.24068,-0.24068 0,-0.40113 -0.0802,-1.6714 -0.0802,-2.21962 0,-0.57496 0.0802,-4.33226 0.13371,-4.80026 0.0669,-0.45462 0.0535,-0.76216 0.81564,-1.01621 0.22732,-0.0802 0.33428,-0.20057 0.33428,-0.26742 0,-0.10697 -0.0936,-0.20057 -0.3209,-0.20057 -0.34766,0 -0.96273,0.0802 -1.6714,0.0802 -0.20057,0 -0.48137,-0.0134 -0.80228,-0.0134 -0.26742,0 -0.40113,0.0936 -0.40113,0.18719 0,0.17383 0.20057,0.24068 0.48136,0.30754 0.62845,0.16045 0.77553,0.44125 0.81564,0.70867 0.0401,0.32091 0.0802,1.02959 0.0802,1.47084 0,0.73541 0.0401,2.28647 -0.0267,2.66086 0,0.0267 -0.0535,0.12035 -0.10697,0.0669 -0.61508,-0.62845 -3.07538,-3.11549 -3.77068,-3.93113 -0.56159,-0.62845 -0.94935,-1.04296 -1.14992,-1.28364 -0.0267,-0.0267 -0.24068,-0.17382 -0.30754,-0.17382 -0.68193,0 -1.92545,-0.0669 -2.21962,-0.0669 -0.20057,0 -0.37439,0.10697 -0.37439,0.21394 z"
           style="stroke-width:0.999998"
           id="path1005" />
      </g>
    </g>
  </g>
</svg>
