<?xml version="1.0" encoding="UTF-8" standalone="no"?>
<svg
   xmlns:dc="http://purl.org/dc/elements/1.1/"
   xmlns:cc="http://creativecommons.org/ns#"
   xmlns:rdf="http://www.w3.org/1999/02/22-rdf-syntax-ns#"
   xmlns:svg="http://www.w3.org/2000/svg"
   xmlns="http://www.w3.org/2000/svg"
   version="1.0"
   id="svg2"
   height="1012.6808"
   width="1044.5479">
  <title
     id="title2835">OFAI Logo</title>
  <defs
     id="defs4" />
  <metadata
     id="metadata7">
    <rdf:RDF>
      <cc:Work
         rdf:about="">
        <dc:format>image/svg+xml</dc:format>
        <dc:type
           rdf:resource="http://purl.org/dc/dcmitype/StillImage" />
        <dc:title>OFAI Logo</dc:title>
        <dc:creator>
          <cc:Agent>
            <dc:title>Stefan Rank</dc:title>
          </cc:Agent>
        </dc:creator>
        <dc:rights>
          <cc:Agent>
            <dc:title>OFAI</dc:title>
          </cc:Agent>
        </dc:rights>
      </cc:Work>
    </rdf:RDF>
  </metadata>
  <g
     transform="translate(-3.799518,-37.026028)"
     id="layer1">
    <path
       id="path2381"
       d="m 60.667303,1046.8804 c -11.44864,-3.8518 -18.5143,-8.3178 -27.81549,-17.581 -8.41923,-8.3848 -13.54514,-16.5113 -16.7152,-26.4999 -7.9114696,-24.92836 -1.08212,-52.37257 17.30655,-69.54754 15.5252,-14.50049 31.57145,-20.2649 53.38466,-19.17777 18.968947,0.94538 33.420597,7.61934 46.781947,21.6045 12.83683,13.43616 17.94108,26.82376 17.9656,47.12082 0.0119,9.85204 -0.37118,12.64641 -2.67328,19.49999 -4.09274,12.1845 -8.51675,19.243 -17.35047,27.6826 -9.07782,8.6729 -17.81167,13.9184 -28.91972,17.3691 -6.623861,2.0576 -9.722711,2.408 -20.784487,2.3498 -11.42722,-0.06 -13.98966,-0.4014 -21.18011,-2.8206 z m 35.748606,-13.6925 c 9.060011,-2.6881 15.077131,-6.3285 22.745671,-13.7614 11.76987,-11.4082 17.1803,-25.72513 15.88861,-42.04388 -0.77427,-9.78187 -3.28907,-16.79123 -9.17863,-25.58311 -16.03106,-23.93102 -49.344527,-30.42006 -73.156147,-14.2499 -18.20863,12.36524 -27.13056,35.97744 -21.43651,56.73244 3.04281,11.09115 7.36303,18.64885 14.36679,25.13315 7.77842,7.2014 12.74113,10.3278 20.70172,13.0416 8.15479,2.7801 22.02596,3.1173 30.068496,0.7311 z M 396.34741,981.29951 v -65.5 h 34.5 34.5 v 7.5 7.5 h -26.5 -26.5 v 18.5 18.5 h 26.5 26.5 v 7.5 7.5 h -26.5 -26.5 v 31.99999 31.9999 h -8 -8 z m 286,64.62579 c 0,-0.4807 2.63797,-6.8932 5.86215,-14.25 3.22418,-7.3566 8.01317,-18.3258 10.64221,-24.3758 39.06983,-89.9084 41.68064,-95.72209 42.56774,-94.789 0.41257,0.43395 4.21743,8.88901 8.45524,18.78901 4.23781,9.9 11.65581,27 16.48444,38 4.82864,11 11.7309,26.75 15.33838,34.99999 3.60747,8.25 9.27947,21.0252 12.60444,28.3895 3.32497,7.3642 6.0454,13.5517 6.0454,13.75 0,0.1982 -3.94855,0.3604 -8.77455,0.3604 h -8.77454 l -8.45091,-20 -8.45091,-19.9999 h -25.08111 -25.08111 l -8.41179,19.9999 -8.41179,20 h -8.28165 c -4.5549,0 -8.28164,-0.3933 -8.28164,-0.8741 z m 78,-53.69658 c 0,-0.31394 -3.98134,-9.87644 -8.84742,-21.25 -4.86608,-11.37357 -9.15167,-21.53112 -9.52354,-22.57234 -0.37186,-1.04122 -0.83243,-1.71622 -1.02348,-1.5 -0.59351,0.67169 -19.60556,44.53644 -19.60556,45.23408 0,0.36248 8.775,0.65905 19.5,0.65905 10.725,0 19.5,-0.25686 19.5,-0.57079 z m 271.99999,-10.92921 v -65.5 h 8 8 v 65.5 65.49989 h -8 -8 z M 354.84741,852.73307 C 327.47368,850.81118 299.6981,844.87676 273.48476,835.34943 202.02098,809.37568 136.1706,760.46383 86.280803,696.29951 73.535753,679.90783 67.679683,671.13976 56.511233,651.72667 28.929023,603.78305 12.895823,553.05032 5.1789334,489.29951 c -2.05265,-16.95744 -1.75659,-69.02966 0.50319,-88.5 C 12.397933,342.93575 29.675693,288.04287 55.259953,243.28663 72.302413,213.47312 92.785989,185.84334 114.60294,163.24039 159.7422,116.47488 210.38582,83.141405 268.34741,62.046243 c 47.01759,-17.112085 87.13687,-24.26028 136,-24.231606 56.36754,0.03308 111.50051,11.496225 164.39891,34.181525 48.90565,20.973025 91.16577,50.324468 131.66937,91.449968 21.48489,21.81477 35.49101,38.96149 51.34112,62.85338 40.68716,61.33034 58.18345,109.76217 63.58108,176 0.58323,7.15721 0.98425,77.88206 0.99369,175.25 l 0.0158,163.25 h -42.49143 -42.49143 l -0.26677,-169.25 c -0.30413,-192.95081 0.6092,-173.68304 -9.70551,-204.75 -9.81511,-29.56219 -23.0193,-56.27776 -42.54072,-86.0711 -35.95409,-54.87267 -83.99051,-101.39218 -129.89959,-125.79757 -16.35112,-8.6923 -45.14156,-19.66092 -64.60455,-24.61312 -15.74904,-4.00721 -42.64005,-8.43427 -57.5,-9.46619 -25.59614,-1.77749 -58.69457,0.4514 -83.45742,5.62012 -18.19546,3.79791 -48.68823,13.64173 -60.26406,19.45472 -3.14682,1.58023 -6.26304,2.87314 -6.92494,2.87314 -1.70676,0 -30.88748,16.38466 -39.85358,22.37736 -21.56067,14.41056 -38.59331,28.34098 -53.5,43.75582 -28.93072,29.91693 -48.2097,57.17065 -64.50381,91.18578 -16.83808,35.15071 -25.739531,66.35142 -31.148937,109.18104 -1.78222,14.11092 -1.47757,51.60621 0.56874,70 2.435486,21.89198 8.406316,50.02667 14.325047,67.5 21.28006,62.82317 67.04846,123.59782 122.85873,163.14085 40.55007,28.73079 76.87658,43.76265 123.40023,51.06284 l 14.5,2.27524 298.25,0.27512 298.25,0.27511 V 541.81409 313.79951 h -66.84854 -66.84853 l -2.29558,-8.75 c -5.28722,-20.15319 -15.61177,-44.24303 -27.85804,-65 l -3.09742,-5.25 h 127.97406 127.97407 v 309.5 309.5 l -341.25002,-0.14707 c -187.6875,-0.0809 -346.2,-0.49461 -352.25,-0.91937 z m 63.5062,-526.78492 c 19.74613,2.14358 44.19676,11.66504 59.93521,23.33973 6.89115,5.11181 20.20961,19.28506 24.96162,26.56367 2.14325,3.28281 4.74203,7.09374 5.77506,8.46874 7.17193,9.54608 15.75536,39.27106 15.80968,54.75 l 0.0184,5.25 h -39.9121 -39.9121 l -0.70734,-4.25 c -2.9009,-17.43011 -17.51781,-31.29863 -35.08201,-33.28579 -10.97673,-1.24187 -25.9496,5.24625 -32.97429,14.28859 -3.61861,4.65795 -8.29503,14.53065 -8.99846,18.9972 l -0.66932,4.25 H 326.7258 286.85361 v -2.82386 c 0,-5.46099 3.13274,-23.76324 5.42272,-31.68084 4.02202,-13.90617 9.21044,-25.96021 14.81716,-34.42407 16.22319,-24.49041 42.25961,-41.44777 73.76012,-48.03953 5.79024,-1.21166 30.68527,-2.14362 37.5,-1.40384 z M 937.84465,37.889768 c 0,0.47506 4.1625,1.10577 9.25,1.40159 15.04367,0.87472 32.93047,6.97723 49.38337,16.84832 10.85418,6.51207 25.91288,20.89234 32.94458,31.46033 10.2597,15.419312 16.8997,35.577162 18.0815,54.891922 l 0.6459,10.55679 -40.8581,-0.26135 -40.85813,-0.26134 -0.75391,-3.62958 c -2.40865,-11.59598 -12.34753,-24.53142 -22.7313,-29.58476 -5.038,-2.45179 -6.66424,-2.72337 -16.10391,-2.68939 -9.30447,0.0335 -11.14009,0.34494 -16.12172,2.73534 -10.94696,5.25282 -19.95318,17.21395 -21.44842,28.48557 l -0.68752,5.18282 h -40.37113 -40.3712 v -10.79682 c 0,-23.9257 9.2163,-47.983348 25.5,-66.563732 16.6119,-18.95484 48.21519,-35.09664 71.24999,-36.39185 5.0875,-0.28606 9.25,-0.9088 9.25,-1.38386 0,-0.47506 5.4,-0.86374 12,-0.86374 6.6,0 12,0.38868 12,0.86374 z"
       style="fill:#4d5ea5;fill-opacity:1" />
  </g>
</svg>
