<?xml version="1.0" standalone="no"?>
<!DOCTYPE svg PUBLIC "-//W3C//DTD SVG 20010904//EN"
 "http://www.w3.org/TR/2001/REC-SVG-20010904/DTD/svg10.dtd">
<svg version="1.0" xmlns="http://www.w3.org/2000/svg"
 width="1024.000000pt" height="1024.000000pt" viewBox="0 0 1024.000000 1024.000000"
 preserveAspectRatio="xMidYMid meet">
<metadata>
Created by potrace 1.14, written by Peter Selinger 2001-2017
</metadata>
<g transform="translate(0.000000,1024.000000) scale(0.100000,-0.100000)"
fill="#000000" stroke="none">
<path d="M0 9920 l0 -320 45 -41 c25 -23 43 -44 40 -47 -3 -3 -23 12 -45 33
l-40 39 0 -4792 0 -4792 5120 0 5120 0 0 5120 0 5120 -5120 0 -5120 0 0 -320z
m235 -550 c27 -27 47 -52 44 -55 -3 -2 -30 20 -59 50 -30 30 -50 55 -44 55 5
0 32 -22 59 -50z m-150 -59 c-7 -6 -75 60 -75 73 0 6 18 -7 40 -29 22 -21 37
-41 35 -44z m385 -185 c0 -6 -22 12 -50 39 -27 27 -50 54 -50 59 0 6 23 -12
50 -39 28 -27 50 -54 50 -59z m-220 29 c35 -36 60 -65 54 -65 -5 0 -39 29 -74
65 -35 36 -60 65 -54 65 5 0 39 -29 74 -65z m370 -170 c29 -30 52 -57 49 -59
-3 -3 -32 21 -64 54 -33 33 -55 60 -49 60 5 0 34 -25 64 -55z m-135 -74 c-7
-6 -95 80 -95 93 0 6 22 -12 50 -39 27 -27 47 -51 45 -54z m155 -146 c30 -30
50 -55 44 -55 -5 0 -34 25 -64 55 -30 30 -50 55 -44 55 5 0 34 -25 64 -55z
m205 -5 c32 -33 57 -62 54 -64 -3 -3 -34 24 -69 59 -36 36 -60 65 -54 65 5 0
36 -27 69 -60z m-30 -178 c-7 -7 -45 29 -45 41 0 6 11 0 25 -13 14 -13 23 -26
20 -28z m239 -33 c32 -33 56 -62 54 -64 -2 -3 -33 25 -68 60 -36 36 -60 65
-54 65 5 0 36 -27 68 -61z m-194 -4 c7 -8 8 -15 2 -15 -5 0 -15 7 -22 15 -7 8
-8 15 -2 15 5 0 15 -7 22 -15z m155 -163 c-7 -7 -55 39 -55 52 0 5 13 -3 30
-19 16 -16 28 -31 25 -33z m274 -77 c8 -11 -8 2 -37 30 -29 27 -52 54 -52 60
0 10 62 -52 89 -90z m-244 55 c3 -5 2 -10 -4 -10 -5 0 -13 5 -16 10 -3 6 -2
10 4 10 5 0 13 -4 16 -10z m8595 -370 l0 -220 -27 0 c-51 0 -207 -37 -278 -65
-166 -66 -185 -83 -918 -769 l-429 -401 -131 -6 c-183 -9 -568 -9 -590 0 -16
6 8 34 140 172 210 218 246 271 277 406 44 197 -2 373 -135 506 -77 77 -139
109 -256 134 -113 24 -817 24 -942 0 -121 -23 -195 -63 -275 -147 -92 -98
-142 -208 -166 -365 -7 -44 -13 -424 -17 -1025 l-6 -954 59 52 c32 28 230 216
439 416 l380 365 539 -2 539 -2 657 -1685 c361 -927 680 -1741 708 -1809 113
-271 218 -388 390 -431 l42 -11 0 -219 0 -220 -1305 0 -1305 0 0 218 0 219
143 6 c217 10 300 38 397 136 109 110 154 246 153 466 -1 205 33 113 -512
1395 -382 897 -507 1180 -520 1180 -10 0 -177 -156 -498 -463 l-303 -289 0
-801 c0 -441 5 -879 10 -973 16 -277 60 -403 181 -525 84 -85 135 -105 302
-120 67 -5 141 -12 165 -15 l42 -5 0 -210 0 -209 -1430 0 -1430 0 0 210 0 209
33 5 c17 2 91 9 163 15 173 14 226 33 308 115 101 99 151 210 177 391 8 53 13
385 16 996 l5 916 -304 290 c-322 307 -489 463 -499 463 -13 0 -130 -264 -419
-945 -339 -797 -535 -1266 -573 -1370 -91 -253 -41 -572 113 -725 75 -76 170
-118 295 -130 55 -5 133 -10 173 -10 l72 0 0 -220 0 -220 -1305 0 -1305 0 0
220 0 220 28 6 c126 27 234 113 317 250 44 73 247 582 918 2309 l533 1370 540
2 539 2 435 -416 435 -415 3 654 c1 359 -2 808 -7 998 -10 378 -16 419 -83
558 -41 87 -143 193 -222 232 -113 56 -186 63 -621 64 -325 0 -403 -3 -468
-17 -117 -25 -179 -57 -256 -134 -111 -111 -158 -237 -148 -398 10 -178 62
-279 236 -459 58 -61 129 -136 156 -166 l50 -55 -45 -7 c-55 -8 -507 -8 -612
1 l-76 6 -424 396 c-722 675 -727 679 -853 742 -90 45 -183 73 -290 88 l-85
12 0 219 0 218 4480 0 4480 0 0 -220z"/>
</g>
</svg>
